<!-- Generator: Adobe Illustrator 18.0.0, SVG Export Plug-In  -->
<svg version="1.1"
	 xmlns="http://www.w3.org/2000/svg" xmlns:xlink="http://www.w3.org/1999/xlink" xmlns:a="http://ns.adobe.com/AdobeSVGViewerExtensions/3.0/"
	 x="0px" y="0px" width="124.7px" height="124.7px" viewBox="0 0 124.7 124.7" enable-background="new 0 0 124.7 124.7"
	 xml:space="preserve">
<defs>
</defs>
<g>
	<path d="M62.4,124.7C28,124.7,0,96.7,0,62.4S28,0,62.4,0c34.4,0,62.4,28,62.4,62.4S96.7,124.7,62.4,124.7z M62.4,4
		C30.2,4,4,30.2,4,62.4c0,32.2,26.2,58.4,58.4,58.4s58.4-26.2,58.4-58.4C120.7,30.2,94.5,4,62.4,4z"/>
</g>
<g>
	<g>
		<polygon points="94.8,61.5 46.1,89.3 46.1,33.2 		"/>
		<path d="M44.1,92.7v-63l54.7,31.8L44.1,92.7z M48.1,36.7v49.1l42.7-24.4L48.1,36.7z"/>
	</g>
</g>
</svg>
