<?xml version="1.0" encoding="utf-8"?>
<!-- Generator: Adobe Illustrator 18.0.0, SVG Export Plug-In . SVG Version: 6.00 Build 0)  -->
<!DOCTYPE svg PUBLIC "-//W3C//DTD SVG 1.1//EN" "http://www.w3.org/Graphics/SVG/1.1/DTD/svg11.dtd">
<svg version="1.1" id="Layer_1" xmlns="http://www.w3.org/2000/svg" xmlns:xlink="http://www.w3.org/1999/xlink" x="0px" y="0px"
	 viewBox="0 0 386 350" enable-background="new 0 0 386 350" xml:space="preserve">
<path opacity="0.6" fill="#30317F" d="M360.151,290.883L67.437,341.195c-2.71,0.466-5.309-1.37-5.775-4.081L13.786,58.569
	c-0.466-2.71,1.37-5.309,4.081-5.775L310.58,2.483c2.71-0.466,5.309,1.37,5.775,4.081l47.877,278.545
	C364.697,287.818,362.861,290.417,360.151,290.883z"/>
<path opacity="0.6" fill="#30317F" d="M330.58,329.168L23.371,295.936c-2.734-0.296-4.729-2.775-4.433-5.509L49.308,9.678
	c0.296-2.734,2.775-4.729,5.509-4.433l307.209,33.232c2.734,0.296,4.729,2.775,4.433,5.509l-30.37,280.749
	C335.793,327.469,333.314,329.464,330.58,329.168z"/>
<path fill="#30317F" d="M347.812,322.764H33.436c-2.75,0-5-2.25-5-5V24.253c0-2.75,2.25-5,5-5h314.375c2.75,0,5,2.25,5,5v293.51
	C352.812,320.514,350.562,322.764,347.812,322.764z"/>
</svg>
