<?xml version="1.0" encoding="utf-8"?>
<!-- Generator: Adobe Illustrator 18.0.0, SVG Export Plug-In . SVG Version: 6.00 Build 0)  -->
<!DOCTYPE svg PUBLIC "-//W3C//DTD SVG 1.1//EN" "http://www.w3.org/Graphics/SVG/1.1/DTD/svg11.dtd">
<svg version="1.1" id="Layer_1" xmlns="http://www.w3.org/2000/svg" xmlns:xlink="http://www.w3.org/1999/xlink" x="0px" y="0px"
	 viewBox="0 0 45 44.239" enable-background="new 0 0 45 44.239" xml:space="preserve">
<rect x="-21.059" y="-217.2" fill="#F2F1E6" width="487.559" height="167.439"/>
<g>
	
		<image overflow="visible" opacity="0.3" width="2053" height="207" xlink:href="98345902.png"  transform="matrix(0.24 0 0 0.24 -22.7598 -108.4619)">
	</image>
	<g>
		<rect x="-21.059" y="-106.761" fill="#D4D0B3" width="487.559" height="44.449"/>
	</g>
</g>
<rect x="-116.63" y="-151.425" fill="#265898" width="56.692" height="46.8"/>
<rect x="-116.63" y="-99.112" fill="#1B9CD7" width="56.692" height="46.8"/>
<rect x="-116.63" y="-46.8" fill="#9EC599" width="56.692" height="46.8"/>
<rect x="-116.63" y="5.513" fill="#E2B864" width="56.692" height="46.8"/>
<rect x="-116.63" y="57.825" fill="#C6DFF4" width="56.692" height="46.8"/>
<rect x="-116.63" y="110.138" fill="#90ADC1" width="56.692" height="46.8"/>
<rect x="-116.63" y="162.45" fill="#E5CDA8" width="56.692" height="46.801"/>
<rect x="-116.63" y="214.763" fill="#F7EE9C" width="56.692" height="46.8"/>
<rect x="-116.63" y="267.954" fill="#ACBCAC" width="56.692" height="46.801"/>
<g>
	<g>
		
			<line fill="none" stroke="#265898" stroke-width="6" stroke-miterlimit="10" x1="-164.298" y1="-206.761" x2="-163.798" y2="-206.761"/>
		
			<line fill="none" stroke="#265898" stroke-width="6" stroke-miterlimit="10" stroke-dasharray="1.0057,1.0057" x1="-162.792" y1="-206.761" x2="-50.658" y2="-206.761"/>
		
			<line fill="none" stroke="#265898" stroke-width="6" stroke-miterlimit="10" x1="-50.155" y1="-206.761" x2="-49.655" y2="-206.761"/>
		<g>
			<polygon fill="#265898" points="-158.322,-201.675 -163.411,-206.761 -158.322,-211.847 -162.641,-211.847 -167.727,-206.761 
				-162.641,-201.675 			"/>
		</g>
		<g>
			<polygon fill="#265898" points="-55.631,-201.675 -50.542,-206.761 -55.631,-211.847 -51.313,-211.847 -46.227,-206.761 
				-51.313,-201.675 			"/>
		</g>
	</g>
</g>
<g>
	<circle fill="#E2B864" cx="136.786" cy="-84.501" r="17.701"/>
	<g>
		<path fill="#C6DFF4" d="M142.442-74.425c-0.02,0.491-0.436,0.895-0.928,0.895h-9.455c-0.494,0-0.912-0.403-0.928-0.895
			l-0.652-17.827c-0.02-0.492,0.369-0.895,0.863-0.895h10.889c0.492,0,0.881,0.402,0.863,0.895L142.442-74.425z"/>
		<path fill="#9DAC9E" d="M141.454-87.504h-9.334l0.16,4.434l0,0l0.217,5.913l0.021,0.594c0.088,0.402,0.445,0.704,0.873,0.704
			h6.777c0.488,0,0.885-0.395,0.891-0.882l0.002-0.038l0.229-6.291l0,0L141.454-87.504z"/>
		<path fill="#FFFFFF" d="M139.403-79.084c-0.002,0-0.006,0-0.012,0c-0.297-0.006-0.531-0.251-0.525-0.549l0.238-11.644
			c0.006-0.298,0.252-0.541,0.549-0.526c0.297,0.007,0.531,0.252,0.525,0.548l-0.238,11.646
			C139.934-79.316,139.694-79.084,139.403-79.084z"/>
	</g>
	<path fill="#BA9953" d="M154.487-84.501c0-0.51-0.025-1.012-0.068-1.511l-11.402-6.627c0.051,0.118,0.082,0.247,0.078,0.387
		l-0.652,17.827c-0.02,0.491-0.436,0.895-0.928,0.895h-9.094l9.998,5.809C149.432-70.074,154.487-76.695,154.487-84.501z"/>
</g>
<g>
	<circle fill="#9EC599" cx="175.636" cy="-84.501" r="17.701"/>
	<g>
		<path fill="#C6DFF4" d="M181.292-74.425c-0.02,0.491-0.436,0.895-0.928,0.895h-9.455c-0.494,0-0.912-0.403-0.928-0.895
			l-0.652-17.827c-0.02-0.492,0.369-0.895,0.863-0.895h10.889c0.492,0,0.881,0.402,0.863,0.895L181.292-74.425z"/>
		<path fill="#9DAC9E" d="M180.304-87.504h-9.334l0.16,4.434l0,0l0.217,5.913l0.021,0.594c0.088,0.402,0.445,0.704,0.873,0.704
			h6.777c0.488,0,0.885-0.395,0.891-0.882l0.002-0.038l0.229-6.291l0,0L180.304-87.504z"/>
		<path fill="#FFFFFF" d="M178.253-79.084c-0.002,0-0.006,0-0.012,0c-0.297-0.006-0.531-0.251-0.525-0.549l0.238-11.644
			c0.006-0.298,0.252-0.541,0.549-0.526c0.297,0.007,0.531,0.252,0.525,0.548l-0.238,11.646
			C178.785-79.316,178.544-79.084,178.253-79.084z"/>
	</g>
	<path fill="#83A580" d="M193.337-84.501c0-0.51-0.025-1.012-0.068-1.511l-11.402-6.627c0.051,0.118,0.082,0.247,0.078,0.387
		l-0.652,17.827c-0.02,0.491-0.436,0.895-0.928,0.895h-9.094l9.998,5.809C188.283-70.074,193.337-76.695,193.337-84.501z"/>
</g>
<g>
	<circle fill="#E2B864" cx="97.934" cy="-84.501" r="17.702"/>
	<g>
		<path fill="#9DAC9E" d="M101.413-90.901c-0.492-0.835-0.988-1.668-1.488-2.503c-0.467-0.774-0.852-1.713-0.85-2.089
			c0-0.044-0.008-0.086-0.023-0.128c0.238-0.074,0.418-0.314,0.42-0.603c0-0.182,0-0.365,0.002-0.548
			c0.002-0.347-0.252-0.629-0.568-0.629c-0.715,0-1.43,0-2.145,0c-0.316,0-0.57,0.282-0.568,0.629c0,0.183,0.002,0.366,0.002,0.548
			c0.002,0.288,0.18,0.528,0.42,0.603c-0.016,0.042-0.023,0.084-0.023,0.128c0,0.376-0.383,1.314-0.848,2.089
			c-0.502,0.835-1,1.668-1.492,2.503c-0.457,0.775-0.813,2.144-0.799,3.042c0.086,5.014,0.17,10.027,0.252,15.04
			c0.018,0.898,0.689,1.412,1.5,1.14c0.371-0.125,0.742-0.248,1.113-0.373c0.814-0.272,2.152-0.274,2.969-0.006
			c0.391,0.129,0.781,0.258,1.174,0.386c0.811,0.269,1.484-0.248,1.502-1.146c0.082-5.013,0.166-10.026,0.25-15.04
			C102.228-88.758,101.872-90.126,101.413-90.901z"/>
		<g>
			<path fill="#FFFFFF" d="M94.222-87.164c0.088,2.998,0.18,5.997,0.268,8.996c1.813,0.357,3.635,0.419,5.451,0.193l0.15-8.995
				C98.136-86.746,96.171-86.809,94.222-87.164z"/>
			<path fill="#FFFFFF" d="M101.444-87.164c-0.176,0.032-0.352,0.057-0.529,0.085l-0.15,8.982c0.139-0.023,0.275-0.044,0.412-0.071
				C101.265-81.167,101.354-84.166,101.444-87.164z"/>
			<path fill="#FFFFFF" d="M100.067-90.837c-0.322-0.546-0.646-1.092-0.971-1.638c-0.117-0.195-0.369-0.258-0.564-0.142
				c-0.195,0.116-0.258,0.367-0.141,0.565c0.324,0.544,0.648,1.088,0.969,1.633c0.418,0.706,0.756,1.999,0.742,2.827l-0.012,0.622
				l-0.15,8.995l-0.064,3.899c-0.004,0.226,0.178,0.414,0.404,0.417c0.002,0,0.004,0,0.006,0c0.225,0,0.408-0.18,0.412-0.403
				l0.066-4.035l0.15-8.982l0.008-0.499C100.94-88.563,100.565-89.995,100.067-90.837z"/>
		</g>
	</g>
	<path fill="#BA9953" d="M115.636-84.501c0-1.112-0.107-2.2-0.305-3.258l-15.896-9.238c0.023,0.07,0.039,0.146,0.039,0.226
		c-0.002,0.183-0.002,0.366-0.002,0.548c-0.002,0.288-0.182,0.528-0.42,0.603c0.016,0.042,0.023,0.084,0.023,0.128
		c-0.002,0.376,0.383,1.314,0.85,2.089c0.5,0.835,0.996,1.668,1.488,2.503c0.459,0.775,0.814,2.144,0.799,3.042
		c-0.084,5.014-0.168,10.027-0.25,15.04c-0.018,0.898-0.691,1.415-1.502,1.146c-0.393-0.128-0.783-0.257-1.174-0.386
		c-0.816-0.269-2.154-0.266-2.969,0.006c-0.371,0.125-0.742,0.248-1.113,0.373c-0.207,0.069-0.404,0.087-0.586,0.061l7.451,4.328
		C109.851-69.153,115.636-76.149,115.636-84.501z"/>
</g>
<g>
	<circle fill="#9EC599" cx="59.083" cy="-84.501" r="17.701"/>
	<g>
		<path fill="#C6DFF4" d="M64.739-74.425c-0.02,0.491-0.436,0.895-0.928,0.895h-9.455c-0.494,0-0.912-0.403-0.928-0.895
			l-0.652-17.827c-0.02-0.492,0.369-0.895,0.863-0.895h10.889c0.492,0,0.881,0.402,0.863,0.895L64.739-74.425z"/>
		<path fill="#9DAC9E" d="M63.751-87.504h-9.334l0.16,4.434l0,0l0.217,5.913l0.021,0.594c0.088,0.402,0.445,0.704,0.873,0.704h6.777
			c0.488,0,0.885-0.395,0.891-0.882l0.002-0.038l0.229-6.291l0,0L63.751-87.504z"/>
		<path fill="#FFFFFF" d="M61.7-79.084c-0.002,0-0.006,0-0.012,0c-0.297-0.006-0.531-0.251-0.525-0.549l0.238-11.644
			c0.006-0.298,0.252-0.541,0.549-0.526c0.297,0.007,0.531,0.252,0.525,0.548l-0.238,11.646
			C62.231-79.316,61.991-79.084,61.7-79.084z"/>
	</g>
	<path fill="#83A580" d="M76.784-84.501c0-0.51-0.025-1.012-0.068-1.511l-11.402-6.627c0.051,0.118,0.082,0.247,0.078,0.387
		l-0.652,17.827c-0.02,0.491-0.436,0.895-0.928,0.895h-9.094l9.998,5.809C71.729-70.074,76.784-76.695,76.784-84.501z"/>
</g>
<g>
	<circle fill="#E2B864" cx="22.389" cy="23.213" r="17.702"/>
	<g>
		<path fill="#9DAC9E" d="M25.868,16.813c-0.492-0.835-0.988-1.668-1.488-2.503c-0.467-0.774-0.852-1.713-0.85-2.089
			c0-0.044-0.008-0.086-0.023-0.128c0.238-0.074,0.418-0.314,0.42-0.602c0-0.182,0-0.365,0.002-0.548
			c0.002-0.347-0.252-0.629-0.568-0.629c-0.715,0-1.43,0-2.144,0c-0.316,0-0.57,0.282-0.568,0.629c0,0.183,0.002,0.366,0.002,0.548
			c0.002,0.288,0.18,0.528,0.42,0.602c-0.016,0.042-0.023,0.084-0.023,0.128c0,0.376-0.383,1.314-0.848,2.089
			c-0.502,0.835-1,1.668-1.492,2.503c-0.457,0.775-0.813,2.144-0.799,3.042c0.086,5.014,0.17,10.027,0.252,15.04
			c0.017,0.898,0.689,1.412,1.5,1.14c0.371-0.125,0.742-0.248,1.113-0.373c0.815-0.271,2.152-0.274,2.969-0.006
			c0.391,0.129,0.781,0.258,1.174,0.386c0.811,0.268,1.484-0.248,1.502-1.147c0.082-5.013,0.166-10.026,0.25-15.04
			C26.683,18.957,26.327,17.588,25.868,16.813z"/>
		<g>
			<path fill="#FFFFFF" d="M18.677,20.55c0.088,2.998,0.18,5.997,0.268,8.996c1.813,0.357,3.635,0.419,5.451,0.193l0.15-8.995
				C22.591,20.968,20.626,20.906,18.677,20.55z"/>
			<path fill="#FFFFFF" d="M25.899,20.55c-0.176,0.032-0.352,0.057-0.529,0.085l-0.15,8.983c0.139-0.024,0.275-0.044,0.412-0.071
				C25.72,26.547,25.81,23.548,25.899,20.55z"/>
			<path fill="#FFFFFF" d="M24.522,16.877c-0.322-0.546-0.646-1.092-0.971-1.638c-0.117-0.195-0.369-0.258-0.564-0.142
				c-0.195,0.116-0.258,0.367-0.141,0.565c0.324,0.544,0.648,1.088,0.969,1.633c0.418,0.706,0.756,1.999,0.742,2.827l-0.012,0.622
				l-0.15,8.995l-0.064,3.899c-0.004,0.226,0.178,0.414,0.404,0.417c0.002,0,0.004,0,0.006,0c0.225,0,0.408-0.18,0.412-0.403
				l0.066-4.035l0.15-8.983l0.008-0.499C25.396,19.151,25.021,17.719,24.522,16.877z"/>
		</g>
	</g>
	<path fill="#BA9953" d="M40.091,23.213c0-1.112-0.107-2.2-0.305-3.258L23.89,10.717c0.024,0.07,0.039,0.146,0.039,0.226
		c-0.002,0.183-0.002,0.366-0.002,0.548c-0.002,0.288-0.182,0.528-0.42,0.602c0.016,0.042,0.023,0.084,0.023,0.128
		c-0.002,0.376,0.383,1.314,0.85,2.089c0.5,0.835,0.996,1.668,1.488,2.503c0.459,0.775,0.814,2.144,0.799,3.042
		c-0.084,5.014-0.168,10.027-0.25,15.04c-0.018,0.898-0.691,1.415-1.502,1.147c-0.393-0.128-0.783-0.257-1.174-0.386
		c-0.816-0.268-2.154-0.266-2.969,0.006c-0.371,0.125-0.742,0.248-1.113,0.373c-0.207,0.069-0.404,0.087-0.586,0.061l7.451,4.328
		C34.306,38.561,40.091,31.565,40.091,23.213z"/>
</g>
<rect x="204" y="-99.859" fill="none" width="251" height="39.098"/>
<text transform="matrix(0.9422 0 0 1 204 -92.3593)"><tspan x="0" y="0" font-family="'RobotoCondensed-Regular'" font-size="10">Para homens, o consumo abusivo de bebidas alcoólicas correspon</tspan><tspan x="262.845" y="0" font-family="'RobotoCondensed-Regular'" font-size="10">-</tspan><tspan x="0" y="12" font-family="'RobotoCondensed-Regular'" font-size="10">de à ingestão de cinco ou mais doses, em uma mesma ocasião, </tspan><tspan x="0" y="24" font-family="'RobotoCondensed-Regular'" font-size="10">dentro dos últimos 30 dias.</tspan></text>
<rect x="55" y="-173.362" fill="none" width="127.364" height="43.798"/>
<text transform="matrix(0.9422 0 0 1 55 -165.8618)"><tspan x="0" y="0" font-family="'RobotoCondensed-Regular'" font-size="10">No Brasil, em 2013, a frequência </tspan><tspan x="0" y="12" font-family="'RobotoCondensed-Regular'" font-size="10">de consumo abusivo de bebidas </tspan><tspan x="0" y="24" font-family="'RobotoCondensed-Regular'" font-size="10">alcoólicas variou entre 10,6% em </tspan><tspan x="0" y="36" font-family="'RobotoCondensed-Regular'" font-size="10">Manaus e 21,9% em Aracaju. </tspan></text>
<g>
	
		<image overflow="visible" opacity="0.3" width="105" height="147" xlink:href="98345906.png"  transform="matrix(0.24 0 0 0.24 -3.7627 -158.0708)">
	</image>
	<g>
		<g>
			<line fill="none" stroke="#265898" stroke-width="20" stroke-miterlimit="10" x1="7.938" y1="-156.37" x2="7.938" y2="-155.87"/>
			
				<line fill="none" stroke="#265898" stroke-width="20" stroke-miterlimit="10" stroke-dasharray="1.0016,1.0016" x1="7.938" y1="-154.869" x2="7.938" y2="-127.324"/>
			
				<line fill="none" stroke="#265898" stroke-width="20" stroke-miterlimit="10" x1="7.938" y1="-126.823" x2="7.938" y2="-126.323"/>
		</g>
	</g>
</g>
<g>
	
		<image overflow="visible" opacity="0.3" width="105" height="280" xlink:href="98345901.png"  transform="matrix(0.24 0 0 0.24 23.8447 -190.102)">
	</image>
	<g>
		<g>
			
				<line fill="none" stroke="#265898" stroke-width="20" stroke-miterlimit="10" x1="35.545" y1="-188.401" x2="35.545" y2="-187.901"/>
			
				<line fill="none" stroke="#265898" stroke-width="20" stroke-miterlimit="10" stroke-dasharray="1.0013,1.0013" x1="35.545" y1="-186.9" x2="35.545" y2="-127.323"/>
			
				<line fill="none" stroke="#265898" stroke-width="20" stroke-miterlimit="10" x1="35.545" y1="-126.823" x2="35.545" y2="-126.323"/>
		</g>
	</g>
</g>
<g>
	
		<image overflow="visible" opacity="0.3" width="116" height="69" xlink:href="98345903.png"  transform="matrix(0.24 0 0 0.24 -4.8676 -171.683)">
	</image>
	<g>
		<text transform="matrix(0.9422 0 0 1 -3.167 -161.4277)" fill="#265898" font-family="'RobotoCondensed-Bold'" font-size="10">10,6%</text>
	</g>
</g>
<g>
	
		<image overflow="visible" opacity="0.3" width="116" height="69" xlink:href="98345900.png"  transform="matrix(0.24 0 0 0.24 23.1549 -203.7059)">
	</image>
	<g>
		<text transform="matrix(0.9422 0 0 1 24.8555 -193.4507)" fill="#265898" font-family="'RobotoCondensed-Bold'" font-size="10">21,9%</text>
	</g>
</g>
<line fill="none" stroke="#90ADC1" stroke-width="3" stroke-miterlimit="10" x1="-9.471" y1="-123.323" x2="191.337" y2="-123.323"/>
<rect x="213" y="-207.362" opacity="0.3" fill="#CC434D" width="253.5" height="33.601"/>
<rect x="213" y="-163.695" opacity="0.4" fill="#81A881" width="253.5" height="44.548"/>
<g>
	
		<image overflow="visible" opacity="0.3" width="101" height="162" xlink:href="9834590E.png"  transform="matrix(0.24 0 0 0.24 202.8247 -209.0625)">
	</image>
	<g>
		<polygon fill="#CC434D" points="223.474,-190.955 214,-207.362 204.525,-190.955 209,-190.955 209,-173.761 219,-173.761 
			219,-190.955 		"/>
	</g>
</g>
<rect x="226.61" y="-199.72" fill="none" width="229.89" height="77.519"/>
<text transform="matrix(0.9422 0 0 1 226.6104 -192.2202)"><tspan x="0" y="0" font-family="'RobotoCondensed-Regular'" font-size="10">As </tspan><tspan x="12.307" y="0" font-family="'RobotoCondensed-Bold'" font-size="10">maiores </tspan><tspan x="46.073" y="0" font-family="'RobotoCondensed-Regular'" font-size="10">frequências, entre homens, foram observadas nas </tspan><tspan x="0" y="12" font-family="'RobotoCondensed-Regular'" font-size="10">cidades de Aracaju (34,7%), São Luís (32,6%) e Cuiabá (31,1%). </tspan><tspan x="0" y="43" font-family="'RobotoCondensed-Regular'" font-size="10">As </tspan><tspan x="12.607" y="43" font-family="'RobotoCondensed-Bold'" font-size="10">menores </tspan><tspan x="49.654" y="43" font-family="'RobotoCondensed-Regular'" font-size="10">frequências do consumo abusivo de bebidas </tspan><tspan x="0" y="55" font-family="'RobotoCondensed-Regular'" font-size="10">alcoólicas no sexo masculino ocorreram em Manaus (17,2%), </tspan><tspan x="0" y="67" font-family="'RobotoCondensed-Regular'" font-size="10">Rio Branco (18,9%) e Porto Alegre (20,4%).</tspan></text>
<g>
	
		<image overflow="visible" opacity="0.3" width="101" height="207" xlink:href="98345905.png"  transform="matrix(0.24 0 0 0.24 202.8247 -165.3955)">
	</image>
	<g>
		<polygon fill="#81A881" points="219,-135.552 219,-163.695 209,-163.695 209,-135.552 204.525,-135.552 214,-119.146 
			223.474,-135.552 		"/>
	</g>
</g>
<circle fill="none" stroke="#BA9953" stroke-miterlimit="10" cx="20.231" cy="-84.501" r="17.683"/>
<circle fill="none" stroke="#BA9953" stroke-miterlimit="10" cx="97.742" cy="-84.501" r="17.683"/>
<circle fill="none" stroke="#83A580" stroke-miterlimit="10" cx="58.856" cy="-84.501" r="17.683"/>
<circle fill="none" stroke="#83A580" stroke-miterlimit="10" cx="175.682" cy="-84.501" r="17.683"/>
<circle fill="none" stroke="#BA9953" stroke-miterlimit="10" cx="136.809" cy="-84.501" r="17.683"/>
</svg>
