<?xml version="1.0" encoding="utf-8"?>
<!-- Generator: Adobe Illustrator 18.0.0, SVG Export Plug-In . SVG Version: 6.00 Build 0)  -->
<!DOCTYPE svg PUBLIC "-//W3C//DTD SVG 1.1//EN" "http://www.w3.org/Graphics/SVG/1.1/DTD/svg11.dtd">
<svg version="1.1" id="Layer_1" xmlns="http://www.w3.org/2000/svg" xmlns:xlink="http://www.w3.org/1999/xlink" x="0px" y="0px"
	 viewBox="0 0 24.24 38.88" enable-background="new 0 0 24.24 38.88" xml:space="preserve">
<rect x="-146.67" y="-184.138" fill="#F2F1E6" width="487.559" height="167.439"/>
<g>
	
		<image overflow="visible" opacity="0.3" width="2053" height="207" xlink:href="A0CA05D0.png"  transform="matrix(0.24 0 0 0.24 -148.3705 -75.3993)">
	</image>
	<g>
		<rect x="-146.67" y="-73.699" fill="#D4D0B3" width="487.559" height="44.449"/>
	</g>
</g>
<rect x="-242.241" y="-118.362" fill="#265898" width="56.692" height="46.8"/>
<rect x="-242.241" y="-66.049" fill="#1B9CD7" width="56.692" height="46.8"/>
<rect x="-242.241" y="-13.737" fill="#9EC599" width="56.692" height="46.8"/>
<rect x="-242.241" y="38.576" fill="#E2B864" width="56.692" height="46.8"/>
<rect x="-242.241" y="90.888" fill="#C6DFF4" width="56.692" height="46.8"/>
<rect x="-242.241" y="143.201" fill="#90ADC1" width="56.692" height="46.8"/>
<rect x="-242.241" y="195.512" fill="#E5CDA8" width="56.692" height="46.801"/>
<rect x="-242.241" y="247.826" fill="#F7EE9C" width="56.692" height="46.8"/>
<rect x="-242.241" y="301.016" fill="#ACBCAC" width="56.692" height="46.801"/>
<g>
	<g>
		
			<line fill="none" stroke="#265898" stroke-width="6" stroke-miterlimit="10" x1="-289.909" y1="-173.699" x2="-289.409" y2="-173.699"/>
		
			<line fill="none" stroke="#265898" stroke-width="6" stroke-miterlimit="10" stroke-dasharray="1.0057,1.0057" x1="-288.403" y1="-173.699" x2="-176.269" y2="-173.699"/>
		
			<line fill="none" stroke="#265898" stroke-width="6" stroke-miterlimit="10" x1="-175.766" y1="-173.699" x2="-175.266" y2="-173.699"/>
		<g>
			<polygon fill="#265898" points="-283.933,-168.613 -289.022,-173.699 -283.933,-178.785 -288.251,-178.785 -293.337,-173.699 
				-288.251,-168.613 			"/>
		</g>
		<g>
			<polygon fill="#265898" points="-181.242,-168.613 -176.153,-173.699 -181.242,-178.785 -176.923,-178.785 -171.837,-173.699 
				-176.923,-168.613 			"/>
		</g>
	</g>
</g>
<g>
	<circle fill="#E2B864" cx="11.175" cy="-51.438" r="17.701"/>
	<g>
		<path fill="#C6DFF4" d="M16.831-41.362c-0.019,0.491-0.436,0.895-0.928,0.895H6.448c-0.494,0-0.912-0.403-0.928-0.895
			L4.868-59.189c-0.019-0.492,0.369-0.895,0.863-0.895H16.62c0.492,0,0.881,0.402,0.863,0.895L16.831-41.362z"/>
		<path fill="#9DAC9E" d="M15.843-54.441H6.509l0.16,4.434l0,0l0.217,5.913l0.022,0.594c0.088,0.402,0.445,0.704,0.873,0.704h6.777
			c0.488,0,0.885-0.395,0.891-0.882l0.002-0.038l0.229-6.291l0,0L15.843-54.441z"/>
		<path fill="#FFFFFF" d="M13.792-46.021c-0.002,0-0.006,0-0.012,0c-0.297-0.006-0.531-0.251-0.525-0.549l0.238-11.643
			c0.006-0.298,0.252-0.541,0.549-0.526c0.297,0.007,0.531,0.252,0.525,0.548l-0.238,11.646
			C14.323-46.254,14.083-46.021,13.792-46.021z"/>
	</g>
	<path fill="#BA9953" d="M28.876-51.438c0-0.51-0.025-1.012-0.068-1.511l-11.402-6.627c0.051,0.118,0.082,0.247,0.078,0.387
		l-0.652,17.827c-0.019,0.491-0.436,0.895-0.928,0.895H6.81l9.998,5.81C23.821-37.012,28.876-43.633,28.876-51.438z"/>
</g>
<g>
	<circle fill="#9EC599" cx="50.026" cy="-51.438" r="17.701"/>
	<g>
		<path fill="#C6DFF4" d="M55.682-41.362c-0.02,0.491-0.436,0.895-0.928,0.895h-9.455c-0.494,0-0.912-0.403-0.928-0.895
			l-0.652-17.827c-0.02-0.492,0.369-0.895,0.863-0.895h10.889c0.492,0,0.881,0.402,0.863,0.895L55.682-41.362z"/>
		<path fill="#9DAC9E" d="M54.693-54.441h-9.334l0.16,4.434l0,0l0.217,5.913l0.021,0.594c0.088,0.402,0.445,0.704,0.873,0.704h6.777
			c0.488,0,0.885-0.395,0.891-0.882l0.002-0.038l0.229-6.291l0,0L54.693-54.441z"/>
		<path fill="#FFFFFF" d="M52.643-46.021c-0.002,0-0.006,0-0.012,0c-0.297-0.006-0.531-0.251-0.525-0.549l0.238-11.643
			c0.006-0.298,0.252-0.541,0.549-0.526c0.297,0.007,0.531,0.252,0.525,0.548L53.18-46.547
			C53.174-46.254,52.934-46.021,52.643-46.021z"/>
	</g>
	<path fill="#83A580" d="M67.727-51.438c0-0.51-0.025-1.012-0.068-1.511l-11.402-6.627c0.051,0.118,0.082,0.247,0.078,0.387
		l-0.652,17.827c-0.02,0.491-0.436,0.895-0.928,0.895H45.66l9.998,5.81C62.672-37.012,67.727-43.633,67.727-51.438z"/>
</g>
<g>
	<circle fill="#E2B864" cx="-27.677" cy="-51.438" r="17.702"/>
	<g>
		<path fill="#9DAC9E" d="M-24.198-57.839c-0.492-0.835-0.988-1.668-1.488-2.503c-0.467-0.774-0.852-1.713-0.85-2.089
			c0-0.044-0.008-0.086-0.023-0.128c0.238-0.074,0.418-0.314,0.42-0.603c0-0.182,0-0.365,0.002-0.548
			c0.002-0.347-0.252-0.629-0.568-0.629c-0.715,0-1.43,0-2.145,0c-0.316,0-0.57,0.282-0.568,0.629c0,0.183,0.002,0.366,0.002,0.548
			c0.002,0.288,0.18,0.528,0.42,0.603c-0.016,0.042-0.023,0.084-0.023,0.128c0,0.376-0.383,1.314-0.848,2.089
			c-0.502,0.835-1,1.668-1.492,2.503c-0.457,0.775-0.813,2.143-0.799,3.042c0.086,5.014,0.17,10.027,0.252,15.04
			c0.018,0.898,0.689,1.412,1.5,1.14c0.371-0.125,0.742-0.248,1.113-0.373c0.814-0.271,2.152-0.274,2.969-0.006
			c0.391,0.129,0.781,0.258,1.174,0.386c0.811,0.268,1.484-0.248,1.502-1.146c0.082-5.013,0.166-10.026,0.25-15.04
			C-23.383-55.695-23.739-57.063-24.198-57.839z"/>
		<g>
			<path fill="#FFFFFF" d="M-31.389-54.101c0.088,2.998,0.18,5.997,0.268,8.996c1.813,0.357,3.635,0.419,5.451,0.193l0.15-8.995
				C-27.475-53.683-29.44-53.746-31.389-54.101z"/>
			<path fill="#FFFFFF" d="M-24.166-54.101c-0.176,0.032-0.352,0.057-0.529,0.085l-0.15,8.982c0.139-0.023,0.275-0.044,0.412-0.071
				C-24.346-48.104-24.256-51.103-24.166-54.101z"/>
			<path fill="#FFFFFF" d="M-25.543-57.774c-0.322-0.546-0.646-1.092-0.971-1.638c-0.117-0.195-0.369-0.258-0.564-0.142
				c-0.195,0.116-0.258,0.367-0.141,0.564c0.324,0.544,0.648,1.088,0.969,1.633c0.418,0.706,0.756,1.999,0.742,2.827l-0.012,0.622
				l-0.15,8.995l-0.064,3.899c-0.004,0.226,0.178,0.414,0.404,0.417c0.002,0,0.004,0,0.006,0c0.225,0,0.408-0.18,0.412-0.403
				l0.066-4.035l0.15-8.982l0.008-0.499C-24.67-55.501-25.045-56.932-25.543-57.774z"/>
		</g>
	</g>
	<path fill="#BA9953" d="M-9.975-51.438c0-1.112-0.107-2.2-0.305-3.258l-15.896-9.238c0.023,0.07,0.039,0.146,0.039,0.225
		c-0.002,0.183-0.002,0.366-0.002,0.548c-0.002,0.288-0.182,0.528-0.42,0.603c0.016,0.042,0.023,0.084,0.023,0.128
		c-0.002,0.376,0.383,1.314,0.85,2.089c0.5,0.835,0.996,1.668,1.488,2.503c0.459,0.775,0.814,2.143,0.799,3.042
		c-0.084,5.014-0.168,10.027-0.25,15.04c-0.018,0.898-0.691,1.415-1.502,1.146c-0.393-0.128-0.783-0.257-1.174-0.386
		c-0.816-0.269-2.154-0.266-2.969,0.006c-0.371,0.125-0.742,0.248-1.113,0.373c-0.207,0.069-0.404,0.087-0.586,0.061l7.451,4.328
		C-15.76-36.091-9.975-43.087-9.975-51.438z"/>
</g>
<g>
	<circle fill="#9EC599" cx="-66.528" cy="-51.438" r="17.701"/>
	<g>
		<path fill="#C6DFF4" d="M-60.871-41.362c-0.02,0.491-0.436,0.895-0.928,0.895h-9.455c-0.494,0-0.912-0.403-0.928-0.895
			l-0.652-17.827c-0.02-0.492,0.369-0.895,0.863-0.895h10.889c0.492,0,0.881,0.402,0.863,0.895L-60.871-41.362z"/>
		<path fill="#9DAC9E" d="M-61.86-54.441h-9.334l0.16,4.434l0,0l0.217,5.913l0.021,0.594c0.088,0.402,0.445,0.704,0.873,0.704h6.777
			c0.488,0,0.885-0.395,0.891-0.882l0.002-0.038l0.228-6.291l0,0L-61.86-54.441z"/>
		<path fill="#FFFFFF" d="M-63.911-46.021c-0.002,0-0.006,0-0.012,0c-0.297-0.006-0.531-0.251-0.525-0.549l0.238-11.643
			c0.006-0.298,0.252-0.541,0.549-0.526c0.297,0.007,0.531,0.252,0.525,0.548l-0.238,11.646
			C-63.379-46.254-63.62-46.021-63.911-46.021z"/>
	</g>
	<path fill="#83A580" d="M-48.827-51.438c0-0.51-0.025-1.012-0.068-1.511l-11.402-6.627c0.051,0.118,0.082,0.247,0.078,0.387
		l-0.652,17.827c-0.02,0.491-0.436,0.895-0.928,0.895h-9.094l9.998,5.81C-53.881-37.012-48.827-43.633-48.827-51.438z"/>
</g>
<g>
	<circle fill="#E2B864" cx="-114.192" cy="-51.438" r="17.702"/>
	<g>
		<path fill="#9DAC9E" d="M-110.713-57.839c-0.492-0.835-0.988-1.668-1.488-2.503c-0.467-0.774-0.852-1.713-0.85-2.089
			c0-0.044-0.008-0.086-0.023-0.128c0.238-0.074,0.418-0.314,0.42-0.603c0-0.182,0-0.365,0.002-0.548
			c0.002-0.347-0.252-0.629-0.568-0.629c-0.715,0-1.43,0-2.145,0c-0.316,0-0.57,0.282-0.568,0.629c0,0.183,0.002,0.366,0.002,0.548
			c0.002,0.288,0.18,0.528,0.42,0.603c-0.016,0.042-0.023,0.084-0.023,0.128c0,0.376-0.383,1.314-0.848,2.089
			c-0.502,0.835-1,1.668-1.492,2.503c-0.457,0.775-0.813,2.143-0.799,3.042c0.086,5.014,0.17,10.027,0.252,15.04
			c0.018,0.898,0.689,1.412,1.5,1.14c0.371-0.125,0.742-0.248,1.113-0.373c0.815-0.271,2.152-0.274,2.969-0.006
			c0.391,0.129,0.781,0.258,1.174,0.386c0.811,0.268,1.484-0.248,1.502-1.146c0.082-5.013,0.166-10.026,0.25-15.04
			C-109.898-55.695-110.254-57.063-110.713-57.839z"/>
		<g>
			<path fill="#FFFFFF" d="M-117.904-54.101c0.088,2.998,0.18,5.997,0.268,8.996c1.813,0.357,3.635,0.419,5.451,0.193l0.15-8.995
				C-113.99-53.683-115.955-53.746-117.904-54.101z"/>
			<path fill="#FFFFFF" d="M-110.681-54.101c-0.176,0.032-0.352,0.057-0.529,0.085l-0.15,8.982c0.139-0.023,0.275-0.044,0.412-0.071
				C-110.861-48.104-110.771-51.103-110.681-54.101z"/>
			<path fill="#FFFFFF" d="M-112.058-57.774c-0.322-0.546-0.646-1.092-0.971-1.638c-0.117-0.195-0.369-0.258-0.564-0.142
				c-0.195,0.116-0.258,0.367-0.141,0.564c0.324,0.544,0.648,1.088,0.969,1.633c0.418,0.706,0.756,1.999,0.742,2.827l-0.012,0.622
				l-0.15,8.995l-0.064,3.899c-0.004,0.226,0.178,0.414,0.404,0.417c0.002,0,0.004,0,0.006,0c0.225,0,0.408-0.18,0.412-0.403
				l0.066-4.035l0.15-8.982l0.008-0.499C-111.185-55.501-111.56-56.932-112.058-57.774z"/>
		</g>
	</g>
	<path fill="#BA9953" d="M-96.49-51.438c0-1.112-0.107-2.2-0.305-3.258l-15.896-9.238c0.023,0.07,0.039,0.146,0.039,0.225
		c-0.002,0.183-0.002,0.366-0.002,0.548c-0.002,0.288-0.182,0.528-0.42,0.603c0.016,0.042,0.023,0.084,0.023,0.128
		c-0.002,0.376,0.383,1.314,0.85,2.089c0.5,0.835,0.996,1.668,1.488,2.503c0.459,0.775,0.814,2.143,0.799,3.042
		c-0.084,5.014-0.168,10.027-0.25,15.04c-0.018,0.898-0.691,1.415-1.502,1.146c-0.393-0.128-0.783-0.257-1.174-0.386
		c-0.816-0.269-2.154-0.266-2.969,0.006c-0.371,0.125-0.742,0.248-1.113,0.373c-0.207,0.069-0.404,0.087-0.586,0.061l7.451,4.328
		C-102.275-36.091-96.49-43.087-96.49-51.438z"/>
</g>
<rect x="78.389" y="-66.797" fill="none" width="251" height="39.098"/>
<text transform="matrix(0.9422 0 0 1 78.3893 -59.2967)"><tspan x="0" y="0" font-family="'RobotoCondensed-Regular'" font-size="10">Para homens, o consumo abusivo de bebidas alcoólicas correspon</tspan><tspan x="262.845" y="0" font-family="'RobotoCondensed-Regular'" font-size="10">-</tspan><tspan x="0" y="12" font-family="'RobotoCondensed-Regular'" font-size="10">de à ingestão de cinco ou mais doses, em uma mesma ocasião, </tspan><tspan x="0" y="24" font-family="'RobotoCondensed-Regular'" font-size="10">dentro dos últimos 30 dias.</tspan></text>
<rect x="-70.611" y="-140.299" fill="none" width="127.364" height="43.798"/>
<text transform="matrix(0.9422 0 0 1 -70.6107 -132.7992)"><tspan x="0" y="0" font-family="'RobotoCondensed-Regular'" font-size="10">No Brasil, em 2013, a frequência </tspan><tspan x="0" y="12" font-family="'RobotoCondensed-Regular'" font-size="10">de consumo abusivo de bebidas </tspan><tspan x="0" y="24" font-family="'RobotoCondensed-Regular'" font-size="10">alcoólicas variou entre 10,6% em </tspan><tspan x="0" y="36" font-family="'RobotoCondensed-Regular'" font-size="10">Manaus e 21,9% em Aracaju. </tspan></text>
<g>
	
		<image overflow="visible" opacity="0.3" width="105" height="147" xlink:href="A0CA05D1.png"  transform="matrix(0.24 0 0 0.24 -129.3735 -125.0082)">
	</image>
	<g>
		<g>
			
				<line fill="none" stroke="#265898" stroke-width="20" stroke-miterlimit="10" x1="-117.673" y1="-123.307" x2="-117.673" y2="-122.807"/>
			
				<line fill="none" stroke="#265898" stroke-width="20" stroke-miterlimit="10" stroke-dasharray="1.0016,1.0016" x1="-117.673" y1="-121.806" x2="-117.673" y2="-94.261"/>
			
				<line fill="none" stroke="#265898" stroke-width="20" stroke-miterlimit="10" x1="-117.673" y1="-93.76" x2="-117.673" y2="-93.26"/>
		</g>
	</g>
</g>
<g>
	
		<image overflow="visible" opacity="0.3" width="105" height="280" xlink:href="A0CA05D7.png"  transform="matrix(0.24 0 0 0.24 -101.7661 -157.0394)">
	</image>
	<g>
		<g>
			
				<line fill="none" stroke="#265898" stroke-width="20" stroke-miterlimit="10" x1="-90.065" y1="-155.339" x2="-90.065" y2="-154.839"/>
			
				<line fill="none" stroke="#265898" stroke-width="20" stroke-miterlimit="10" stroke-dasharray="1.0013,1.0013" x1="-90.065" y1="-153.837" x2="-90.065" y2="-94.261"/>
			
				<line fill="none" stroke="#265898" stroke-width="20" stroke-miterlimit="10" x1="-90.065" y1="-93.76" x2="-90.065" y2="-93.26"/>
		</g>
	</g>
</g>
<g>
	
		<image overflow="visible" opacity="0.3" width="116" height="69" xlink:href="A0CA05D2.png"  transform="matrix(0.24 0 0 0.24 -130.4784 -138.6204)">
	</image>
	<g>
		<text transform="matrix(0.9422 0 0 1 -128.7777 -128.3651)" fill="#265898" font-family="'RobotoCondensed-Bold'" font-size="10">10,6%</text>
	</g>
</g>
<g>
	
		<image overflow="visible" opacity="0.3" width="116" height="69" xlink:href="A0CA05D3.png"  transform="matrix(0.24 0 0 0.24 -102.4559 -170.6434)">
	</image>
	<g>
		<text transform="matrix(0.9422 0 0 1 -100.7553 -160.388)" fill="#265898" font-family="'RobotoCondensed-Bold'" font-size="10">21,9%</text>
	</g>
</g>
<line fill="none" stroke="#90ADC1" stroke-width="3" stroke-miterlimit="10" x1="-135.081" y1="-90.26" x2="65.727" y2="-90.26"/>
<rect x="87.389" y="-174.299" opacity="0.3" fill="#CC434D" width="253.5" height="33.601"/>
<rect x="87.389" y="-130.632" opacity="0.4" fill="#81A881" width="253.5" height="44.548"/>
<g>
	
		<image overflow="visible" opacity="0.3" width="101" height="162" xlink:href="A0CA05DE.png"  transform="matrix(0.24 0 0 0.24 77.214 -175.9999)">
	</image>
	<g>
		<polygon fill="#CC434D" points="97.863,-157.892 88.389,-174.299 78.915,-157.892 83.389,-157.892 83.389,-140.699 
			93.389,-140.699 93.389,-157.892 		"/>
	</g>
</g>
<rect x="101" y="-166.658" fill="none" width="229.89" height="77.519"/>
<text transform="matrix(0.9422 0 0 1 100.9996 -159.1576)"><tspan x="0" y="0" font-family="'RobotoCondensed-Regular'" font-size="10">As </tspan><tspan x="12.307" y="0" font-family="'RobotoCondensed-Bold'" font-size="10">maiores </tspan><tspan x="46.073" y="0" font-family="'RobotoCondensed-Regular'" font-size="10">frequências, entre homens, foram observadas nas </tspan><tspan x="0" y="12" font-family="'RobotoCondensed-Regular'" font-size="10">cidades de Aracaju (34,7%), São Luís (32,6%) e Cuiabá (31,1%). </tspan><tspan x="0" y="43" font-family="'RobotoCondensed-Regular'" font-size="10">As </tspan><tspan x="12.607" y="43" font-family="'RobotoCondensed-Bold'" font-size="10">menores </tspan><tspan x="49.654" y="43" font-family="'RobotoCondensed-Regular'" font-size="10">frequências do consumo abusivo de bebidas </tspan><tspan x="0" y="55" font-family="'RobotoCondensed-Regular'" font-size="10">alcoólicas no sexo masculino ocorreram em Manaus (17,2%), </tspan><tspan x="0" y="67" font-family="'RobotoCondensed-Regular'" font-size="10">Rio Branco (18,9%) e Porto Alegre (20,4%).</tspan></text>
<g>
	
		<image overflow="visible" opacity="0.3" width="101" height="207" xlink:href="A0CA05DF.png"  transform="matrix(0.24 0 0 0.24 77.214 -132.3329)">
	</image>
	<g>
		<polygon fill="#81A881" points="93.389,-102.49 93.389,-130.632 83.389,-130.632 83.389,-102.49 78.915,-102.49 88.389,-86.083 
			97.863,-102.49 		"/>
	</g>
</g>
<circle fill="none" stroke="#BA9953" stroke-miterlimit="10" cx="-114.192" cy="-51.438" r="17.683"/>
<circle fill="none" stroke="#BA9953" stroke-miterlimit="10" cx="-27.869" cy="-51.438" r="17.683"/>
<circle fill="none" stroke="#83A580" stroke-miterlimit="10" cx="-66.754" cy="-51.438" r="17.683"/>
<circle fill="none" stroke="#83A580" stroke-miterlimit="10" cx="50.071" cy="-51.438" r="17.683"/>
<circle fill="none" stroke="#BA9953" stroke-miterlimit="10" cx="11.198" cy="-51.438" r="17.683"/>
<g>
	
		<image overflow="visible" opacity="0.3" width="101" height="162" xlink:href="A0CA05D4.png"  transform="matrix(0.24 0 0 0.24 0 0)">
	</image>
	<g>
		<polygon fill="#CC434D" points="20.649,18.108 11.175,1.701 1.701,18.108 6.175,18.108 6.175,35.301 16.175,35.301 16.175,18.108 
					"/>
	</g>
</g>
<g>
	
		<image overflow="visible" opacity="0.3" width="101" height="207" xlink:href="A0CA05D5.png"  transform="matrix(0.24 0 0 0.24 63.0472 -8.833)">
	</image>
	<g>
		<polygon fill="#81A881" points="79.223,21.01 79.223,-7.132 69.223,-7.132 69.223,21.01 64.748,21.01 74.223,37.417 83.696,21.01 
					"/>
	</g>
</g>
</svg>
