<?xml version="1.0" encoding="utf-8"?>
<!-- Generator: Adobe Illustrator 18.0.0, SVG Export Plug-In . SVG Version: 6.00 Build 0)  -->
<!DOCTYPE svg PUBLIC "-//W3C//DTD SVG 1.1//EN" "http://www.w3.org/Graphics/SVG/1.1/DTD/svg11.dtd">
<svg version="1.1" id="Layer_1" xmlns="http://www.w3.org/2000/svg" xmlns:xlink="http://www.w3.org/1999/xlink" x="0px" y="0px"
	 viewBox="0 0 24.24 49.68" enable-background="new 0 0 24.24 49.68" xml:space="preserve">
<rect x="-209.717" y="-175.305" fill="#F2F1E6" width="487.559" height="167.439"/>
<g>
	
		<image overflow="visible" opacity="0.3" width="2053" height="207" xlink:href="B33FBF9B.png"  transform="matrix(0.24 0 0 0.24 -211.4177 -66.5663)">
	</image>
	<g>
		<rect x="-209.717" y="-64.866" fill="#D4D0B3" width="487.559" height="44.449"/>
	</g>
</g>
<rect x="-305.288" y="-109.529" fill="#265898" width="56.692" height="46.8"/>
<rect x="-305.288" y="-57.216" fill="#1B9CD7" width="56.692" height="46.8"/>
<rect x="-305.288" y="-4.904" fill="#9EC599" width="56.692" height="46.8"/>
<rect x="-305.288" y="47.409" fill="#E2B864" width="56.692" height="46.8"/>
<rect x="-305.288" y="99.721" fill="#C6DFF4" width="56.692" height="46.8"/>
<rect x="-305.288" y="152.034" fill="#90ADC1" width="56.692" height="46.8"/>
<rect x="-305.288" y="204.345" fill="#E5CDA8" width="56.692" height="46.801"/>
<rect x="-305.288" y="256.659" fill="#F7EE9C" width="56.692" height="46.8"/>
<rect x="-305.288" y="309.849" fill="#ACBCAC" width="56.692" height="46.801"/>
<g>
	<g>
		
			<line fill="none" stroke="#265898" stroke-width="6" stroke-miterlimit="10" x1="-352.956" y1="-164.866" x2="-352.456" y2="-164.866"/>
		
			<line fill="none" stroke="#265898" stroke-width="6" stroke-miterlimit="10" stroke-dasharray="1.0057,1.0057" x1="-351.45" y1="-164.866" x2="-239.316" y2="-164.866"/>
		
			<line fill="none" stroke="#265898" stroke-width="6" stroke-miterlimit="10" x1="-238.813" y1="-164.866" x2="-238.313" y2="-164.866"/>
		<g>
			<polygon fill="#265898" points="-346.98,-159.78 -352.069,-164.866 -346.98,-169.952 -351.299,-169.952 -356.385,-164.866 
				-351.299,-159.78 			"/>
		</g>
		<g>
			<polygon fill="#265898" points="-244.289,-159.78 -239.2,-164.866 -244.289,-169.952 -239.97,-169.952 -234.885,-164.866 
				-239.97,-159.78 			"/>
		</g>
	</g>
</g>
<g>
	<circle fill="#E2B864" cx="-51.872" cy="-42.605" r="17.701"/>
	<g>
		<path fill="#C6DFF4" d="M-46.216-32.529c-0.02,0.491-0.436,0.895-0.928,0.895h-9.455c-0.494,0-0.912-0.403-0.928-0.895
			l-0.652-17.827c-0.02-0.492,0.369-0.895,0.863-0.895h10.889c0.492,0,0.881,0.402,0.863,0.895L-46.216-32.529z"/>
		<path fill="#9DAC9E" d="M-47.204-45.608h-9.334l0.16,4.434l0,0l0.217,5.913l0.022,0.594c0.088,0.402,0.445,0.704,0.873,0.704
			h6.777c0.488,0,0.885-0.395,0.891-0.882l0.002-0.038l0.229-6.291l0,0L-47.204-45.608z"/>
		<path fill="#FFFFFF" d="M-49.255-37.188c-0.002,0-0.006,0-0.012,0c-0.297-0.006-0.531-0.251-0.525-0.549l0.238-11.644
			c0.006-0.298,0.252-0.541,0.549-0.526c0.297,0.007,0.531,0.252,0.525,0.548l-0.238,11.646
			C-48.724-37.421-48.964-37.188-49.255-37.188z"/>
	</g>
	<path fill="#BA9953" d="M-34.171-42.605c0-0.51-0.025-1.012-0.068-1.511l-11.402-6.627c0.051,0.118,0.082,0.247,0.078,0.387
		l-0.652,17.827c-0.02,0.491-0.436,0.895-0.928,0.895h-9.094l9.998,5.809C-39.226-28.179-34.171-34.8-34.171-42.605z"/>
</g>
<g>
	<circle fill="#9EC599" cx="-13.022" cy="-42.605" r="17.701"/>
	<g>
		<path fill="#C6DFF4" d="M-7.365-32.529c-0.02,0.491-0.436,0.895-0.928,0.895h-9.455c-0.494,0-0.912-0.403-0.928-0.895
			l-0.652-17.827c-0.02-0.492,0.369-0.895,0.863-0.895h10.889c0.492,0,0.881,0.402,0.863,0.895L-7.365-32.529z"/>
		<path fill="#9DAC9E" d="M-8.354-45.608h-9.334l0.16,4.434l0,0l0.217,5.913l0.021,0.594c0.088,0.402,0.445,0.704,0.873,0.704h6.777
			c0.488,0,0.885-0.395,0.891-0.882l0.002-0.038l0.228-6.291l0,0L-8.354-45.608z"/>
		<path fill="#FFFFFF" d="M-10.405-37.188c-0.002,0-0.006,0-0.012,0c-0.297-0.006-0.531-0.251-0.525-0.549l0.238-11.644
			c0.006-0.298,0.252-0.541,0.549-0.526c0.297,0.007,0.531,0.252,0.525,0.548l-0.238,11.646
			C-9.873-37.421-10.114-37.188-10.405-37.188z"/>
	</g>
	<path fill="#83A580" d="M4.679-42.605c0-0.51-0.025-1.012-0.068-1.511l-11.402-6.627c0.051,0.118,0.082,0.247,0.078,0.387
		l-0.652,17.827c-0.02,0.491-0.436,0.895-0.928,0.895h-9.094l9.998,5.809C-0.375-28.179,4.679-34.8,4.679-42.605z"/>
</g>
<g>
	<circle fill="#E2B864" cx="-90.724" cy="-42.605" r="17.702"/>
	<g>
		<path fill="#9DAC9E" d="M-87.245-49.006c-0.492-0.835-0.988-1.668-1.488-2.503c-0.467-0.774-0.852-1.713-0.85-2.089
			c0-0.044-0.008-0.086-0.023-0.128c0.238-0.074,0.418-0.314,0.42-0.603c0-0.182,0-0.365,0.002-0.548
			c0.002-0.347-0.252-0.629-0.568-0.629c-0.715,0-1.43,0-2.145,0c-0.316,0-0.57,0.282-0.568,0.629c0,0.183,0.002,0.366,0.002,0.548
			c0.002,0.288,0.18,0.528,0.42,0.603c-0.016,0.042-0.023,0.084-0.023,0.128c0,0.376-0.383,1.314-0.848,2.089
			c-0.502,0.835-1,1.668-1.492,2.503c-0.457,0.775-0.813,2.144-0.799,3.042c0.086,5.014,0.17,10.027,0.252,15.04
			c0.018,0.898,0.689,1.412,1.5,1.14c0.371-0.125,0.742-0.248,1.113-0.373c0.814-0.271,2.152-0.274,2.969-0.006
			c0.391,0.129,0.781,0.258,1.174,0.386c0.811,0.268,1.484-0.248,1.502-1.146c0.082-5.013,0.166-10.026,0.25-15.04
			C-86.43-46.862-86.786-48.23-87.245-49.006z"/>
		<g>
			<path fill="#FFFFFF" d="M-94.436-45.268c0.088,2.998,0.18,5.997,0.268,8.996c1.813,0.357,3.635,0.419,5.451,0.193l0.15-8.995
				C-90.522-44.851-92.487-44.913-94.436-45.268z"/>
			<path fill="#FFFFFF" d="M-87.214-45.268c-0.176,0.032-0.352,0.057-0.529,0.085l-0.15,8.982c0.139-0.023,0.275-0.044,0.412-0.071
				C-87.393-39.271-87.303-42.27-87.214-45.268z"/>
			<path fill="#FFFFFF" d="M-88.591-48.941c-0.322-0.546-0.646-1.092-0.971-1.638c-0.117-0.195-0.369-0.258-0.564-0.142
				c-0.195,0.116-0.258,0.367-0.141,0.565c0.324,0.544,0.648,1.088,0.969,1.633c0.418,0.706,0.756,1.999,0.742,2.827l-0.012,0.622
				l-0.15,8.995l-0.064,3.899c-0.004,0.226,0.178,0.414,0.404,0.417c0.002,0,0.004,0,0.006,0c0.225,0,0.408-0.18,0.412-0.403
				l0.066-4.035l0.15-8.982l0.008-0.499C-87.718-46.668-88.093-48.1-88.591-48.941z"/>
		</g>
	</g>
	<path fill="#BA9953" d="M-73.022-42.605c0-1.112-0.107-2.2-0.305-3.258l-15.896-9.238c0.023,0.07,0.039,0.146,0.039,0.225
		c-0.002,0.183-0.002,0.366-0.002,0.548c-0.002,0.288-0.182,0.528-0.42,0.603c0.016,0.042,0.023,0.084,0.023,0.128
		c-0.002,0.376,0.383,1.314,0.85,2.089c0.5,0.835,0.996,1.668,1.488,2.503c0.459,0.775,0.814,2.144,0.799,3.042
		c-0.084,5.014-0.168,10.027-0.25,15.04c-0.018,0.898-0.691,1.415-1.502,1.146c-0.393-0.128-0.783-0.257-1.174-0.386
		c-0.816-0.269-2.154-0.266-2.969,0.006c-0.371,0.125-0.742,0.248-1.113,0.373c-0.207,0.069-0.404,0.087-0.586,0.061l7.451,4.328
		C-78.807-27.258-73.022-34.254-73.022-42.605z"/>
</g>
<g>
	<circle fill="#9EC599" cx="-129.575" cy="-42.605" r="17.701"/>
	<g>
		<path fill="#C6DFF4" d="M-123.919-32.529c-0.02,0.491-0.436,0.895-0.928,0.895h-9.455c-0.494,0-0.912-0.403-0.928-0.895
			l-0.652-17.827c-0.02-0.492,0.369-0.895,0.863-0.895h10.889c0.492,0,0.881,0.402,0.863,0.895L-123.919-32.529z"/>
		<path fill="#9DAC9E" d="M-124.907-45.608h-9.334l0.16,4.434l0,0l0.217,5.913l0.021,0.594c0.088,0.402,0.445,0.704,0.873,0.704
			h6.777c0.488,0,0.885-0.395,0.891-0.882l0.002-0.038l0.229-6.291l0,0L-124.907-45.608z"/>
		<path fill="#FFFFFF" d="M-126.958-37.188c-0.002,0-0.006,0-0.012,0c-0.297-0.006-0.531-0.251-0.525-0.549l0.238-11.644
			c0.006-0.298,0.252-0.541,0.549-0.526c0.297,0.007,0.531,0.252,0.525,0.548l-0.238,11.646
			C-126.427-37.421-126.667-37.188-126.958-37.188z"/>
	</g>
	<path fill="#83A580" d="M-111.874-42.605c0-0.51-0.025-1.012-0.068-1.511l-11.402-6.627c0.051,0.118,0.082,0.247,0.078,0.387
		l-0.652,17.827c-0.02,0.491-0.436,0.895-0.928,0.895h-9.094l9.998,5.809C-116.928-28.179-111.874-34.8-111.874-42.605z"/>
</g>
<g>
	<circle fill="#E2B864" cx="-177.239" cy="-42.605" r="17.702"/>
	<g>
		<path fill="#9DAC9E" d="M-173.76-49.006c-0.492-0.835-0.988-1.668-1.488-2.503c-0.467-0.774-0.852-1.713-0.85-2.089
			c0-0.044-0.008-0.086-0.023-0.128c0.238-0.074,0.418-0.314,0.42-0.603c0-0.182,0-0.365,0.002-0.548
			c0.002-0.347-0.252-0.629-0.568-0.629c-0.715,0-1.43,0-2.145,0c-0.316,0-0.57,0.282-0.568,0.629c0,0.183,0.002,0.366,0.002,0.548
			c0.002,0.288,0.18,0.528,0.42,0.603c-0.016,0.042-0.023,0.084-0.023,0.128c0,0.376-0.383,1.314-0.848,2.089
			c-0.502,0.835-1,1.668-1.492,2.503c-0.457,0.775-0.813,2.144-0.799,3.042c0.086,5.014,0.17,10.027,0.252,15.04
			c0.018,0.898,0.689,1.412,1.5,1.14c0.371-0.125,0.742-0.248,1.113-0.373c0.814-0.271,2.152-0.274,2.969-0.006
			c0.391,0.129,0.781,0.258,1.174,0.386c0.811,0.268,1.484-0.248,1.502-1.146c0.082-5.013,0.166-10.026,0.25-15.04
			C-172.945-46.862-173.301-48.23-173.76-49.006z"/>
		<g>
			<path fill="#FFFFFF" d="M-180.951-45.268c0.088,2.998,0.18,5.997,0.268,8.996c1.813,0.357,3.635,0.419,5.451,0.193l0.15-8.995
				C-177.037-44.851-179.002-44.913-180.951-45.268z"/>
			<path fill="#FFFFFF" d="M-173.729-45.268c-0.176,0.032-0.352,0.057-0.529,0.085l-0.15,8.982c0.139-0.023,0.275-0.044,0.412-0.071
				C-173.908-39.271-173.818-42.27-173.729-45.268z"/>
			<path fill="#FFFFFF" d="M-175.106-48.941c-0.322-0.546-0.646-1.092-0.971-1.638c-0.117-0.195-0.369-0.258-0.564-0.142
				c-0.195,0.116-0.258,0.367-0.141,0.565c0.324,0.544,0.648,1.088,0.969,1.633c0.418,0.706,0.756,1.999,0.742,2.827l-0.012,0.622
				l-0.15,8.995l-0.064,3.899c-0.004,0.226,0.178,0.414,0.404,0.417c0.002,0,0.004,0,0.006,0c0.225,0,0.408-0.18,0.412-0.403
				l0.066-4.035l0.15-8.982l0.008-0.499C-174.232-46.668-174.607-48.1-175.106-48.941z"/>
		</g>
	</g>
	<path fill="#BA9953" d="M-159.537-42.605c0-1.112-0.107-2.2-0.305-3.258l-15.896-9.238c0.024,0.07,0.039,0.146,0.039,0.225
		c-0.002,0.183-0.002,0.366-0.002,0.548c-0.002,0.288-0.182,0.528-0.42,0.603c0.016,0.042,0.023,0.084,0.023,0.128
		c-0.002,0.376,0.383,1.314,0.85,2.089c0.5,0.835,0.996,1.668,1.488,2.503c0.459,0.775,0.814,2.144,0.799,3.042
		c-0.084,5.014-0.168,10.027-0.25,15.04c-0.018,0.898-0.691,1.415-1.502,1.146c-0.393-0.128-0.783-0.257-1.174-0.386
		c-0.816-0.269-2.154-0.266-2.969,0.006c-0.371,0.125-0.742,0.248-1.113,0.373c-0.207,0.069-0.404,0.087-0.586,0.061l7.451,4.328
		C-165.322-27.258-159.537-34.254-159.537-42.605z"/>
</g>
<rect x="15.342" y="-57.964" fill="none" width="251" height="39.098"/>
<text transform="matrix(0.9422 0 0 1 15.3421 -50.4637)"><tspan x="0" y="0" font-family="'RobotoCondensed-Regular'" font-size="10">Para homens, o consumo abusivo de bebidas alcoólicas correspon</tspan><tspan x="262.845" y="0" font-family="'RobotoCondensed-Regular'" font-size="10">-</tspan><tspan x="0" y="12" font-family="'RobotoCondensed-Regular'" font-size="10">de à ingestão de cinco ou mais doses, em uma mesma ocasião, </tspan><tspan x="0" y="24" font-family="'RobotoCondensed-Regular'" font-size="10">dentro dos últimos 30 dias.</tspan></text>
<rect x="-133.658" y="-131.466" fill="none" width="127.364" height="43.798"/>
<text transform="matrix(0.9422 0 0 1 -133.6579 -123.9662)"><tspan x="0" y="0" font-family="'RobotoCondensed-Regular'" font-size="10">No Brasil, em 2013, a frequência </tspan><tspan x="0" y="12" font-family="'RobotoCondensed-Regular'" font-size="10">de consumo abusivo de bebidas </tspan><tspan x="0" y="24" font-family="'RobotoCondensed-Regular'" font-size="10">alcoólicas variou entre 10,6% em </tspan><tspan x="0" y="36" font-family="'RobotoCondensed-Regular'" font-size="10">Manaus e 21,9% em Aracaju. </tspan></text>
<g>
	
		<image overflow="visible" opacity="0.3" width="105" height="147" xlink:href="B33FBF99.png"  transform="matrix(0.24 0 0 0.24 -192.4206 -116.1752)">
	</image>
	<g>
		<g>
			
				<line fill="none" stroke="#265898" stroke-width="20" stroke-miterlimit="10" x1="-180.72" y1="-114.474" x2="-180.72" y2="-113.974"/>
			
				<line fill="none" stroke="#265898" stroke-width="20" stroke-miterlimit="10" stroke-dasharray="1.0016,1.0016" x1="-180.72" y1="-112.973" x2="-180.72" y2="-85.428"/>
			
				<line fill="none" stroke="#265898" stroke-width="20" stroke-miterlimit="10" x1="-180.72" y1="-84.927" x2="-180.72" y2="-84.427"/>
		</g>
	</g>
</g>
<g>
	
		<image overflow="visible" opacity="0.3" width="105" height="280" xlink:href="B33FBF9F.png"  transform="matrix(0.24 0 0 0.24 -164.8132 -148.2064)">
	</image>
	<g>
		<g>
			
				<line fill="none" stroke="#265898" stroke-width="20" stroke-miterlimit="10" x1="-153.113" y1="-146.506" x2="-153.113" y2="-146.006"/>
			
				<line fill="none" stroke="#265898" stroke-width="20" stroke-miterlimit="10" stroke-dasharray="1.0013,1.0013" x1="-153.113" y1="-145.004" x2="-153.113" y2="-85.428"/>
			
				<line fill="none" stroke="#265898" stroke-width="20" stroke-miterlimit="10" x1="-153.113" y1="-84.927" x2="-153.113" y2="-84.427"/>
		</g>
	</g>
</g>
<g>
	
		<image overflow="visible" opacity="0.3" width="116" height="69" xlink:href="B33FBF98.png"  transform="matrix(0.24 0 0 0.24 -193.5255 -129.7874)">
	</image>
	<g>
		<text transform="matrix(0.9422 0 0 1 -191.8249 -119.5321)" fill="#265898" font-family="'RobotoCondensed-Bold'" font-size="10">10,6%</text>
	</g>
</g>
<g>
	
		<image overflow="visible" opacity="0.3" width="116" height="69" xlink:href="B33FBF96.png"  transform="matrix(0.24 0 0 0.24 -165.5031 -161.8104)">
	</image>
	<g>
		<text transform="matrix(0.9422 0 0 1 -163.8025 -151.5551)" fill="#265898" font-family="'RobotoCondensed-Bold'" font-size="10">21,9%</text>
	</g>
</g>
<line fill="none" stroke="#90ADC1" stroke-width="3" stroke-miterlimit="10" x1="-198.129" y1="-81.427" x2="2.679" y2="-81.427"/>
<rect x="24.342" y="-165.466" opacity="0.3" fill="#CC434D" width="253.5" height="33.601"/>
<rect x="24.342" y="-121.799" opacity="0.4" fill="#81A881" width="253.5" height="44.548"/>
<g>
	
		<image overflow="visible" opacity="0.3" width="101" height="162" xlink:href="B33FBF97.png"  transform="matrix(0.24 0 0 0.24 14.1668 -167.1669)">
	</image>
	<g>
		<polygon fill="#CC434D" points="34.816,-149.059 25.342,-165.466 15.867,-149.059 20.342,-149.059 20.342,-131.866 
			30.342,-131.866 30.342,-149.059 		"/>
	</g>
</g>
<rect x="37.952" y="-157.825" fill="none" width="229.89" height="77.519"/>
<text transform="matrix(0.9422 0 0 1 37.9524 -150.3246)"><tspan x="0" y="0" font-family="'RobotoCondensed-Regular'" font-size="10">As </tspan><tspan x="12.307" y="0" font-family="'RobotoCondensed-Bold'" font-size="10">maiores </tspan><tspan x="46.073" y="0" font-family="'RobotoCondensed-Regular'" font-size="10">frequências, entre homens, foram observadas nas </tspan><tspan x="0" y="12" font-family="'RobotoCondensed-Regular'" font-size="10">cidades de Aracaju (34,7%), São Luís (32,6%) e Cuiabá (31,1%). </tspan><tspan x="0" y="43" font-family="'RobotoCondensed-Regular'" font-size="10">As </tspan><tspan x="12.607" y="43" font-family="'RobotoCondensed-Bold'" font-size="10">menores </tspan><tspan x="49.654" y="43" font-family="'RobotoCondensed-Regular'" font-size="10">frequências do consumo abusivo de bebidas </tspan><tspan x="0" y="55" font-family="'RobotoCondensed-Regular'" font-size="10">alcoólicas no sexo masculino ocorreram em Manaus (17,2%), </tspan><tspan x="0" y="67" font-family="'RobotoCondensed-Regular'" font-size="10">Rio Branco (18,9%) e Porto Alegre (20,4%).</tspan></text>
<g>
	
		<image overflow="visible" opacity="0.3" width="101" height="207" xlink:href="B33FBFA7.png"  transform="matrix(0.24 0 0 0.24 14.1668 -123.4999)">
	</image>
	<g>
		<polygon fill="#81A881" points="30.342,-93.657 30.342,-121.799 20.342,-121.799 20.342,-93.657 15.867,-93.657 25.342,-77.25 
			34.816,-93.657 		"/>
	</g>
</g>
<circle fill="none" stroke="#BA9953" stroke-miterlimit="10" cx="-177.239" cy="-42.605" r="17.683"/>
<circle fill="none" stroke="#BA9953" stroke-miterlimit="10" cx="-90.916" cy="-42.605" r="17.683"/>
<circle fill="none" stroke="#83A580" stroke-miterlimit="10" cx="-129.801" cy="-42.605" r="17.683"/>
<circle fill="none" stroke="#83A580" stroke-miterlimit="10" cx="-12.976" cy="-42.605" r="17.683"/>
<circle fill="none" stroke="#BA9953" stroke-miterlimit="10" cx="-51.849" cy="-42.605" r="17.683"/>
<g>
	
		<image overflow="visible" opacity="0.3" width="101" height="162" xlink:href="B33FBFA9.png"  transform="matrix(0.24 0 0 0.24 -63.0472 8.833)">
	</image>
	<g>
		<polygon fill="#CC434D" points="-42.398,26.941 -51.872,10.534 -61.346,26.941 -56.872,26.941 -56.872,44.134 -46.872,44.134 
			-46.872,26.941 		"/>
	</g>
</g>
<g>
	
		<image overflow="visible" opacity="0.3" width="101" height="207" xlink:href="B33FBFAB.png"  transform="matrix(0.24 0 0 0.24 0 0)">
	</image>
	<g>
		<polygon fill="#81A881" points="16.175,29.843 16.175,1.701 6.175,1.701 6.175,29.843 1.701,29.843 11.175,46.25 20.649,29.843 		
			"/>
	</g>
</g>
</svg>
