<?xml version="1.0" encoding="utf-8"?>
<!-- Generator: Adobe Illustrator 18.0.0, SVG Export Plug-In . SVG Version: 6.00 Build 0)  -->
<!DOCTYPE svg PUBLIC "-//W3C//DTD SVG 1.1//EN" "http://www.w3.org/Graphics/SVG/1.1/DTD/svg11.dtd">
<svg version="1.1" id="Layer_1" xmlns="http://www.w3.org/2000/svg" xmlns:xlink="http://www.w3.org/1999/xlink" x="0px" y="0px"
	 viewBox="0 0 487.559 167.439" enable-background="new 0 0 487.559 167.439" xml:space="preserve">
<rect x="0" y="0" fill="#F2F1E6" width="487.559" height="167.439"/>
<g>
	
		<image overflow="visible" opacity="0.3" width="2053" height="207" xlink:href="4A759F4C.png"  transform="matrix(0.24 0 0 0.24 -1.7007 108.7383)">
	</image>
	<g>
		<rect x="0" y="110.439" fill="#D4D0B3" width="487.559" height="44.449"/>
	</g>
</g>
<rect x="-95.571" y="65.775" fill="#265898" width="56.692" height="46.8"/>
<rect x="-95.571" y="118.088" fill="#1B9CD7" width="56.692" height="46.8"/>
<rect x="-95.571" y="170.4" fill="#9EC599" width="56.692" height="46.8"/>
<rect x="-95.571" y="222.713" fill="#E2B864" width="56.692" height="46.8"/>
<rect x="-95.571" y="275.025" fill="#C6DFF4" width="56.692" height="46.8"/>
<rect x="-95.571" y="327.338" fill="#90ADC1" width="56.692" height="46.8"/>
<rect x="-95.571" y="379.65" fill="#E5CDA8" width="56.692" height="46.801"/>
<rect x="-95.571" y="431.963" fill="#F7EE9C" width="56.692" height="46.8"/>
<rect x="-95.571" y="485.154" fill="#ACBCAC" width="56.692" height="46.801"/>
<g>
	<g>
		
			<line fill="none" stroke="#265898" stroke-width="6" stroke-miterlimit="10" x1="-143.239" y1="10.439" x2="-142.739" y2="10.439"/>
		
			<line fill="none" stroke="#265898" stroke-width="6" stroke-miterlimit="10" stroke-dasharray="1.0057,1.0057" x1="-141.733" y1="10.439" x2="-29.599" y2="10.439"/>
		<line fill="none" stroke="#265898" stroke-width="6" stroke-miterlimit="10" x1="-29.096" y1="10.439" x2="-28.596" y2="10.439"/>
		<g>
			<polygon fill="#265898" points="-137.263,15.525 -142.352,10.439 -137.263,5.353 -141.581,5.353 -146.667,10.439 
				-141.581,15.525 			"/>
		</g>
		<g>
			<polygon fill="#265898" points="-34.572,15.525 -29.483,10.439 -34.572,5.353 -30.253,5.353 -25.167,10.439 -30.253,15.525 			
				"/>
		</g>
	</g>
</g>
<g>
	<circle fill="#E2B864" cx="157.845" cy="132.699" r="17.701"/>
	<g>
		<path fill="#C6DFF4" d="M163.501,142.775c-0.02,0.491-0.436,0.895-0.928,0.895h-9.455c-0.494,0-0.912-0.403-0.928-0.895
			l-0.652-17.827c-0.02-0.492,0.369-0.895,0.863-0.895h10.889c0.492,0,0.881,0.402,0.863,0.895L163.501,142.775z"/>
		<path fill="#9DAC9E" d="M162.513,129.696h-9.334l0.16,4.434l0,0l0.217,5.913l0.021,0.594c0.088,0.402,0.445,0.704,0.873,0.704
			h6.777c0.488,0,0.885-0.395,0.891-0.882l0.002-0.038l0.229-6.291l0,0L162.513,129.696z"/>
		<path fill="#FFFFFF" d="M160.462,138.116c-0.002,0-0.006,0-0.012,0c-0.297-0.006-0.531-0.251-0.525-0.549l0.238-11.644
			c0.006-0.298,0.252-0.541,0.549-0.526c0.297,0.007,0.531,0.252,0.525,0.548l-0.238,11.646
			C160.993,137.884,160.753,138.116,160.462,138.116z"/>
	</g>
	<path fill="#BA9953" d="M175.546,132.699c0-0.51-0.025-1.012-0.068-1.511l-11.402-6.627c0.051,0.118,0.082,0.247,0.078,0.387
		l-0.652,17.827c-0.02,0.491-0.436,0.895-0.928,0.895h-9.094l9.998,5.81C170.491,147.126,175.546,140.505,175.546,132.699z"/>
</g>
<g>
	<circle fill="#9EC599" cx="196.695" cy="132.699" r="17.701"/>
	<g>
		<path fill="#C6DFF4" d="M202.352,142.775c-0.02,0.491-0.436,0.895-0.928,0.895h-9.455c-0.494,0-0.912-0.403-0.928-0.895
			l-0.652-17.827c-0.02-0.492,0.369-0.895,0.863-0.895h10.889c0.492,0,0.881,0.402,0.863,0.895L202.352,142.775z"/>
		<path fill="#9DAC9E" d="M201.363,129.696h-9.334l0.16,4.434l0,0l0.217,5.913l0.021,0.594c0.088,0.402,0.445,0.704,0.873,0.704
			h6.777c0.488,0,0.885-0.395,0.891-0.882l0.002-0.038l0.229-6.291l0,0L201.363,129.696z"/>
		<path fill="#FFFFFF" d="M199.313,138.116c-0.002,0-0.006,0-0.012,0c-0.297-0.006-0.531-0.251-0.525-0.549l0.238-11.644
			c0.006-0.298,0.252-0.541,0.549-0.526c0.297,0.007,0.531,0.252,0.525,0.548l-0.238,11.646
			C199.844,137.884,199.604,138.116,199.313,138.116z"/>
	</g>
	<path fill="#83A580" d="M214.396,132.699c0-0.51-0.025-1.012-0.068-1.511l-11.402-6.627c0.051,0.118,0.082,0.247,0.078,0.387
		l-0.652,17.827c-0.02,0.491-0.436,0.895-0.928,0.895h-9.094l9.998,5.81C209.342,147.126,214.396,140.505,214.396,132.699z"/>
</g>
<g>
	<circle fill="#E2B864" cx="118.993" cy="132.699" r="17.702"/>
	<g>
		<path fill="#9DAC9E" d="M122.472,126.299c-0.492-0.835-0.988-1.668-1.488-2.503c-0.467-0.774-0.852-1.713-0.85-2.089
			c0-0.044-0.008-0.086-0.023-0.128c0.238-0.074,0.418-0.314,0.42-0.603c0-0.182,0-0.365,0.002-0.548
			c0.002-0.347-0.252-0.629-0.568-0.629c-0.715,0-1.43,0-2.145,0c-0.316,0-0.57,0.282-0.568,0.629c0,0.183,0.002,0.366,0.002,0.548
			c0.002,0.288,0.18,0.528,0.42,0.603c-0.016,0.042-0.023,0.084-0.023,0.128c0,0.376-0.383,1.314-0.848,2.089
			c-0.502,0.835-1,1.668-1.492,2.503c-0.457,0.775-0.813,2.144-0.799,3.042c0.086,5.014,0.17,10.027,0.252,15.04
			c0.018,0.898,0.689,1.412,1.5,1.14c0.371-0.125,0.742-0.248,1.113-0.373c0.814-0.271,2.152-0.274,2.969-0.006
			c0.391,0.129,0.781,0.258,1.174,0.386c0.811,0.268,1.484-0.248,1.502-1.146c0.082-5.013,0.166-10.026,0.25-15.04
			C123.287,128.442,122.931,127.074,122.472,126.299z"/>
		<g>
			<path fill="#FFFFFF" d="M115.281,130.036c0.088,2.998,0.18,5.997,0.268,8.996c1.813,0.357,3.635,0.419,5.451,0.193l0.15-8.995
				C119.195,130.454,117.23,130.392,115.281,130.036z"/>
			<path fill="#FFFFFF" d="M122.503,130.036c-0.176,0.032-0.352,0.057-0.529,0.085l-0.15,8.983c0.139-0.024,0.275-0.044,0.412-0.071
				C122.324,136.033,122.414,133.034,122.503,130.036z"/>
			<path fill="#FFFFFF" d="M121.126,126.363c-0.322-0.546-0.646-1.092-0.971-1.638c-0.117-0.195-0.369-0.258-0.564-0.142
				c-0.195,0.116-0.258,0.367-0.141,0.564c0.324,0.544,0.648,1.088,0.969,1.633c0.418,0.706,0.756,1.999,0.742,2.827l-0.012,0.622
				l-0.15,8.995l-0.064,3.899c-0.004,0.226,0.178,0.414,0.404,0.417c0.002,0,0.004,0,0.006,0c0.225,0,0.408-0.18,0.412-0.403
				l0.066-4.035l0.15-8.983l0.008-0.499C122,128.637,121.625,127.205,121.126,126.363z"/>
		</g>
	</g>
	<path fill="#BA9953" d="M136.695,132.699c0-1.112-0.107-2.2-0.305-3.258l-15.896-9.238c0.023,0.07,0.039,0.146,0.039,0.226
		c-0.002,0.183-0.002,0.366-0.002,0.548c-0.002,0.288-0.182,0.528-0.42,0.603c0.016,0.042,0.023,0.084,0.023,0.128
		c-0.002,0.376,0.383,1.314,0.85,2.089c0.5,0.835,0.996,1.668,1.488,2.503c0.459,0.775,0.814,2.144,0.799,3.042
		c-0.084,5.014-0.168,10.027-0.25,15.04c-0.018,0.898-0.691,1.415-1.502,1.146c-0.393-0.128-0.783-0.257-1.174-0.386
		c-0.816-0.269-2.154-0.266-2.969,0.006c-0.371,0.125-0.742,0.248-1.113,0.373c-0.207,0.069-0.404,0.087-0.586,0.061l7.451,4.328
		C130.91,148.047,136.695,141.051,136.695,132.699z"/>
</g>
<g>
	<circle fill="#9EC599" cx="80.142" cy="132.699" r="17.701"/>
	<g>
		<path fill="#C6DFF4" d="M85.798,142.775c-0.02,0.491-0.436,0.895-0.928,0.895h-9.455c-0.494,0-0.912-0.403-0.928-0.895
			l-0.652-17.827c-0.02-0.492,0.369-0.895,0.863-0.895h10.889c0.492,0,0.881,0.402,0.863,0.895L85.798,142.775z"/>
		<path fill="#9DAC9E" d="M84.81,129.696h-9.334l0.16,4.434l0,0l0.217,5.913l0.021,0.594c0.088,0.402,0.445,0.704,0.873,0.704h6.777
			c0.488,0,0.885-0.395,0.891-0.882l0.002-0.038l0.229-6.291l0,0L84.81,129.696z"/>
		<path fill="#FFFFFF" d="M82.759,138.116c-0.002,0-0.006,0-0.012,0c-0.297-0.006-0.531-0.251-0.525-0.549l0.238-11.644
			c0.006-0.298,0.252-0.541,0.549-0.526c0.297,0.007,0.531,0.252,0.525,0.548l-0.238,11.646
			C83.29,137.884,83.05,138.116,82.759,138.116z"/>
	</g>
	<path fill="#83A580" d="M97.843,132.699c0-0.51-0.025-1.012-0.068-1.511l-11.402-6.627c0.051,0.118,0.082,0.247,0.078,0.387
		l-0.652,17.827c-0.02,0.491-0.436,0.895-0.928,0.895h-9.094l9.998,5.81C92.789,147.126,97.843,140.505,97.843,132.699z"/>
</g>
<g>
	<circle fill="#E2B864" cx="32.478" cy="132.699" r="17.702"/>
	<g>
		<path fill="#9DAC9E" d="M35.957,126.299c-0.492-0.835-0.988-1.668-1.488-2.503c-0.467-0.774-0.852-1.713-0.85-2.089
			c0-0.044-0.008-0.086-0.023-0.128c0.238-0.074,0.418-0.314,0.42-0.603c0-0.182,0-0.365,0.002-0.548
			c0.002-0.347-0.252-0.629-0.568-0.629c-0.715,0-1.43,0-2.145,0c-0.316,0-0.57,0.282-0.568,0.629c0,0.183,0.002,0.366,0.002,0.548
			c0.002,0.288,0.18,0.528,0.42,0.603c-0.016,0.042-0.023,0.084-0.023,0.128c0,0.376-0.383,1.314-0.848,2.089
			c-0.502,0.835-1,1.668-1.492,2.503c-0.457,0.775-0.813,2.144-0.799,3.042c0.086,5.014,0.17,10.027,0.252,15.04
			c0.018,0.898,0.689,1.412,1.5,1.14c0.371-0.125,0.742-0.248,1.113-0.373c0.814-0.271,2.152-0.274,2.969-0.006
			c0.391,0.129,0.781,0.258,1.174,0.386c0.811,0.268,1.484-0.248,1.502-1.146c0.082-5.013,0.166-10.026,0.25-15.04
			C36.772,128.442,36.416,127.074,35.957,126.299z"/>
		<g>
			<path fill="#FFFFFF" d="M28.766,130.036c0.088,2.998,0.18,5.997,0.268,8.996c1.813,0.357,3.635,0.419,5.451,0.193l0.15-8.995
				C32.68,130.454,30.715,130.392,28.766,130.036z"/>
			<path fill="#FFFFFF" d="M35.988,130.036c-0.176,0.032-0.352,0.057-0.529,0.085l-0.15,8.983c0.139-0.024,0.275-0.044,0.412-0.071
				C35.809,136.033,35.899,133.034,35.988,130.036z"/>
			<path fill="#FFFFFF" d="M34.611,126.363c-0.322-0.546-0.646-1.092-0.971-1.638c-0.117-0.195-0.369-0.258-0.564-0.142
				s-0.258,0.367-0.141,0.564c0.324,0.544,0.648,1.088,0.969,1.633c0.418,0.706,0.756,1.999,0.742,2.827l-0.012,0.622l-0.15,8.995
				l-0.064,3.899c-0.004,0.226,0.178,0.414,0.404,0.417c0.002,0,0.004,0,0.006,0c0.225,0,0.408-0.18,0.412-0.403l0.066-4.035
				l0.15-8.983l0.008-0.499C35.485,128.637,35.11,127.205,34.611,126.363z"/>
		</g>
	</g>
	<path fill="#BA9953" d="M50.18,132.699c0-1.112-0.107-2.2-0.305-3.258l-15.896-9.238c0.023,0.07,0.039,0.146,0.039,0.226
		c-0.002,0.183-0.002,0.366-0.002,0.548c-0.002,0.288-0.182,0.528-0.42,0.603c0.016,0.042,0.023,0.084,0.023,0.128
		c-0.002,0.376,0.383,1.314,0.85,2.089c0.5,0.835,0.996,1.668,1.488,2.503c0.459,0.775,0.814,2.144,0.799,3.042
		c-0.084,5.014-0.168,10.027-0.25,15.04c-0.018,0.898-0.691,1.415-1.502,1.146c-0.393-0.128-0.783-0.257-1.174-0.386
		c-0.816-0.269-2.154-0.266-2.969,0.006c-0.371,0.125-0.742,0.248-1.113,0.373c-0.207,0.069-0.404,0.087-0.586,0.061l7.451,4.328
		C44.395,148.047,50.18,141.051,50.18,132.699z"/>
</g>
<rect x="225.059" y="117.341" fill="none" width="251" height="39.098"/>
<text transform="matrix(0.9422 0 0 1 225.0591 124.8409)"><tspan x="0" y="0" font-family="'RobotoCondensed-Regular'" font-size="10">Para homens, o consumo abusivo de bebidas alcoólicas correspon</tspan><tspan x="262.845" y="0" font-family="'RobotoCondensed-Regular'" font-size="10">-</tspan><tspan x="0" y="12" font-family="'RobotoCondensed-Regular'" font-size="10">de à ingestão de cinco ou mais doses, em uma mesma ocasião, </tspan><tspan x="0" y="24" font-family="'RobotoCondensed-Regular'" font-size="10">dentro dos últimos 30 dias.</tspan></text>
<rect x="76.059" y="43.838" fill="none" width="127.364" height="43.798"/>
<text transform="matrix(0.9422 0 0 1 76.0591 51.3384)"><tspan x="0" y="0" font-family="'RobotoCondensed-Regular'" font-size="10">No Brasil, em 2013, a frequência </tspan><tspan x="0" y="12" font-family="'RobotoCondensed-Regular'" font-size="10">de consumo abusivo de bebidas </tspan><tspan x="0" y="24" font-family="'RobotoCondensed-Regular'" font-size="10">alcoólicas variou entre 10,6% em </tspan><tspan x="0" y="36" font-family="'RobotoCondensed-Regular'" font-size="10">Manaus e 21,9% em Aracaju. </tspan></text>
<g>
	
		<image overflow="visible" opacity="0.3" width="105" height="147" xlink:href="4A759F4D.png"  transform="matrix(0.24 0 0 0.24 17.2964 59.1294)">
	</image>
	<g>
		<g>
			<line fill="none" stroke="#265898" stroke-width="20" stroke-miterlimit="10" x1="28.997" y1="60.83" x2="28.997" y2="61.33"/>
			
				<line fill="none" stroke="#265898" stroke-width="20" stroke-miterlimit="10" stroke-dasharray="1.0016,1.0016" x1="28.997" y1="62.332" x2="28.997" y2="89.877"/>
			<line fill="none" stroke="#265898" stroke-width="20" stroke-miterlimit="10" x1="28.997" y1="90.378" x2="28.997" y2="90.878"/>
		</g>
	</g>
</g>
<g>
	
		<image overflow="visible" opacity="0.3" width="105" height="280" xlink:href="4A759F4B.png"  transform="matrix(0.24 0 0 0.24 44.9037 27.0981)">
	</image>
	<g>
		<g>
			<line fill="none" stroke="#265898" stroke-width="20" stroke-miterlimit="10" x1="56.605" y1="28.799" x2="56.605" y2="29.299"/>
			
				<line fill="none" stroke="#265898" stroke-width="20" stroke-miterlimit="10" stroke-dasharray="1.0013,1.0013" x1="56.605" y1="30.3" x2="56.605" y2="89.877"/>
			<line fill="none" stroke="#265898" stroke-width="20" stroke-miterlimit="10" x1="56.605" y1="90.378" x2="56.605" y2="90.878"/>
		</g>
	</g>
</g>
<g>
	
		<image overflow="visible" opacity="0.3" width="116" height="69" xlink:href="4A759F54.png"  transform="matrix(0.24 0 0 0.24 16.1915 45.5172)">
	</image>
	<g>
		<text transform="matrix(0.9422 0 0 1 17.8921 55.7725)" fill="#265898" font-family="'RobotoCondensed-Bold'" font-size="10">10,6%</text>
	</g>
</g>
<g>
	
		<image overflow="visible" opacity="0.3" width="116" height="69" xlink:href="4A759F57.png"  transform="matrix(0.24 0 0 0.24 44.214 13.4942)">
	</image>
	<g>
		<text transform="matrix(0.9422 0 0 1 45.9146 23.7495)" fill="#265898" font-family="'RobotoCondensed-Bold'" font-size="10">21,9%</text>
	</g>
</g>
<line fill="none" stroke="#90ADC1" stroke-width="3" stroke-miterlimit="10" x1="11.588" y1="93.878" x2="212.396" y2="93.878"/>
<rect x="234.059" y="9.838" opacity="0.3" fill="#CC434D" width="253.5" height="33.601"/>
<rect x="234.059" y="53.505" opacity="0.4" fill="#81A881" width="253.5" height="44.548"/>
<g>
	
		<image overflow="visible" opacity="0.3" width="101" height="162" xlink:href="4A759F55.png"  transform="matrix(0.24 0 0 0.24 223.8838 8.1377)">
	</image>
	<g>
		<polygon fill="#CC434D" points="244.533,26.246 235.059,9.838 225.585,26.246 230.059,26.246 230.059,43.439 240.059,43.439 
			240.059,26.246 		"/>
	</g>
</g>
<rect x="247.669" y="17.48" fill="none" width="229.89" height="77.519"/>
<text transform="matrix(0.9422 0 0 1 247.6694 24.98)"><tspan x="0" y="0" font-family="'RobotoCondensed-Regular'" font-size="10">As </tspan><tspan x="12.307" y="0" font-family="'RobotoCondensed-Bold'" font-size="10">maiores </tspan><tspan x="46.073" y="0" font-family="'RobotoCondensed-Regular'" font-size="10">frequências, entre homens, foram observadas nas </tspan><tspan x="0" y="12" font-family="'RobotoCondensed-Regular'" font-size="10">cidades de Aracaju (34,7%), São Luís (32,6%) e Cuiabá (31,1%). </tspan><tspan x="0" y="43" font-family="'RobotoCondensed-Regular'" font-size="10">As </tspan><tspan x="12.607" y="43" font-family="'RobotoCondensed-Bold'" font-size="10">menores </tspan><tspan x="49.654" y="43" font-family="'RobotoCondensed-Regular'" font-size="10">frequências do consumo abusivo de bebidas </tspan><tspan x="0" y="55" font-family="'RobotoCondensed-Regular'" font-size="10">alcoólicas no sexo masculino ocorreram em Manaus (17,2%), </tspan><tspan x="0" y="67" font-family="'RobotoCondensed-Regular'" font-size="10">Rio Branco (18,9%) e Porto Alegre (20,4%).</tspan></text>
<g>
	
		<image overflow="visible" opacity="0.3" width="101" height="207" xlink:href="4A759F5B.png"  transform="matrix(0.24 0 0 0.24 223.8838 51.8047)">
	</image>
	<g>
		<polygon fill="#81A881" points="240.059,81.648 240.059,53.505 230.059,53.505 230.059,81.648 225.585,81.648 235.059,98.055 
			244.533,81.648 		"/>
	</g>
</g>
<circle fill="none" stroke="#BA9953" stroke-miterlimit="10" cx="32.478" cy="132.7" r="17.683"/>
<circle fill="none" stroke="#BA9953" stroke-miterlimit="10" cx="118.801" cy="132.7" r="17.683"/>
<circle fill="none" stroke="#83A580" stroke-miterlimit="10" cx="79.916" cy="132.7" r="17.683"/>
<circle fill="none" stroke="#83A580" stroke-miterlimit="10" cx="196.741" cy="132.7" r="17.683"/>
<circle fill="none" stroke="#BA9953" stroke-miterlimit="10" cx="157.868" cy="132.7" r="17.683"/>
</svg>
