<?xml version="1.0" encoding="utf-8"?>
<!-- Generator: Adobe Illustrator 18.0.0, SVG Export Plug-In . SVG Version: 6.00 Build 0)  -->
<!DOCTYPE svg PUBLIC "-//W3C//DTD SVG 1.1//EN" "http://www.w3.org/Graphics/SVG/1.1/DTD/svg11.dtd">
<svg version="1.1" id="Layer_1" xmlns="http://www.w3.org/2000/svg" xmlns:xlink="http://www.w3.org/1999/xlink" x="0px" y="0px"
	 viewBox="0 0 39.667 39.333" enable-background="new 0 0 39.667 39.333" xml:space="preserve">
<rect x="-2.726" y="-184.772" fill="#F2F1E6" width="487.559" height="167.439"/>
<g>
	
		<image overflow="visible" opacity="0.3" width="2053" height="207" xlink:href="87442BA2.png"  transform="matrix(0.24 0 0 0.24 -4.4265 -76.034)">
	</image>
	<g>
		<rect x="-2.726" y="-74.333" fill="#D4D0B3" width="487.559" height="44.449"/>
	</g>
</g>
<rect x="-98.297" y="-118.997" fill="#265898" width="56.692" height="46.8"/>
<rect x="-98.297" y="-66.684" fill="#1B9CD7" width="56.692" height="46.8"/>
<rect x="-98.297" y="-14.372" fill="#9EC599" width="56.692" height="46.8"/>
<rect x="-98.297" y="37.941" fill="#E2B864" width="56.692" height="46.8"/>
<rect x="-98.297" y="90.253" fill="#C6DFF4" width="56.692" height="46.8"/>
<rect x="-98.297" y="142.566" fill="#90ADC1" width="56.692" height="46.8"/>
<rect x="-98.297" y="194.878" fill="#E5CDA8" width="56.692" height="46.801"/>
<rect x="-98.297" y="247.191" fill="#F7EE9C" width="56.692" height="46.8"/>
<rect x="-98.297" y="300.381" fill="#ACBCAC" width="56.692" height="46.801"/>
<g>
	<g>
		
			<line fill="none" stroke="#265898" stroke-width="6" stroke-miterlimit="10" x1="-145.965" y1="-174.333" x2="-145.465" y2="-174.333"/>
		
			<line fill="none" stroke="#265898" stroke-width="6" stroke-miterlimit="10" stroke-dasharray="1.0057,1.0057" x1="-144.459" y1="-174.333" x2="-32.325" y2="-174.333"/>
		
			<line fill="none" stroke="#265898" stroke-width="6" stroke-miterlimit="10" x1="-31.822" y1="-174.333" x2="-31.322" y2="-174.333"/>
		<g>
			<polygon fill="#265898" points="-139.989,-169.247 -145.078,-174.333 -139.989,-179.419 -144.307,-179.419 -149.393,-174.333 
				-144.307,-169.247 			"/>
		</g>
		<g>
			<polygon fill="#265898" points="-37.298,-169.247 -32.209,-174.333 -37.298,-179.419 -32.979,-179.419 -27.893,-174.333 
				-32.979,-169.247 			"/>
		</g>
	</g>
</g>
<g>
	<circle fill="#E2B864" cx="155.119" cy="-52.073" r="17.701"/>
	<g>
		<path fill="#C6DFF4" d="M160.775-41.997c-0.02,0.491-0.436,0.895-0.928,0.895h-9.455c-0.494,0-0.912-0.403-0.928-0.895
			l-0.652-17.827c-0.02-0.492,0.369-0.895,0.863-0.895h10.889c0.492,0,0.881,0.402,0.863,0.895L160.775-41.997z"/>
		<path fill="#9DAC9E" d="M159.787-55.076h-9.334l0.16,4.434l0,0l0.217,5.913l0.021,0.594c0.088,0.402,0.445,0.704,0.873,0.704
			h6.777c0.488,0,0.885-0.395,0.891-0.882l0.002-0.038l0.229-6.291l0,0L159.787-55.076z"/>
		<path fill="#FFFFFF" d="M157.736-46.656c-0.002,0-0.006,0-0.012,0c-0.297-0.006-0.531-0.251-0.525-0.549l0.238-11.644
			c0.006-0.298,0.252-0.541,0.549-0.526c0.297,0.007,0.531,0.252,0.525,0.548l-0.238,11.646
			C158.267-46.889,158.027-46.656,157.736-46.656z"/>
	</g>
	<path fill="#BA9953" d="M172.82-52.073c0-0.51-0.025-1.012-0.068-1.511l-11.402-6.627c0.051,0.118,0.082,0.247,0.078,0.387
		l-0.652,17.827c-0.02,0.491-0.436,0.895-0.928,0.895h-9.094l9.998,5.809C167.765-37.646,172.82-44.267,172.82-52.073z"/>
</g>
<g>
	<circle fill="#9EC599" cx="193.97" cy="-52.073" r="17.701"/>
	<g>
		<path fill="#C6DFF4" d="M199.626-41.997c-0.02,0.491-0.436,0.895-0.928,0.895h-9.455c-0.494,0-0.912-0.403-0.928-0.895
			l-0.652-17.827c-0.02-0.492,0.369-0.895,0.863-0.895h10.889c0.492,0,0.881,0.402,0.863,0.895L199.626-41.997z"/>
		<path fill="#9DAC9E" d="M198.638-55.076h-9.334l0.16,4.434l0,0l0.217,5.913l0.021,0.594c0.088,0.402,0.445,0.704,0.873,0.704
			h6.777c0.488,0,0.885-0.395,0.891-0.882l0.002-0.038l0.229-6.291l0,0L198.638-55.076z"/>
		<path fill="#FFFFFF" d="M196.587-46.656c-0.002,0-0.006,0-0.012,0c-0.297-0.006-0.531-0.251-0.525-0.549l0.238-11.644
			c0.006-0.298,0.252-0.541,0.549-0.526c0.297,0.007,0.531,0.252,0.525,0.548l-0.238,11.646
			C197.118-46.889,196.878-46.656,196.587-46.656z"/>
	</g>
	<path fill="#83A580" d="M211.671-52.073c0-0.51-0.025-1.012-0.068-1.511L200.2-60.211c0.051,0.118,0.082,0.247,0.078,0.387
		l-0.652,17.827c-0.02,0.491-0.436,0.895-0.928,0.895h-9.094l9.998,5.809C206.616-37.646,211.671-44.267,211.671-52.073z"/>
</g>
<g>
	<circle fill="#E2B864" cx="116.267" cy="-52.073" r="17.702"/>
	<g>
		<path fill="#9DAC9E" d="M119.746-58.473c-0.492-0.835-0.988-1.668-1.488-2.503c-0.467-0.774-0.852-1.713-0.85-2.089
			c0-0.044-0.008-0.086-0.023-0.128c0.238-0.074,0.418-0.314,0.42-0.603c0-0.182,0-0.365,0.002-0.548
			c0.002-0.347-0.252-0.629-0.568-0.629c-0.715,0-1.43,0-2.145,0c-0.316,0-0.57,0.282-0.568,0.629c0,0.183,0.002,0.366,0.002,0.548
			c0.002,0.288,0.18,0.528,0.42,0.603c-0.016,0.042-0.023,0.084-0.023,0.128c0,0.376-0.383,1.314-0.848,2.089
			c-0.502,0.835-1,1.668-1.492,2.503c-0.457,0.775-0.813,2.144-0.799,3.042c0.086,5.014,0.17,10.027,0.252,15.04
			c0.018,0.898,0.69,1.412,1.5,1.14c0.371-0.125,0.742-0.248,1.113-0.373c0.814-0.271,2.152-0.274,2.969-0.006
			c0.391,0.129,0.781,0.258,1.174,0.386c0.811,0.269,1.484-0.248,1.502-1.146c0.082-5.013,0.166-10.026,0.25-15.04
			C120.561-56.33,120.205-57.698,119.746-58.473z"/>
		<g>
			<path fill="#FFFFFF" d="M112.555-54.736c0.088,2.998,0.18,5.997,0.268,8.996c1.813,0.357,3.635,0.419,5.451,0.193l0.15-8.995
				C116.469-54.318,114.504-54.381,112.555-54.736z"/>
			<path fill="#FFFFFF" d="M119.778-54.736c-0.176,0.032-0.352,0.057-0.529,0.085l-0.15,8.983c0.139-0.024,0.275-0.044,0.412-0.071
				C119.598-48.739,119.688-51.738,119.778-54.736z"/>
			<path fill="#FFFFFF" d="M118.401-58.409c-0.322-0.546-0.646-1.092-0.971-1.638c-0.117-0.195-0.369-0.258-0.564-0.142
				c-0.195,0.116-0.258,0.367-0.141,0.564c0.324,0.544,0.648,1.088,0.969,1.633c0.418,0.706,0.756,1.999,0.742,2.827l-0.012,0.622
				l-0.15,8.995l-0.064,3.899c-0.004,0.226,0.178,0.414,0.404,0.417c0.002,0,0.004,0,0.006,0c0.225,0,0.408-0.18,0.412-0.403
				l0.066-4.035l0.15-8.983l0.008-0.499C119.274-56.136,118.899-57.567,118.401-58.409z"/>
		</g>
	</g>
	<path fill="#BA9953" d="M133.969-52.073c0-1.112-0.107-2.2-0.305-3.258l-15.896-9.238c0.023,0.07,0.039,0.146,0.039,0.225
		c-0.002,0.183-0.002,0.366-0.002,0.548c-0.002,0.288-0.182,0.528-0.42,0.603c0.016,0.042,0.023,0.084,0.023,0.128
		c-0.002,0.376,0.383,1.314,0.85,2.089c0.5,0.835,0.996,1.668,1.488,2.503c0.459,0.775,0.814,2.144,0.799,3.042
		c-0.084,5.014-0.168,10.027-0.25,15.04c-0.018,0.898-0.691,1.415-1.502,1.146c-0.393-0.128-0.783-0.257-1.174-0.386
		c-0.816-0.269-2.154-0.266-2.969,0.006c-0.371,0.125-0.742,0.248-1.113,0.373c-0.207,0.069-0.404,0.087-0.586,0.061l7.451,4.328
		C128.184-36.725,133.969-43.722,133.969-52.073z"/>
</g>
<g>
	<circle fill="#9EC599" cx="77.416" cy="-52.073" r="17.701"/>
	<g>
		<path fill="#C6DFF4" d="M83.073-41.997c-0.02,0.491-0.436,0.895-0.928,0.895H72.69c-0.494,0-0.912-0.403-0.928-0.895L71.11-59.824
			c-0.02-0.492,0.369-0.895,0.863-0.895h10.889c0.492,0,0.881,0.402,0.863,0.895L83.073-41.997z"/>
		<path fill="#9DAC9E" d="M82.084-55.076H72.75l0.16,4.434l0,0l0.217,5.913l0.021,0.594c0.088,0.402,0.445,0.704,0.873,0.704h6.777
			c0.488,0,0.885-0.395,0.891-0.882l0.002-0.038l0.229-6.291l0,0L82.084-55.076z"/>
		<path fill="#FFFFFF" d="M80.034-46.656c-0.002,0-0.006,0-0.012,0c-0.297-0.006-0.531-0.251-0.525-0.549l0.238-11.644
			c0.006-0.298,0.252-0.541,0.549-0.526c0.297,0.007,0.531,0.252,0.525,0.548l-0.238,11.646
			C80.565-46.889,80.325-46.656,80.034-46.656z"/>
	</g>
	<path fill="#83A580" d="M95.118-52.073c0-0.51-0.025-1.012-0.068-1.511l-11.402-6.627c0.051,0.118,0.082,0.247,0.078,0.387
		l-0.652,17.827c-0.02,0.491-0.436,0.895-0.928,0.895h-9.094l9.998,5.809C90.063-37.646,95.118-44.267,95.118-52.073z"/>
</g>
<g>
	<circle fill="#E2B864" cx="20.085" cy="19.427" r="17.702"/>
	<g>
		<path fill="#9DAC9E" d="M23.565,13.027c-0.492-0.835-0.988-1.668-1.488-2.503c-0.467-0.774-0.852-1.713-0.85-2.089
			c0-0.044-0.008-0.086-0.023-0.128c0.238-0.074,0.418-0.314,0.42-0.602c0-0.182,0-0.365,0.002-0.548
			c0.002-0.347-0.252-0.629-0.568-0.629c-0.715,0-1.43,0-2.145,0c-0.316,0-0.57,0.282-0.568,0.629c0,0.183,0.002,0.366,0.002,0.548
			c0.002,0.288,0.18,0.528,0.42,0.602c-0.016,0.042-0.023,0.084-0.023,0.128c0,0.376-0.383,1.314-0.848,2.089
			c-0.502,0.835-1,1.668-1.492,2.503c-0.457,0.775-0.813,2.144-0.799,3.042c0.086,5.014,0.17,10.027,0.252,15.04
			c0.018,0.898,0.689,1.412,1.5,1.14c0.371-0.125,0.742-0.248,1.113-0.373c0.814-0.271,2.152-0.274,2.969-0.006
			c0.391,0.129,0.781,0.258,1.174,0.386c0.811,0.269,1.484-0.248,1.502-1.146c0.082-5.013,0.166-10.026,0.25-15.04
			C24.379,15.17,24.024,13.802,23.565,13.027z"/>
		<g>
			<path fill="#FFFFFF" d="M16.373,16.764c0.088,2.998,0.18,5.997,0.268,8.996c1.813,0.357,3.635,0.419,5.451,0.193l0.15-8.995
				C20.287,17.182,18.323,17.119,16.373,16.764z"/>
			<path fill="#FFFFFF" d="M23.596,16.764c-0.176,0.032-0.352,0.057-0.529,0.085l-0.15,8.983c0.139-0.024,0.275-0.044,0.412-0.071
				C23.416,22.761,23.506,19.762,23.596,16.764z"/>
			<path fill="#FFFFFF" d="M22.219,13.091c-0.322-0.546-0.647-1.092-0.971-1.638c-0.117-0.195-0.369-0.258-0.564-0.142
				c-0.195,0.116-0.258,0.367-0.141,0.564c0.324,0.544,0.648,1.088,0.969,1.633c0.418,0.706,0.756,1.999,0.742,2.827l-0.012,0.622
				l-0.15,8.995l-0.064,3.899c-0.004,0.226,0.178,0.414,0.404,0.417c0.002,0,0.004,0,0.006,0c0.225,0,0.408-0.18,0.412-0.403
				l0.066-4.035l0.15-8.983l0.008-0.499C23.092,15.364,22.717,13.933,22.219,13.091z"/>
		</g>
	</g>
	<path fill="#BA9953" d="M37.787,19.427c0-1.112-0.107-2.2-0.305-3.258L21.586,6.931c0.024,0.07,0.039,0.146,0.039,0.226
		c-0.002,0.183-0.002,0.366-0.002,0.548c-0.002,0.288-0.182,0.528-0.42,0.602c0.016,0.042,0.023,0.084,0.023,0.128
		c-0.002,0.376,0.383,1.314,0.85,2.089c0.5,0.835,0.996,1.668,1.488,2.503c0.459,0.775,0.815,2.144,0.799,3.042
		c-0.084,5.014-0.168,10.027-0.25,15.04c-0.018,0.898-0.691,1.415-1.502,1.146c-0.393-0.128-0.783-0.257-1.174-0.386
		c-0.816-0.268-2.154-0.266-2.969,0.006c-0.371,0.125-0.742,0.248-1.113,0.373c-0.207,0.069-0.404,0.087-0.586,0.061l7.451,4.328
		C32.002,34.775,37.787,27.778,37.787,19.427z"/>
</g>
<rect x="222.333" y="-67.431" fill="none" width="251" height="39.098"/>
<text transform="matrix(0.9422 0 0 1 222.3333 -59.9315)"><tspan x="0" y="0" font-family="'RobotoCondensed-Regular'" font-size="10">Para homens, o consumo abusivo de bebidas alcoólicas correspon</tspan><tspan x="262.845" y="0" font-family="'RobotoCondensed-Regular'" font-size="10">-</tspan><tspan x="0" y="12" font-family="'RobotoCondensed-Regular'" font-size="10">de à ingestão de cinco ou mais doses, em uma mesma ocasião, </tspan><tspan x="0" y="24" font-family="'RobotoCondensed-Regular'" font-size="10">dentro dos últimos 30 dias.</tspan></text>
<rect x="73.333" y="-140.934" fill="none" width="127.364" height="43.798"/>
<text transform="matrix(0.9422 0 0 1 73.3333 -133.4339)"><tspan x="0" y="0" font-family="'RobotoCondensed-Regular'" font-size="10">No Brasil, em 2013, a frequência </tspan><tspan x="0" y="12" font-family="'RobotoCondensed-Regular'" font-size="10">de consumo abusivo de bebidas </tspan><tspan x="0" y="24" font-family="'RobotoCondensed-Regular'" font-size="10">alcoólicas variou entre 10,6% em </tspan><tspan x="0" y="36" font-family="'RobotoCondensed-Regular'" font-size="10">Manaus e 21,9% em Aracaju. </tspan></text>
<g>
	
		<image overflow="visible" opacity="0.3" width="105" height="147" xlink:href="87442BA6.png"  transform="matrix(0.24 0 0 0.24 14.5706 -125.6429)">
	</image>
	<g>
		<g>
			
				<line fill="none" stroke="#265898" stroke-width="20" stroke-miterlimit="10" x1="26.271" y1="-123.942" x2="26.271" y2="-123.442"/>
			
				<line fill="none" stroke="#265898" stroke-width="20" stroke-miterlimit="10" stroke-dasharray="1.0016,1.0016" x1="26.271" y1="-122.441" x2="26.271" y2="-94.896"/>
			
				<line fill="none" stroke="#265898" stroke-width="20" stroke-miterlimit="10" x1="26.271" y1="-94.395" x2="26.271" y2="-93.895"/>
		</g>
	</g>
</g>
<g>
	
		<image overflow="visible" opacity="0.3" width="105" height="280" xlink:href="87442BA1.png"  transform="matrix(0.24 0 0 0.24 42.178 -157.6741)">
	</image>
	<g>
		<g>
			
				<line fill="none" stroke="#265898" stroke-width="20" stroke-miterlimit="10" x1="53.879" y1="-155.973" x2="53.879" y2="-155.473"/>
			
				<line fill="none" stroke="#265898" stroke-width="20" stroke-miterlimit="10" stroke-dasharray="1.0013,1.0013" x1="53.879" y1="-154.472" x2="53.879" y2="-94.895"/>
			
				<line fill="none" stroke="#265898" stroke-width="20" stroke-miterlimit="10" x1="53.879" y1="-94.395" x2="53.879" y2="-93.895"/>
		</g>
	</g>
</g>
<g>
	
		<image overflow="visible" opacity="0.3" width="116" height="69" xlink:href="87442BA3.png"  transform="matrix(0.24 0 0 0.24 13.4657 -139.2551)">
	</image>
	<g>
		<text transform="matrix(0.9422 0 0 1 15.1663 -128.9998)" fill="#265898" font-family="'RobotoCondensed-Bold'" font-size="10">10,6%</text>
	</g>
</g>
<g>
	
		<image overflow="visible" opacity="0.3" width="116" height="69" xlink:href="87442BA0.png"  transform="matrix(0.24 0 0 0.24 41.4882 -171.2781)">
	</image>
	<g>
		<text transform="matrix(0.9422 0 0 1 43.1888 -161.0228)" fill="#265898" font-family="'RobotoCondensed-Bold'" font-size="10">21,9%</text>
	</g>
</g>
<line fill="none" stroke="#90ADC1" stroke-width="3" stroke-miterlimit="10" x1="8.863" y1="-90.895" x2="209.671" y2="-90.895"/>
<rect x="231.333" y="-174.934" opacity="0.3" fill="#CC434D" width="253.5" height="33.601"/>
<rect x="231.333" y="-131.267" opacity="0.4" fill="#81A881" width="253.5" height="44.548"/>
<g>
	
		<image overflow="visible" opacity="0.3" width="101" height="162" xlink:href="87442BAE.png"  transform="matrix(0.24 0 0 0.24 221.158 -176.6346)">
	</image>
	<g>
		<polygon fill="#CC434D" points="241.807,-158.527 232.333,-174.934 222.859,-158.527 227.333,-158.527 227.333,-141.333 
			237.333,-141.333 237.333,-158.527 		"/>
	</g>
</g>
<rect x="244.944" y="-167.292" fill="none" width="229.89" height="77.519"/>
<text transform="matrix(0.9422 0 0 1 244.9437 -159.7923)"><tspan x="0" y="0" font-family="'RobotoCondensed-Regular'" font-size="10">As </tspan><tspan x="12.307" y="0" font-family="'RobotoCondensed-Bold'" font-size="10">maiores </tspan><tspan x="46.073" y="0" font-family="'RobotoCondensed-Regular'" font-size="10">frequências, entre homens, foram observadas nas </tspan><tspan x="0" y="12" font-family="'RobotoCondensed-Regular'" font-size="10">cidades de Aracaju (34,7%), São Luís (32,6%) e Cuiabá (31,1%). </tspan><tspan x="0" y="43" font-family="'RobotoCondensed-Regular'" font-size="10">As </tspan><tspan x="12.607" y="43" font-family="'RobotoCondensed-Bold'" font-size="10">menores </tspan><tspan x="49.654" y="43" font-family="'RobotoCondensed-Regular'" font-size="10">frequências do consumo abusivo de bebidas </tspan><tspan x="0" y="55" font-family="'RobotoCondensed-Regular'" font-size="10">alcoólicas no sexo masculino ocorreram em Manaus (17,2%), </tspan><tspan x="0" y="67" font-family="'RobotoCondensed-Regular'" font-size="10">Rio Branco (18,9%) e Porto Alegre (20,4%).</tspan></text>
<g>
	
		<image overflow="visible" opacity="0.3" width="101" height="207" xlink:href="87442BA5.png"  transform="matrix(0.24 0 0 0.24 221.158 -132.9676)">
	</image>
	<g>
		<polygon fill="#81A881" points="237.333,-103.124 237.333,-131.267 227.333,-131.267 227.333,-103.124 222.859,-103.124 
			232.333,-86.718 241.807,-103.124 		"/>
	</g>
</g>
<circle fill="none" stroke="#BA9953" stroke-miterlimit="10" cx="20.085" cy="19.427" r="17.683"/>
<circle fill="none" stroke="#BA9953" stroke-miterlimit="10" cx="116.075" cy="-52.073" r="17.683"/>
<circle fill="none" stroke="#83A580" stroke-miterlimit="10" cx="77.19" cy="-52.073" r="17.683"/>
<circle fill="none" stroke="#83A580" stroke-miterlimit="10" cx="194.015" cy="-52.073" r="17.683"/>
<circle fill="none" stroke="#BA9953" stroke-miterlimit="10" cx="155.142" cy="-52.073" r="17.683"/>
</svg>
