<!-- Generator: Adobe Illustrator 18.0.0, SVG Export Plug-In  -->
<svg version="1.1"
	 xmlns="http://www.w3.org/2000/svg" xmlns:xlink="http://www.w3.org/1999/xlink" xmlns:a="http://ns.adobe.com/AdobeSVGViewerExtensions/3.0/"
	 x="0px" y="0px" width="94.7px" height="125px" viewBox="0 0 94.7 125" enable-background="new 0 0 94.7 125" xml:space="preserve"
	>
<defs>
</defs>
<g>
	<g>
		<path fill="#E07773" stroke="#72706F" d="M90.3,55.1c-0.2-0.1-0.7-0.1-0.9,0c-0.1,0.1-0.1,0.5-0.1,0.7c0,0.2,0.1,0.6,0.2,0.8
			c0.2,0.2,0.7,0.4,0.9,0.3c0.2-0.1,0.3-0.5,0.3-0.7c0-0.1-0.1-0.4-0.1-0.5C90.4,55.5,90.4,55.2,90.3,55.1z"/>
		<path fill="#E07773" stroke="#72706F" d="M37.3,51.4c-0.3-0.2-0.6-0.5-0.6-0.8c0-0.3,0.4-0.7,0.5-1c0.1-0.3,0.2-1.1,0.2-1.4
			c0-0.4-0.1-1.2-0.1-1.7c0-0.5-0.1-1.4-0.1-1.8c0-0.5,0.1-1.4,0.1-1.8c0-0.4,0.2-1.1,0.2-1.6c0.4,0,0.9-0.1,1.2-0.1
			c0.5,0,1.4,0,1.8,0c0.4,0,1.2,0.1,1.6,0.2c0.3,0.1,0.7,0.5,0.9,0.6c0.3,0.1,0.8,0.3,1.1,0.4c0.3,0,0.9,0,1.2,0c0.4,0,1.1,0,1.5,0
			c0.4,0,1.3-0.1,1.7,0c0.3,0.1,1,0.4,1.3,0.5c0.3,0.1,1,0.3,1.3,0.4c0.3,0.1,1.1,0,1.4,0.2c0.1,0.1,0.3,0.4,0.4,0.4
			c0.4,0.3,1.4,0.8,1.9,0.9c0.5,0.1,1.4,0,1.9,0c0.3,0,1-0.2,1.4-0.1c0.2,0.1,0.6,0.4,0.8,0.5c0.4,0.2,1.3,0.5,1.8,0.4
			c0.3,0,0.8-0.1,1-0.3c0.2-0.2,0.3-0.7,0.4-1c0-0.3-0.2-0.9-0.1-1.3c0.1-0.4,0.5-1.1,0.8-1.4c0.2-0.2,0.7-0.4,1-0.4
			c0.4-0.1,1.1,0,1.5,0c0.3,0,1,0.1,1.3,0c0.3-0.1,1-0.5,1.3-0.7c0.3-0.2,0.7-0.9,1-1.1c0.2-0.2,0.8-0.5,1-0.5c0.2,0,0.5,0,0.7,0
			c0.4,0.1,1.1,0.4,1.4,0.5c0.3,0.1,0.9,0.3,1.2,0.4c0.2,0,0.6-0.2,0.9-0.2c0.3,0,0.8,0,1,0c0.5,0,1.6,0.1,2.1,0.4
			c0.2,0.1,0.5,0.4,0.6,0.5c0.2,0.1,0.7,0.5,1,0.5c0.2,0.1,0.7,0,0.9,0c0.3,0,1-0.1,1.3-0.3c0.2-0.1,0.3-0.6,0.5-0.7
			c0.3-0.3,1.1-0.6,1.4-0.7c0.3-0.1,1-0.1,1.3-0.1c0.4,0,1.2,0.1,1.6,0c0.3-0.1,0.9-0.6,1.2-0.7c0.3-0.1,1-0.1,1.4-0.1
			c0,0.2,0,0.4,0.1,0.6c0.1,0.2,0.3,0.5,0.4,0.7c0.1,0.4,0,1.2-0.1,1.6c-0.1,0.3-0.2,1.2-0.5,1.2c-0.2,0-0.1-0.5-0.2-0.6
			c-0.1-0.1-0.6-0.3-0.7-0.2c-0.2,0.1-0.1,0.6-0.1,0.9c0,0.2,0.3,0.5,0.3,0.6c0.1,0.3,0.4,0.8,0.4,1.1c0,0.2,0,0.6,0,0.8
			c0,0.5-0.3,1.5-0.3,2c0,0.3,0.3,0.8,0.3,1.1c0,0.3-0.1,1-0.1,1.3c0,0.5,0.4,1.5,0.5,2c0,0.4,0,1.2,0,1.6c0,0.4-0.3,1.1-0.3,1.5
			c0,0.4-0.1,1.2,0,1.5c0.1,0.4,0.3,1.1,0.4,1.5c0.1,0.3,0.3,0.9,0.3,1.3c0,0.2,0,0.6-0.1,0.8c0,0.1-0.2,0.3-0.3,0.4
			c-0.3,0.5-0.5,1.7-0.7,2.2c-0.3,1-1.1,3-1.5,4c-0.2,0.6-0.6,1.9-1,2.3c-0.4,0.4-1.5,0.5-1.9,0.8c-0.8,0.5-2.2,1.8-2.9,2.5
			c-0.8,0.8-2.3,2.3-2.9,3.2c-0.2,0.3-0.5,0.7-0.8,1.1c-0.2-0.1-0.4-0.3-0.5-0.4c-0.1-0.2-0.3-0.5-0.4-0.7c-0.1-0.1-0.3-0.5-0.5-0.5
			c-0.2-0.1-0.7-0.1-0.9,0c-0.2,0.1-0.3,0.4-0.5,0.5c-0.2,0.1-0.7,0.1-0.9,0c-0.2-0.1-0.4-0.5-0.5-0.8c0-0.1,0-0.5,0-0.6
			c0.1-0.2,0.3-0.4,0.4-0.5c0.2-0.1,0.5-0.2,0.7-0.4c0.2-0.2,0.5-0.7,0.5-1c0-0.2-0.1-0.7-0.1-0.9c0-0.3,0.2-1,0.4-1.3
			c0.2-0.3,0.9-0.5,1.1-0.8c0.2-0.2,0.4-0.6,0.4-0.9c0.1-0.2,0.1-0.7,0.1-0.9c0-0.2-0.2-0.7-0.4-0.8c-0.3-0.2-1,0-1.3,0.1
			c-0.3,0.1-0.8,0.3-1.1,0.4c-0.3,0.1-0.8,0.2-1,0.1c-0.2-0.1-0.5-0.4-0.6-0.5c-0.3-0.2-1-0.3-1.3-0.4c-0.4-0.1-1.1,0.1-1.5,0
			c-0.4-0.1-1-0.5-1.3-0.8c-0.1-0.2-0.3-0.6-0.4-0.8c-0.2-0.3-0.7-0.7-0.9-0.9c-0.2-0.2-0.4-0.7-0.6-0.9c-0.2-0.4-0.5-1.2-0.8-1.5
			c-0.2-0.1-0.6-0.2-0.8-0.3c-0.2-0.1-0.4-0.5-0.6-0.6c-0.2-0.2-0.4-0.7-0.5-1c-0.1-0.1-0.3-0.3-0.4-0.4c-0.2-0.1-0.8,0.2-1,0.1
			c-0.2-0.1-0.3-0.7-0.4-0.9c-0.1-0.2-0.4-0.7-0.6-0.8c-0.3-0.2-1.2-0.1-1.5-0.3c-0.2-0.1-0.6-0.4-0.8-0.5c-0.2-0.2-0.7-0.5-0.9-0.6
			c-0.5-0.1-1.6,0.2-2,0c-0.3-0.1-0.5-0.7-0.6-0.9c-0.3-0.3-0.9-0.8-1.2-1.1c-0.3-0.2-0.9-0.5-1.1-0.7c-0.1-0.1-0.3-0.3-0.4-0.3
			c-0.4-0.1-1.2,0.3-1.7,0.3c-0.2,0-0.5-0.2-0.7-0.2c-0.4,0-1.2,0.2-1.6,0.2C47.7,52.6,47,52,46.6,52c-0.3-0.1-1,0.1-1.3,0
			c-0.2-0.1-0.6-0.3-0.8-0.4c-0.2-0.1-0.5-0.4-0.6-0.4c-0.4-0.1-1.1-0.1-1.5-0.1c-0.3,0-1-0.3-1.4-0.2c-0.4,0.1-1.1,0.6-1.5,0.7
			c-0.5,0.1-1.4,0.2-1.9,0C37.5,51.5,37.4,51.5,37.3,51.4z"/>
	</g>
	<g>
		<path fill="#E07773" stroke="#72706F" d="M40.7,124.5c-0.4-0.1-0.6-1-0.7-1.3c-0.1-0.3,0-1.1,0-1.4c0-0.4,0-1.2,0-1.6
			c0-0.5,0-1.6,0.3-2c0.2-0.3,1.1-0.6,1.4-0.8c0.2-0.2,0.7-0.7,0.8-1c0.1-0.3,0.2-0.9,0.4-1.2c0.2-0.2,0.7-0.4,0.9-0.4
			c0.3,0,0.9,0,1.1,0.2c0.2,0.1,0.3,0.4,0.5,0.4c0.2,0.1,0.6,0,0.7,0.2c0.2,0.2,0.1,0.8,0,1c-0.1,0.3-0.5,0.7-0.7,0.9
			c-0.3,0.2-0.9,0.4-1.2,0.7c-0.2,0.3-0.5,1-0.6,1.3c-0.1,0.3,0,0.9-0.1,1.2c-0.1,0.4-0.4,1.1-0.5,1.4c-0.1,0.3-0.3,0.8-0.5,1
			c-0.2,0.2-0.5,0.6-0.8,0.8c-0.1,0.1-0.4,0.2-0.6,0.3C41.2,124.3,40.9,124.6,40.7,124.5z"/>
		<path fill="#E07773" stroke="#72706F" d="M76.8,75.8c-0.5,0.7-1,1.4-1.3,1.9c-0.6,0.9-1.7,2.8-2.2,3.7c-0.4,0.7-1,2.1-1.3,2.9
			c-0.3,0.7-0.7,2.1-1.1,2.8c-0.3,0.6-1,1.8-1.3,2.4c-0.5,0.8-1.5,2.5-2.1,3.3c-0.6,0.9-2,2.7-2.7,3.6c-0.5,0.7-1.4,2-1.9,2.6
			c-0.9,0.9-3,2.5-4,3.3c-0.8,0.6-2.4,1.6-3.2,2.1c-1.1,0.8-3.1,2.6-4,3.6c-0.3,0.4-1,1.1-1.2,1.5c-0.3,0.6-0.5,1.8-0.7,2.4
			c-0.2,0.6-0.5,1.8-0.7,2.4c-0.1,0.4-0.6,1.2-0.7,1.6c-0.1,0.4-0.2,1.3-0.4,1.7c-0.2,0.4-0.9,1.1-1.2,1.5c-0.2,0.3-0.7,1-0.9,1.3
			c-0.3,0.3-0.8,1-1.2,0.9c-0.2,0-0.3-0.5-0.3-0.7c0-0.2,0.4-0.5,0.5-0.7c0.2-0.3,0.5-0.9,0.7-1.1c0.2-0.2,0.7-0.5,0.9-0.8
			c0.2-0.2,0.5-0.8,0.6-1c0.1-0.3,0.1-1.1,0.1-1.4c0-0.2,0-0.7,0-0.9c0.1-0.3,0.3-0.7,0.4-1c0.1-0.3,0.4-0.7,0.5-1
			c0.1-0.3,0.2-0.9,0.1-1.2c0-0.3-0.3-0.9-0.4-1.2c-0.1-0.2-0.3-0.6-0.3-0.8c-0.1-0.3,0.1-0.8,0-1c0-0.2-0.1-0.8-0.4-0.9
			c-0.2-0.1-0.6,0.3-0.7,0.5c-0.1,0.2,0,0.8-0.1,1c-0.1,0.3-0.6,0.8-0.9,1c-0.2,0.1-0.6,0.2-0.7,0.4c-0.3,0.3-0.3,1.2-0.5,1.5
			c-0.2,0.3-0.9,0.6-1.2,0.7c-0.3,0-0.6-0.3-0.9-0.4c-0.4-0.2-0.9-0.9-1.3-1.1c-0.3-0.2-1-0.4-1.3-0.7c-0.3-0.3-0.6-0.9-0.8-1.2
			c-0.2-0.4-0.3-1.1-0.5-1.5c-0.1-0.3-0.5-0.8-0.7-1.1c-0.1-0.3-0.4-0.8-0.5-1c-0.3-0.4-1.2-1.1-1.7-1.4c-0.3-0.2-0.8-0.7-1.1-0.8
			c-0.3-0.2-1-0.3-1.3-0.4c-0.3-0.1-0.9-0.5-1.1-0.7c-0.4-0.3-1.2-1.1-1.5-1.5c-0.2-0.3-0.6-0.9-0.9-1.2c-0.2-0.2-0.9-0.4-1.2-0.5
			c-0.3-0.1-0.9-0.4-1.2-0.5c-0.3-0.1-1-0.4-1.4-0.5c-0.5-0.2-1.4-0.7-1.8-1c-0.3-0.2-0.7-0.8-0.9-1c-0.3-0.3-0.8-0.8-1.1-1.1
			c-0.3-0.3-0.7-1.1-1-1.4c-0.3-0.2-0.9-0.6-1.2-0.7c-0.2-0.1-0.7-0.1-0.9,0c-0.3,0.1-0.5,0.7-0.7,1c-0.1,0.2-0.3,0.7-0.5,0.9
			c-0.2,0.1-0.7,0.2-1,0.1c-0.3-0.1-0.8-0.5-1-0.7c-0.2-0.2-0.3-0.9-0.4-1.2c-0.1-0.3-0.3-0.9-0.4-1.2c-0.2-0.4-0.6-1.1-0.9-1.4
			c-0.2-0.2-0.7-0.6-1-0.8c-0.5-0.4-1.3-1.3-1.8-1.7c-0.5-0.4-1.6-1.1-2.1-1.5c-0.3-0.2-1-0.7-1.3-0.9c-0.2-0.2-0.6-0.6-0.8-0.7
			c-0.2-0.1-0.6-0.2-0.9-0.1c-0.2,0-0.6,0.2-0.8,0.3c-0.3,0.2-0.6,0.6-0.9,0.8c-0.2,0.2-0.6,0.4-0.9,0.5c-0.3,0.1-0.9,0.4-1.3,0.4
			c-0.3,0-0.9-0.1-1.2-0.2C1,86.1,0.6,86,0.5,85.8c-0.1-0.2,0.2-0.7,0.4-0.9C1.1,84.6,1.7,84.3,2,84c0.2-0.2,0.5-0.6,0.6-0.8
			c0.2-0.4,0.1-1.2,0.2-1.6c0.1-0.2,0.3-0.5,0.5-0.6c0.2-0.1,0.7,0.1,0.9,0c0.3-0.1,0.6-0.6,0.8-0.8c0.2-0.2,0.6-0.5,0.8-0.7
			c0.3-0.3,0.7-0.9,0.9-1.2c2-2.5,6-7.5,8.1-9.9c0.3-0.3,0.8-0.8,1-1.2c0.2-0.3,0.3-1.1,0.5-1.3c0.2-0.2,0.7-0.5,0.9-0.6
			c0.3-0.1,0.9-0.1,1.1-0.3c0.2-0.2,0-0.7,0-1c0-0.2,0.2-0.7,0.3-0.9c0-0.1,0.2-0.3,0.2-0.4c0.2-0.2,0.7-0.4,0.9-0.6
			c0.2-0.2,0.7-0.4,0.9-0.6c0.2-0.2,0.5-0.8,0.7-1c0.2-0.2,0.7-0.5,0.9-0.6c0.2-0.2,0.7-0.5,0.9-0.6c0.2-0.1,0.7-0.2,0.9-0.3
			c0.2-0.1,0.6-0.4,0.8-0.5c0.3-0.2,0.9-0.4,1.1-0.6c0.3-0.3,0.6-1.3,0.9-1.6c0.2-0.2,0.7-0.3,0.9-0.4c0.3-0.2,0.9-0.6,1.2-0.7
			c0.2-0.1,0.7-0.2,0.9-0.3c0.3-0.1,0.9-0.5,1.2-0.6c0.3-0.1,0.8-0.2,1.1-0.3c0.5-0.2,1.3-0.9,1.7-1.2c0.2-0.2,0.7-0.6,0.9-0.8
			c0.2-0.1,0.5-0.4,0.7-0.4c0.1-0.1,0.5-0.1,0.6-0.1c0.2,0,0.6,0,0.8,0c0.1,0,0.4,0,0.5-0.1c0.1,0.1,0.2,0.1,0.3,0.2
			c0.4,0.2,1.4,0.1,1.9,0c0.4-0.1,1.1-0.7,1.5-0.7c0.3-0.1,1,0.2,1.4,0.2c0.4,0,1.1,0,1.5,0.1c0.2,0.1,0.5,0.3,0.6,0.4
			c0.2,0.1,0.6,0.3,0.8,0.4c0.3,0.1,1-0.1,1.3,0c0.4,0.1,1.1,0.6,1.6,0.7c0.4,0.1,1.2-0.2,1.6-0.2c0.2,0,0.5,0.2,0.7,0.2
			c0.4,0,1.3-0.4,1.7-0.3c0.1,0,0.3,0.2,0.4,0.3c0.3,0.2,0.9,0.5,1.1,0.7c0.3,0.2,0.9,0.8,1.2,1.1c0.2,0.2,0.4,0.8,0.6,0.9
			c0.4,0.2,1.5-0.1,2,0c0.3,0.1,0.7,0.5,0.9,0.6c0.2,0.1,0.6,0.5,0.8,0.5c0.4,0.1,1.2,0.1,1.5,0.3c0.2,0.1,0.5,0.6,0.6,0.8
			c0.1,0.2,0.2,0.8,0.4,0.9c0.2,0.1,0.8-0.2,1-0.1c0.1,0,0.3,0.3,0.4,0.4c0.2,0.2,0.4,0.7,0.5,1c0.1,0.2,0.4,0.5,0.6,0.6
			c0.2,0.1,0.6,0.2,0.8,0.3c0.3,0.3,0.5,1.1,0.8,1.5c0.1,0.2,0.4,0.7,0.6,0.9c0.2,0.2,0.7,0.6,0.9,0.9c0.1,0.2,0.2,0.6,0.4,0.8
			c0.2,0.3,0.9,0.7,1.3,0.8c0.4,0.1,1.1-0.1,1.5,0c0.3,0,1,0.2,1.3,0.4c0.2,0.1,0.4,0.5,0.6,0.5c0.3,0.1,0.8-0.1,1-0.1
			c0.3-0.1,0.8-0.3,1.1-0.4c0.3-0.1,1-0.3,1.3-0.1c0.2,0.1,0.4,0.6,0.4,0.8c0,0.2,0,0.7-0.1,0.9c-0.1,0.2-0.3,0.7-0.4,0.9
			c-0.2,0.3-0.9,0.5-1.1,0.8c-0.2,0.3-0.4,1-0.4,1.3c0,0.2,0.2,0.7,0.1,0.9c-0.1,0.3-0.3,0.8-0.5,1c-0.1,0.1-0.5,0.3-0.7,0.4
			c-0.1,0.1-0.4,0.4-0.4,0.5c-0.1,0.1-0.1,0.4,0,0.6c0.1,0.2,0.3,0.6,0.5,0.8c0.2,0.1,0.7,0.1,0.9,0c0.2-0.1,0.3-0.4,0.5-0.5
			c0.2-0.1,0.7-0.1,0.9,0c0.2,0.1,0.4,0.4,0.5,0.5c0.1,0.2,0.3,0.5,0.4,0.7C76.4,75.5,76.6,75.6,76.8,75.8z M67.9,87.3
			c0-0.2,0-0.6,0-0.8c0-0.2-0.1-0.6-0.3-0.7c-0.1-0.1-0.3-0.1-0.4-0.1c-0.2,0-0.6,0.3-0.8,0.5c-0.2,0.2-0.5,0.6-0.7,0.7
			c-0.2,0.1-0.5-0.1-0.7,0c-0.2,0.1-0.2,0.6-0.4,0.7c-0.1,0.1-0.4-0.1-0.5-0.1c-0.2-0.1-0.6-0.3-0.8-0.5c-0.2-0.3,0-1-0.2-1.2
			c-0.1-0.2-0.6-0.2-0.7-0.3c-0.2-0.2-0.2-0.7-0.3-0.9c-0.1-0.2-0.3-0.6-0.4-0.6c-0.3,0-0.5,0.6-0.5,0.9c-0.1,0.2-0.2,0.7-0.1,1
			c0.1,0.2,0.3,0.4,0.5,0.5c0.1,0.1,0.4,0.2,0.5,0.3c0.1,0.1,0.2,0.5,0.1,0.6c0,0.1-0.3,0.3-0.3,0.4c-0.1,0.2-0.4,0.6-0.5,0.8
			c-0.1,0.2-0.2,0.8-0.3,1c-0.1,0.3-0.2,1-0.4,1.3c-0.1,0.1-0.4,0.2-0.5,0.3c-0.2,0.2-0.2,0.8-0.3,1.1c-0.1,0.1-0.3,0.4-0.4,0.5
			c-0.1,0.2-0.4,0.6-0.5,0.8c-0.1,0.3,0,1-0.2,1.2c-0.2,0.3-0.8,0.5-1,0.7c-0.2,0.2-0.4,0.8-0.6,1c-0.1,0.1-0.4,0.4-0.6,0.5
			c-0.2,0.1-0.5,0.1-0.7,0.2c-0.2,0.1-0.5,0.4-0.7,0.6c-0.1,0.1-0.4,0.3-0.5,0.5c-0.2,0.2-0.6,0.6-0.7,0.9c-0.1,0.2-0.1,0.7-0.1,0.9
			c-0.1,0.3-0.4,0.9-0.5,1.1c-0.2,0.2-0.6,0.6-0.8,0.8c-0.1,0.2-0.5,0.5-0.6,0.6c-0.1,0.1-0.2,0.4-0.2,0.6c0,0.3,0.1,0.8,0.2,1.1
			c0.1,0.2,0.3,0.5,0.5,0.6c0.2,0.1,0.7,0.1,0.9,0c0.2-0.1,0.4-0.4,0.4-0.6c0-0.2-0.2-0.6-0.2-0.8c0-0.1,0-0.5,0.1-0.6
			c0.1-0.1,0.3,0,0.4,0c0.1,0.1,0.2,0.4,0.3,0.5c0.2,0.1,0.7,0.1,0.9,0c0.3-0.1,0.6-0.7,0.9-0.8c0.3-0.2,0.9-0.5,1.2-0.7
			c0.2-0.1,0.6-0.4,0.8-0.6c0.2-0.2,0.6-0.8,0.8-1.1c0.2-0.2,0.7-0.4,0.9-0.5c0.1-0.1,0.5-0.2,0.6-0.3c0.3-0.2,0.8-0.5,1-0.8
			c0.2-0.3,0.5-0.8,0.5-1.2c0.1-0.3,0-1,0.1-1.3c0.1-0.2,0.2-0.6,0.3-0.8c0.2-0.2,0.6-0.2,0.8-0.4c0.2-0.1,0.5-0.4,0.6-0.6
			c0.1-0.2,0-0.6,0.1-0.8c0.1-0.2,0.2-0.6,0.4-0.8c0.1-0.1,0.5-0.1,0.7-0.2c0.2-0.1,0.3-0.5,0.5-0.7c0.2-0.2,0.7-0.4,0.9-0.6
			c0.1-0.2,0.3-0.6,0.3-0.8c0.1-0.3,0-0.8,0-1c0-0.3-0.4-0.9-0.3-1.1c0-0.1,0.3-0.3,0.4-0.4c0.1,0,0.4,0.1,0.5,0
			C67.6,88.1,67.8,87.6,67.9,87.3z"/>
	</g>
	<path fill="#E07773" stroke="#72706F" d="M93.8,31c0.1,0.2,0.3,0.8,0.4,1.2c-0.1,0.1-0.3,0.2-0.4,0.3c-0.2,0.1-0.6,0.4-0.9,0.4
		c-0.2,0-0.5-0.2-0.6-0.3c-0.1-0.1-0.2-0.5-0.4-0.7c-0.1-0.1-0.4-0.4-0.6-0.4c-0.2,0-0.5,0.1-0.6,0.2c-0.2,0.2,0,1-0.1,1.2
		c-0.1,0.2-0.5,0.4-0.7,0.5c-0.1,0.1-0.4,0.3-0.6,0.2c-0.2,0-0.4-0.4-0.6-0.5c-0.2-0.1-0.5-0.1-0.6,0c-0.2,0.1-0.4,0.3-0.5,0.5
		c-0.1,0.2,0,0.6,0.1,0.7c0.1,0.1,0.4,0.4,0.6,0.4c0.2,0,0.5-0.3,0.7-0.3c0.3,0,0.8,0.2,1,0.3c0.2,0.1,0.5,0.3,0.6,0.4
		c0.1,0.2,0.1,0.6,0,0.8c-0.1,0.2-0.3,0.3-0.4,0.5c-0.2,0.2-0.5,0.8-0.8,1c-0.2,0.2-0.9,0.3-1,0.5c0,0,0,0.1,0,0.2
		c-0.5,0-1.1,0-1.4,0.1c-0.3,0.1-0.9,0.6-1.2,0.7c-0.4,0.1-1.2,0-1.6,0c-0.3,0-1,0-1.3,0.1c-0.4,0.1-1.1,0.5-1.4,0.7
		c-0.2,0.1-0.3,0.6-0.5,0.7c-0.3,0.2-0.9,0.3-1.3,0.3c-0.2,0-0.7,0.1-0.9,0c-0.3-0.1-0.8-0.4-1-0.5c-0.2-0.1-0.5-0.4-0.6-0.5
		c-0.5-0.2-1.6-0.3-2.1-0.4c-0.3,0-0.8,0-1,0c-0.2,0-0.6,0.2-0.9,0.2c-0.3,0-0.9-0.3-1.2-0.4c-0.4-0.1-1.1-0.5-1.4-0.5
		c-0.2,0-0.5,0-0.7,0c-0.3,0.1-0.8,0.3-1,0.5c-0.3,0.2-0.7,0.9-1,1.1c-0.3,0.2-0.9,0.6-1.3,0.7c-0.3,0.1-1,0-1.3,0
		c-0.4,0-1.1-0.1-1.5,0c-0.3,0.1-0.8,0.3-1,0.4c-0.3,0.3-0.7,1-0.8,1.4c-0.1,0.3,0.2,0.9,0.1,1.3c0,0.3-0.2,0.8-0.4,1
		c-0.2,0.2-0.7,0.3-1,0.3c-0.5,0-1.4-0.3-1.8-0.4c-0.2-0.1-0.6-0.5-0.8-0.5c-0.3-0.1-1,0.1-1.4,0.1c-0.5,0-1.4,0.1-1.9,0
		c-0.5-0.1-1.5-0.6-1.9-0.9c-0.1-0.1-0.3-0.4-0.4-0.4c-0.3-0.2-1-0.1-1.4-0.2c-0.3-0.1-1-0.3-1.3-0.4c-0.3-0.1-1-0.4-1.3-0.5
		c-0.4-0.1-1.3,0-1.7,0c-0.4,0-1.1,0-1.5,0c-0.3,0-0.9,0-1.2,0c-0.3,0-0.9-0.2-1.1-0.4c-0.2-0.1-0.6-0.5-0.9-0.6
		c-0.4-0.1-1.2-0.2-1.6-0.2c-0.5,0-1.4,0-1.8,0c-0.3,0-0.8,0.1-1.2,0.1c0,0,0-0.1,0-0.1c0-0.3-0.2-1-0.3-1.3
		c-0.1-0.4-0.5-1.2-0.6-1.6c-0.2-0.5-0.5-1.5-0.7-2c-0.2-0.4-0.4-1.4-0.8-1.8c-0.3-0.2-1-0.4-1.3-0.5c-0.2,0-0.5,0-0.7,0
		c-0.3,0-1,0.2-1.3,0.2c-0.4,0-1.2-0.1-1.5-0.4C30.3,33.7,30,33.3,30,33c0-0.2,0.3-0.6,0.4-0.7c0.1-0.2,0.5-0.4,0.7-0.6
		c0.3-0.2,0.9-0.3,1.1-0.6c0.2-0.2,0.6-0.7,0.5-1c-0.1-0.1-0.5,0-0.7,0c-0.2,0-0.5,0.2-0.7,0.2c-0.2,0-0.6,0.1-0.8,0
		c-0.1-0.1-0.1-0.5,0-0.7c0.1-0.2,0.6-0.5,0.9-0.6c0.2-0.1,0.8-0.2,0.9-0.4c0.1-0.2,0.1-0.6,0-0.7c-0.1-0.1-0.6,0.1-0.8,0
		c-0.2-0.1-0.3-0.5-0.3-0.7c0-0.2,0.2-0.5,0.4-0.6c0.2-0.1,0.6-0.2,0.7-0.3c0.1-0.1,0.3-0.4,0.4-0.5c0-0.2-0.5-0.6-0.5-0.9
		c0.1-0.2,0.6-0.2,0.8-0.4c0.1-0.2,0.2-0.6,0.2-0.8c-0.1-0.3-0.6-0.5-0.8-0.7c-0.2-0.1-0.7-0.3-0.7-0.6c-0.2-0.4,0.2-1.2,0.3-1.6
		c0-0.3,0-0.8,0-1.1c0-0.3,0-0.9,0-1.1c-0.1-0.3-0.2-0.9-0.4-1.2c-0.1-0.1-0.2-0.2-0.3-0.3c0.3,0,0.8-0.1,1-0.1c0.3,0,1.1,0,1.4-0.3
		c0.3-0.3,0.2-1.1,0.3-1.5c0.1-0.5,0.5-1.4,0.6-1.8c0.2-0.5,0.4-1.6,0.6-2.1c0.2-0.4,0.5-1.1,0.8-1.4c0.2-0.3,0.9-0.7,1.2-1
		C37.4,8.6,38,8,38.2,7.6c0.1-0.2,0.2-0.8,0.3-1.1c0.1-0.3,0.2-0.9,0.4-1.2C39,5,39.3,4.5,39.5,4.2c0.3-0.2,0.9-0.4,1.3-0.5
		c0.2-0.1,0.7-0.2,0.9-0.3c0.4-0.2,1.2-0.4,1.6-0.7c0.3-0.2,0.7-0.9,1-1.2c0.2-0.2,0.5-0.7,0.8-0.9c0.3,0.1,0.7,0.2,0.8,0.2
		C46.3,0.8,47.2,1,47.6,1c0.6,0.1,1.8,0.1,2.4,0.1c0.7,0,2.1,0.1,2.8,0c0.3,0,1,0,1.3-0.1c0.3,0,0.8-0.3,1.1-0.3
		c0.4,0,1.1,0.3,1.5,0.4c0.4,0.1,1,0.5,1.4,0.7c0.4,0.1,1.1,0.2,1.5,0.2c0.5,0,1.5-0.2,2.1-0.2c0.3,0,1,0,1.3,0.1
		c0.4,0.1,1,0.7,1.4,0.8c0.6,0.3,1.9,0.7,2.5,1c0.4,0.2,1.2,0.5,1.6,0.6c0.3,0.1,0.8,0.2,1.1,0.3c0.3,0.1,0.9,0.4,1.3,0.4
		c0.4,0,1.3-0.1,1.7-0.2c0.3,0,0.9-0.2,1.2-0.2c0.6,0,1.7,0.1,2.2,0.3c0.5,0.2,1.4,0.9,1.8,1.2c0.3,0.3,1,0.8,1.3,1.2
		c0.3,0.5,0.7,1.7,0.9,2.3c0.2,0.8,0.2,2.3,0.3,3.1c0.1,0.7,0.2,2.1,0.5,2.7c0.1,0.3,0.5,0.8,0.7,1c0.2,0.3,0.5,0.8,0.7,1
		c0.3,0.5,0.6,1.6,0.8,2.2c0.1,0.5,0.2,1.5,0.2,2c0,0.3-0.1,1,0,1.3c0.1,0.2,0.3,0.5,0.5,0.7c0.3,0.3,1,0.7,1.4,0.9
		c0.5,0.1,1.5,0,2.1,0c0.4,0,1.2-0.1,1.6,0c0.4,0.1,1.3,0.5,1.6,0.9c0.2,0.3,0.3,1,0.2,1.4c0,0.3-0.4,0.9-0.2,1.2
		c0.1,0.3,0.7,0.7,1,0.7c0.3,0.1,0.9-0.3,1.2-0.2c0.2,0,0.5,0.3,0.6,0.5c0.2,0.3,0.2,1,0.4,1.3C93.1,30.5,93.7,30.8,93.8,31z"/>
</g>
</svg>
