<!-- Generator: Adobe Illustrator 18.0.0, SVG Export Plug-In  -->
<svg version="1.1"
	 xmlns="http://www.w3.org/2000/svg" xmlns:xlink="http://www.w3.org/1999/xlink" xmlns:a="http://ns.adobe.com/AdobeSVGViewerExtensions/3.0/"
	 x="0px" y="0px" width="308px" height="210.8px" viewBox="0 0 308 210.8" enable-background="new 0 0 308 210.8"
	 xml:space="preserve">
<defs>
</defs>
<g>
	<path fill="#F4EB98" stroke="#72706F" d="M191.5,83.1c0,0.4-0.3,1.2-0.5,1.5c-5,11.6-20.6,46.2-20.6,46.2s-0.6,0.7-0.7,1
		c-0.1,0.4,0.1,1.2,0.2,1.6c0.1,0.4,0.5,1.2,0.7,1.5c0.5,0.8,1.8,2.3,2.4,3.1c0.1,0.1,0.1,0.2,0.2,0.3c-0.3,0.2-0.7,0.4-0.8,0.6
		c-0.1,0.2,0.1,0.6,0,0.8c-0.1,0.2-0.5,0.3-0.6,0.5c-0.1,0.3,0.2,0.9,0.2,1.2c0,0.3-0.1,1-0.2,1.3c-0.1,0.2-0.6,0.5-0.8,0.7
		c-0.1,0.2-0.3,0.6-0.4,0.9c0,0.2,0.1,0.6,0.1,0.8c0.1,0.2,0.4,0.6,0.4,0.9c0.1,0.2,0,0.7,0,0.9c0,0.4-0.3,1-0.3,1.4
		c0,0.3,0,0.8,0,1c0,0.2-0.2,0.7-0.3,0.9c-0.1,0.1-0.2,0.4-0.3,0.5c-0.1,0.2-0.2,0.7-0.3,0.9c0,0.2,0,0.6-0.1,0.8
		c-0.1,0.2-0.3,0.6-0.4,0.8c-0.1,0.2,0,0.6-0.1,0.8c-0.1,0.1-0.7,0.3-0.7,0.3l-32.6,1.4c-1-0.1-1.2-0.4-1.6-0.5
		c-0.3-0.1-1.1-0.2-1.4-0.1c-0.2,0.1-0.4,0.7-0.6,0.9c-0.2,0.2-0.8,0.7-1.1,0.7c-0.3,0-0.9-0.3-1.2-0.5c-0.4-0.3-0.9-1-1.2-1.4
		c-0.2-0.2-0.5-0.7-0.8-0.9c-0.3-0.2-1.1-0.2-1.3-0.4c-0.1-0.1-0.2-0.4-0.2-0.6c-0.1-0.3-0.2-0.9-0.4-1.1c-0.2-0.2-0.8-0.3-1-0.4
		c-0.2-0.1-0.7-0.5-0.9-0.7c-0.2-0.2-0.7-0.7-0.9-0.9c-0.3-0.3-0.8-0.9-1.1-1.1c-0.4-0.2-1.2-0.5-1.7-0.6c-0.2-0.1-0.8-0.1-1-0.1
		c-0.4,0-1.3-0.2-1.8-0.2c-0.5,0-1.4,0.1-1.8,0.2c-0.4,0-1.2-0.1-1.5,0c-0.2,0.1-0.6,0.4-0.8,0.6c-0.3,0.3-0.7,0.9-0.9,1.1
		c-0.2,0.2-0.6,0.8-0.9,1c-0.2,0.2-0.6,0.7-0.9,0.9c-0.2,0.1-0.6,0.3-0.8,0.4c-0.1,0.1-0.4,0.2-0.5,0.4c-0.3,0.4-0.5,1.3-0.5,1.7
		c0,0.3,0.3,0.9,0.4,1.3c0.1,0.3,0.3,1,0.2,1.3c0,0.2-0.4,0.6-0.5,0.7c-0.3,0.2-0.9,0.5-1.2,0.7c-0.3,0.1-0.9,0.2-1.2,0.3
		c-0.4,0.1-1.2,0.1-1.5,0.3c-0.3,0.1-0.9,0.6-1.3,0.7c-0.3,0.1-1,0.3-1.3,0.4c-0.3,0-1-0.1-1.3,0c-0.4,0.1-1.3,0.2-1.5,0.5
		c-0.2,0.2-0.2,1-0.3,1.3c-0.1,0.3-0.3,0.9-0.5,1.3c-0.1,0.2-0.3,0.7-0.5,0.9c-0.2,0.2-0.8,0.5-1.1,0.4c-0.3-0.1-0.5-0.7-0.7-0.9
		c-0.2-0.1-0.6-0.3-0.8-0.3c-0.2,0-0.7,0-0.9,0.1c-0.2,0.1-0.5,0.7-0.7,0.9c-0.1,0.2-0.4,0.6-0.6,0.7c-0.3,0.2-1,0.2-1.3,0.3
		c-0.2,0-0.6,0-0.8,0.1c-0.1,0.1-0.1,0.4-0.2,0.5c-0.2,0.2-0.7,0.6-1,0.6c-0.2,0-0.6-0.2-0.8-0.2c-0.4-0.1-1.1-0.4-1.4-0.5
		c-0.2-0.1-0.6-0.4-0.8-0.4c-0.3-0.1-0.8,0-1.1,0c-0.6,0-2,0-2.5,0.3c-0.2,0.2-0.5,0.7-0.6,1c-0.1,0.2-0.3,0.6-0.5,0.7
		c-0.2,0.2-0.5,0.7-0.8,0.9c-0.2,0.2-0.9,0.3-1.1,0.5c-0.2,0.1-0.5,0.6-0.7,0.8c-0.1,0.1-0.3,0.4-0.3,0.5c-0.1,0.3,0,0.9,0,1.2
		c0,0,0,0.1,0,0.1c-0.6-0.3-2.4-1.2-3-1.5c-0.6-0.3-1.9-1-2.5-1.3c-0.5-0.2-1.4-0.4-1.9-0.6c-0.7-0.3-2.1-0.9-2.8-1.2
		c-0.9-0.3-2.9-0.9-3.9-1.2c-0.8-0.3-2.3-0.8-3.1-1.1c-0.8-0.3-2.3-1-3.1-1.4c-0.9-0.4-2.6-1.1-3.4-1.5c-2-0.9-6-2.8-8-3.8
		c-1.7-0.8-5.1-2.6-6.9-3.2c-1.5-0.5-4.6-1.2-6.1-1.6c-1.4-0.3-4.1-0.8-5.5-1c-3.2-0.6-9.6-1.9-12.7-2.6c-1.4-0.3-4.2-0.8-5.6-1.2
		c-1.7-0.5-4.8-2-6.4-2.6c-0.4-0.2-1.4-0.5-2-0.7c-0.1-0.3-0.3-0.7-0.3-0.9c0-0.4,0-1.1,0.1-1.4c0.1-0.4,0.6-1,0.8-1.3
		c0.2-0.3,0.6-0.9,0.8-1.2c0.2-0.2,0.5-0.4,0.7-0.5c0.3-0.2,0.9-0.6,1.2-0.8c0.4-0.2,1.2-0.5,1.6-0.8c0.2-0.2,0.6-0.7,0.8-1
		c0.2-0.4,0.3-1.4,0.2-1.8c-0.1-0.4-0.6-1-0.8-1.4c-0.1-0.3-0.3-0.9-0.3-1.2c0-0.3,0.1-0.8,0.2-1c0.2-0.4,0.8-1,1.1-1.3
		c0.3-0.4,0.8-1.2,0.9-1.6c0.2-0.7,0.3-2.1,0.4-2.8c0-0.4,0-1.3,0-1.7c0-0.4,0.2-1.2,0.4-1.6c0.1-0.3,0.3-0.8,0.5-1
		c0.2-0.2,0.7-0.5,0.9-0.6c0.2-0.1,0.5-0.4,0.7-0.5c0.2-0.2,0.7-0.5,0.9-0.7c0.3-0.2,1.1-0.4,1.4-0.6c0.3-0.2,0.7-0.8,1-1
		c0.2-0.2,0.5-0.8,0.8-1c0.3-0.2,1-0.4,1.3-0.5c0.4-0.2,1.3-0.4,1.6-0.7c0.3-0.2,0.5-0.9,0.7-1.1c0.2-0.3,0.9-0.6,1.2-0.8
		c0.4-0.2,1.3-0.3,1.8-0.3c0.4,0,1.2,0,1.7,0c0.3,0,0.9-0.1,1.2-0.2c0.5-0.2,1.2-0.9,1.7-1.1c0.3-0.2,0.9-0.4,1.2-0.5
		c0.3-0.1,1,0,1.3,0c0.3,0,0.8-0.1,1.1-0.2c0.3-0.2,0.7-0.7,0.9-0.9c0.3-0.3,0.9-1,1.3-1.2c0.5-0.3,1.7-0.5,2.2-0.5
		c0.5-0.1,1.4-0.1,1.9,0c0.3,0.1,0.9,0.6,1.2,0.9c0.2,0.2,0.5,0.7,0.8,0.8c0.2,0,0.6-0.2,0.8-0.2c0.3-0.1,0.8,0,1-0.1
		c0.2-0.1,0.4-0.5,0.5-0.7c0.2-0.5,0.4-1.5,0.5-2c0.1-0.5,0.6-2.2,0.6-2.2l4.2-27.8c0,0,0.1-1.2,0.1-1.6c0-0.3-0.2-1-0.3-1.3
		c-0.1-0.3-0.3-1-0.4-1.3c-0.2-0.4-0.7-1.1-0.9-1.4c-0.2-0.3-0.5-0.9-0.6-1.2c-0.1-0.3,0-0.9-0.1-1.2c-0.1-0.3-0.4-0.9-0.6-1.1
		c-0.4-0.5-1.6-1.3-2.2-1.8c-0.4-0.4-1.3-1.2-1.6-1.7c-0.2-0.4-0.4-1.2-0.5-1.6c-0.1-0.7-0.2-2.3-0.2-3c0-0.7-0.1-2.1,0.1-2.7
		c0.1-0.4,0.3-1.2,0.6-1.4c0.5-0.4,1.7-0.2,2.3-0.3c0.4-0.1,1.2-0.6,1.7-0.8c0.2-0.1,0.7-0.4,1-0.4c0.3-0.1,1,0,1.4,0
		c0.3,0,1,0.3,1.4,0.2c0.2,0,0.7-0.2,0.8-0.3c0.2-0.2,0.4-0.6,0.4-0.9c0.1-0.4-0.1-1.2-0.2-1.5c-0.1-0.3-0.4-0.8-0.6-1.1
		c-0.2-0.2-0.5-0.5-0.7-0.6c-0.7-0.3-2.2,0.1-2.9,0c-0.4,0-1.2-0.2-1.6-0.4c-0.3-0.2-1-0.6-1.2-0.9c-0.3-0.5-0.4-1.6-0.5-2.2
		c0-0.4-0.1-1.2,0-1.6c0.1-0.4,0.3-1.1,0.6-1.4c0.2-0.3,0.9-0.8,1.2-1c0.5-0.2,1.5-0.6,2-0.6c0.6,0,1.7,0.2,2.2,0.3
		c0.7,0.1,2,0.3,2.6,0.3c1.2,0,3.6-0.2,4.8-0.3c0.6-0.1,1.7-0.2,2.3-0.3c0.5,0,1.8,0.3,2.1-0.1c0.2-0.2,0-0.7,0-1c0-0.1,0-0.4,0-0.5
		c0-0.2,0.2-0.6,0.3-0.8c0.1-0.1,0.2-0.5,0.4-0.5c0.2-0.1,0.6,0,0.7,0.1c0.2,0.2,0.5,0.7,0.7,0.9c0.2,0.2,0.6,0.8,0.8,0.9
		c0.2,0.1,0.7,0.1,1,0c0.3,0,0.8-0.2,1.1-0.3c0.4-0.2,0.9-1,1.2-1.3c0.3-0.3,1-0.8,1.4-1.1c0.2-0.2,0.7-0.6,0.9-0.7
		c0.2-0.1,0.6,0,0.9,0c0.2,0,0.7,0.1,0.9,0.2c0.3,0.1,0.7,0.5,0.9,0.8c0.2,0.3,0.3,1,0.4,1.3c0.2,0.4,0.8,1.2,1.1,1.5
		c0.2,0.2,0.9,0.4,1,0.6c0.1,0.3,0,0.9,0,1.1c0,0.3-0.2,0.8-0.3,1.1C73,45,73,45.9,73,46.3c0.1,0.3,0.2,0.9,0.4,1
		c0.2,0.2,0.7,0.2,0.9,0.2c0.2,0,0.6-0.3,0.8-0.2c0.3,0.1,0.6,0.6,0.8,0.8c0.3,0.2,0.9,0.5,1.2,0.7c0.7,0.5,1.8,1.8,2.5,2.2
		c0.3,0.2,1.1,0.5,1.5,0.7c0.4,0.2,1.1,0.5,1.5,0.6c0.4,0,1.2-0.1,1.6-0.2c0.2-0.1,0.7-0.3,0.9-0.5c0.3-0.2,0.7-0.9,1-1.2
		c0.3-0.3,0.9-0.7,1.3-0.9c0.3-0.1,1-0.4,1.3-0.4c0.3,0,0.8,0.3,1,0.5c0.2,0.2,0.3,0.8,0.3,1c0,0.3-0.3,0.9-0.3,1.2
		c0,0.3,0.1,0.9,0.3,1c0.2,0.1,0.7,0.1,0.9,0c0.2-0.1,0.4-0.6,0.5-0.9c0.1-0.2,0.3-0.7,0.4-0.9c0.1-0.2,0.2-0.5,0.4-0.7
		c0.2-0.2,0.8-0.4,1-0.5c0.2-0.2,0.7-0.6,0.9-0.8c0.3-0.3,0.6-1.2,0.9-1.5c0.3-0.3,1-0.8,1.4-1c0.3-0.2,0.8-0.4,1.1-0.5
		c0.3-0.1,0.9-0.3,1.3-0.3c0.2,0,0.8,0.1,1,0c0.2-0.1,0.5-0.7,0.6-0.7c0.1,0,0.5-0.4,0.6-0.5c0.2-0.2,0.5-0.7,0.7-0.9
		c0.2-0.1,0.8-0.1,1.1-0.1c0.2,0,0.6,0.2,0.8,0.1c0.2,0,0.7-0.2,0.9-0.4c0.4-0.3,1.2-1,1.5-1.5c0.2-0.3,0.5-1.1,0.6-1.5
		c0.1-0.3,0.2-0.9,0.3-1.3c0.1-0.2,0.2-0.8,0.4-0.9c0.3-0.3,1-0.6,1.4-0.8c0.4-0.2,1.3-0.5,1.8-0.7c0.4-0.2,1.3-0.4,1.8-0.6
		c0.4-0.2,1.1-0.5,1.4-0.7c0.2-0.2,0.6-0.4,0.8-0.7c0.2,0.1,0.5,0.1,0.6,0.1c0.2,0,0.6,0,0.8,0c0.2,0,0.7,0.2,0.8,0.3
		c0.2,0.1,0.3,0.6,0.5,0.7c0.2,0.2,0.7,0.3,1,0.4c0.3,0.1,0.9,0.2,1.1,0.3c0.3,0.1,1.1,0.2,1.4,0.5c0.2,0.2,0.4,1,0.5,1.3
		c0,0.3-0.1,1-0.1,1.4c-0.1,0.3-0.4,0.9-0.3,1.2c0,0.3,0.5,0.8,0.6,1.1c0.3,0.6,0.9,1.7,1.2,2.3c0.1,0.3,0.3,1.1,0.4,1.4
		c0.1,0.3,0.2,1,0.3,1.3c0.1,0.2,0.3,0.5,0.4,0.7c0.1,0.3,0.5,0.7,0.5,1c0.1,0.2,0.1,0.7,0,0.9c-0.1,0.3-0.5,0.9-0.6,1.2
		c-0.1,0.3-0.1,0.9-0.1,1.2c-0.1,0.5-0.2,1.6-0.2,2.2c0,0.6-0.1,1.8-0.1,2.3c0.1,0.9,0.3,2.6,0.6,3.4c0.2,0.5,0.7,1.4,1,1.8
		c0.1,0.2,0.5,0.5,0.6,0.7c0.2,0.3,0.3,0.8,0.4,1.1c0.1,0.2,0.5,0.5,0.5,0.8c0.1,0.3-0.1,1-0.2,1.3c-0.1,0.2-0.2,0.7-0.4,0.8
		c-0.2,0.1-0.7-0.3-0.9-0.2c-0.2,0.2,0.1,0.9,0.2,1.2c0.1,0.3,0.5,0.8,0.7,1.1c0.2,0.3,0.5,1,0.8,1.2c0.3,0.2,1,0.4,1.3,0.6
		c0.2,0.1,0.6,0.4,0.9,0.6c0.3,0.2,0.9,0.5,1.1,0.8c0.3,0.3,0.6,0.9,0.9,1.2c0.2,0.2,0.8,0.5,1.1,0.6c0.2,0.1,0.5,0.1,0.7,0.1
		c0.3-0.1,0.8-0.5,0.9-0.7c0.3-0.5,0.5-1.8,0.6-2.5c0-0.5-0.3-1.4-0.2-1.8c0.1-0.4,0.4-1,0.6-1.3c0.2-0.4,0.6-1.3,0.9-1.6
		c0.3-0.3,1.1-0.5,1.4-0.7c0.2-0.1,0.7-0.5,0.9-0.6c0.2-0.1,0.8-0.2,1-0.2c0.4,0,1.3-0.1,1.7,0c0.3,0.1,0.8,0.6,1.1,0.9
		c0.3,0.3,0.7,0.9,1,1.2c0.3,0.2,0.9,0.6,1.2,0.7c0.4,0.1,1.2,0.1,1.5,0.1c0.4,0,1.1-0.2,1.4-0.4c0.2-0.2,0.5-0.7,0.6-1
		c0.2-0.4,0.4-1.3,0.5-1.7c0.1-0.6,0-1.7,0-2.2c0.1-0.4,0.2-1.1,0.4-1.4c0.2-0.4,0.8-1,1.1-1.3c0.2-0.3,0.5-1,0.7-1.2
		c0.5-0.5,1.7-1.1,2.3-1.3c0.7-0.3,2-0.6,2.7-0.7c0.9-0.1,2.7-0.2,3.5-0.2c0.7,0,4.3-0.9,5.3,0c0.9,0.9,0.3,4.6,0.4,5.1
		c0.1,0.3,0.4,0.9,0.6,1.2c0.1,0.2,0.5,0.6,0.6,0.9c0.1,0.2,0.1,0.7,0.2,0.9c0.1,0.3,0.4,0.9,0.6,1.2c0.2,0.3,0.8,1,1.1,1.2
		c0.5,0.5,1.6,1.1,2,1.7c0.2,0.4,0.2,1.4,0.5,1.8c0.2,0.3,0.9,0.6,1.2,0.9c0.4,0.3,1.2,0.9,1.6,1.1c0.4,0.2,1.2,0.6,1.6,0.8
		c0.5,0.3,1.5,0.9,1.9,1.2c0.4,0.3,1,1.2,1.5,1.5c0.4,0.2,1.2,0.2,1.6,0.4c0.3,0.1,1,0.4,1.3,0.5c0.4,0.1,1.2,0.3,1.6,0.5
		c0.6,0.3,1.7,1.3,2.3,1.8c0.3,0.3,0.9,0.9,1.3,1.1c0.3,0.3,1,0.8,1.3,1c0.3,0.3,0.9,1,1.3,1.2c0.2,0.1,0.6,0.1,0.7,0.1
		c0.3,0,0.8-0.2,1.1-0.2c0.2,0,0.6,0.2,0.7,0.3C191.2,81.8,191.5,82.7,191.5,83.1z"/>
	<path fill="#F4EB98" stroke="#72706F" d="M80,171.5c0,0.1,0.1,0.3,0.1,0.5c-0.4,0.3-0.9,0.7-1.2,1c-0.5,0.4-1.4,1.4-1.9,1.8
		c-0.3,0.3-1,0.8-1.3,1c-0.4,0.2-1.2,0.3-1.6,0.5c-0.4,0.3-1,1.1-1.4,1.5c-0.5,0.5-1.7,1.4-2.2,1.9c-0.2,0.2-0.5,0.7-0.8,0.9
		c-0.3,0.1-1-0.1-1.4,0c-0.5,0.1-1.6,0.4-2.1,0.7c-0.5,0.3-1.5,1-1.9,1.5c-0.3,0.3-0.6,1.2-0.9,1.5c-0.5,0.4-1.6,0.9-2.2,1.1
		c-0.4,0.1-1.1,0.4-1.5,0.4c-0.4,0-1.2-0.5-1.6-0.7c-0.3-0.1-1-0.4-1.4-0.5c-0.5-0.1-1.5,0-1.9,0c-0.6,0-1.8,0.1-2.4,0.1
		c-0.7,0-2-0.3-2.7-0.3c-0.3,0-1-0.1-1.4,0c-0.3,0.1-0.9,0.4-1.2,0.4c-0.3,0.1-1.1,0.1-1.4,0.1c-0.5,0.1-1.3,0.5-1.8,0.7
		c-0.4,0.1-1.2,0.4-1.6,0.4c-0.5,0-1.4-0.4-1.8-0.6c-0.2-0.1-0.8-0.2-1-0.4c-0.3-0.3-0.5-1-0.6-1.3c-0.8-3.5,2.2-11.8-0.4-14.3
		c-0.2-0.2-0.8-0.1-1.1,0c-0.4,0.1-1,0.7-1.3,0.9c-0.6,0.5-1.8,1.5-2.3,2c-0.7,0.6-1.9,2-2.7,2.4c-0.5,0.3-1.6,0.6-2.2,0.7
		c-0.5,0.1-1.6,0.2-2.2,0.2c-0.7,0-2.2,0.1-3,0c-0.4,0-1.3,0.1-1.7-0.1c-0.2-0.1-0.5-0.6-0.6-0.8c-0.1-0.3-0.1-1-0.1-1.3
		c-0.1-0.5-0.5-1.4-0.9-1.8c-0.3-0.4-1.1-1.1-1.6-1.3c-0.6-0.3-2-0.4-2.6-0.4c-0.6-0.1-1.8,0-2.4,0c-0.5,0-1.6-0.1-2.1-0.1
		c-0.2,0-0.7,0.1-0.8,0c-0.1-0.1-0.2-0.5-0.2-0.7c0-0.2,0.3-0.6,0.5-0.7c0.1-0.2,0.5-0.6,0.6-0.8c0.1-0.3,0.3-0.8,0.4-1.1
		c0-0.3,0.1-0.9,0-1.1c-0.1-0.4-0.5-1.1-0.7-1.4c-0.1-0.3-0.3-0.9-0.5-1.1c-0.2-0.2-0.8-0.4-1.1-0.5c-0.2-0.1-0.7-0.5-0.9-0.7
		c-0.2-0.2-0.7-0.6-0.9-0.9c-0.1-0.3,0.1-0.9,0-1.1c-0.2-0.3-0.8-0.6-1.1-0.8c-0.3-0.2-0.9-0.7-1.2-1c-0.2-0.3-0.5-1-0.6-1.3
		c-0.1-0.3-0.4-0.8-0.5-1.1c-0.2-0.3-0.6-0.8-0.8-1.1c-0.2-0.3-0.5-0.8-0.6-1.1c-0.1-0.3,0-1.1-0.2-1.4c-0.2-0.2-0.7-0.5-1-0.6
		c-0.3-0.2-0.9-0.4-1.1-0.6c-0.2-0.3-0.3-1.2-0.3-1.6c0-0.3,0.1-1,0.3-1.3c0.2-0.3,0.9-0.4,1.1-0.6c0.2-0.2,0.5-0.5,0.6-0.7
		c0.2-0.3,0.4-1,0.4-1.4c0-0.1,0-0.2-0.1-0.4c0.6,0.2,1.6,0.5,2,0.7c1.6,0.6,4.7,2.1,6.4,2.6c1.4,0.4,4.2,0.9,5.6,1.2
		c3.2,0.7,9.5,1.9,12.7,2.6c1.4,0.3,4.1,0.7,5.5,1c1.5,0.3,4.6,1.1,6.1,1.6c1.8,0.6,5.2,2.4,6.9,3.2c2,0.9,6,2.8,8,3.8
		c0.9,0.4,2.6,1.2,3.4,1.5c0.8,0.3,2.3,1.1,3.1,1.4c0.8,0.3,2.3,0.9,3.1,1.1c1,0.3,2.9,0.9,3.9,1.2c0.7,0.3,2.1,0.9,2.8,1.2
		c0.5,0.2,1.4,0.4,1.9,0.6c0.6,0.3,1.9,0.9,2.5,1.3c0.7,0.3,2.4,1.2,3,1.5C79.8,171.1,79.9,171.4,80,171.5z"/>
	<path fill="#F4EB98" stroke="#72706F" d="M259.2,166.7c0-0.2,0.1-0.4,0.1-0.6c0.1-0.3,0.5-1,0.7-1.3c0.2-0.4,0.7-1,0.9-1.4
		c0.2-0.3,0.4-1,0.5-1.3c0.2-0.5,0.6-1.4,0.8-1.8c0.4-0.7,1.4-2.1,1.9-2.7c0.3-0.3,0.9-0.9,1.3-1.2c0.3-0.2,1.1-0.4,1.3-0.7
		c0.2-0.2,0.6-0.8,0.7-1.1c0.1-0.3,0.2-1,0.4-1.3c0.1-0.3,0.3-1,0.5-1.3c0.2-0.3,0.9-0.7,1.2-1c0.3-0.4,0.8-1.2,0.9-1.6
		c0.1-0.5-0.3-1.4-0.1-1.8c0.1-0.4,0.8-1,0.9-1.4c0.1-0.6-0.2-1.8-0.5-2.4c-0.2-0.3-0.8-0.8-1-1.1c-0.2-0.3-0.4-0.9-0.4-1.2
		c0-0.3,0.3-0.7,0.4-0.9c0.1-0.2,0.4-0.7,0.5-0.9c0.1-0.3,0.3-0.9,0.4-1.2c0.1-0.4,0.1-1.2,0.1-1.6c0.1-0.5,0.2-1.4,0.4-1.8
		c0.1-0.2,0.4-0.5,0.5-0.7c0.1-0.2,0.3-0.8,0.4-1c0.3-0.3,1.1-0.6,1.5-0.8c0.3-0.1,1-0.2,1.3-0.3c0.3-0.1,1-0.4,1.3-0.7
		c0.2-0.1,0.6-0.5,0.7-0.7c0.1-0.3,0.1-1,0.3-1.2c0.1-0.3,0.6-0.6,0.9-0.8c0.2-0.2,0.8-0.4,1.1-0.6c0.2-0.2,0.5-0.5,0.6-0.7
		c0.1-0.3,0-1,0.1-1.3c0.1-0.2,0.6-0.5,0.7-0.7c0.1-0.2,0.2-0.7,0.3-0.9c0.1-0.3,0.3-0.8,0.4-1.1c0-0.3,0-0.9,0-1.2
		c0-0.2-0.1-0.5,0-0.7c0.1-0.3,0.9-0.6,1-0.9c0.1-0.2,0.1-0.8,0-1c-0.1-0.3-0.4-0.7-0.6-0.9c-0.2-0.2-0.7-0.6-1-0.7
		c-0.4-0.2-1.3-0.3-1.7-0.4c-0.3-0.1-0.9-0.3-1.2-0.4c-0.1,0-0.1-0.1-0.2-0.2c0.2-0.2,0.4-0.4,0.5-0.5c0.2-0.2,0.7-0.6,1-0.7
		c0.4-0.2,1.3-0.2,1.7-0.3c0.3,0,1-0.1,1.3,0c0.3,0.1,0.8,0.5,1.1,0.6c0.4,0.1,1.1-0.3,1.5-0.2c0.2,0,0.6,0.2,0.8,0.3
		c0.2,0.1,0.5,0.4,0.6,0.6c0.2,0.2,0.3,0.7,0.5,0.9c0.3,0.3,1,0.6,1.3,0.7c0.2,0,0.6-0.1,0.7,0c0.3,0.1,0.7,0.6,0.9,0.9
		c0.2,0.3,0.7,0.9,0.8,1.3c0.1,0.4-0.1,1.1,0,1.5c0.1,0.4,0.6,1,0.6,1.4c0.1,0.2,0,0.8,0,1c-0.1,0.4-0.4,1.1-0.4,1.5
		c0,0.2,0.2,0.5,0.3,0.6c0.1,0.4,0.4,1.1,0.4,1.4c0,0.3-0.4,0.8-0.4,1c-0.2,0.4-0.4,1.4-0.5,1.8c-0.1,0.3-0.1,1-0.1,1.4
		c0,0.4-0.1,1.1-0.2,1.4c0,0.4,0,1.1-0.1,1.4c-0.1,0.3-0.7,0.8-0.9,1c-0.2,0.2-0.8,0.2-1,0.4c-0.2,0.2-0.4,0.7-0.3,1
		c0,0.3,0.4,0.9,0.6,1.1c0.2,0.1,0.7,0.1,0.9,0.3c0.2,0.1,0.5,0.6,0.6,0.8c0.1,0.2,0.1,0.8,0.2,1c0.1,0.3,0.4,0.9,0.6,1.2
		c0.3,0.4,1.2,0.9,1.5,1.3c0.3,0.3,0.8,1.1,1,1.5c0.2,0.3,0.6,1,0.9,1.3c0.3,0.2,1,0.6,1.4,0.6c0.3,0.1,0.9,0.1,1.2,0
		c0.3-0.1,0.8-0.6,1.1-0.7c0.4-0.1,1.4-0.3,1.9-0.1c0.2,0.1,0.5,0.4,0.7,0.6c0.2,0.2,0.4,0.8,0.4,1.1c0.1,0.3,0.1,0.9,0.1,1.2
		c0,0.4,0.1,1.3-0.1,1.6c-0.2,0.3-0.8,0.6-1.1,0.8c-0.3,0.2-1,0.3-1.3,0.4c-0.4,0.2-1.2,0.4-1.5,0.7c-0.2,0.2-0.4,0.9-0.5,1.2
		c-0.1,0.3,0,1.1-0.1,1.4c-0.1,0.3-0.3,0.9-0.5,1.1c-0.2,0.3-0.7,0.6-0.9,0.9c-0.1,0.3-0.1,0.8,0,1.1c0.1,0.3,0.4,0.7,0.6,0.9
		c0.2,0.1,0.7,0.1,0.9,0.2c0.2,0.1,0.3,0.6,0.3,0.8c0.1,0.3,0.1,0.9,0.1,1.3c0,0.2,0.1,0.6,0.1,0.8c0.1,0.3,0.5,0.9,0.8,1.1
		c0.2,0.2,0.8,0.2,1,0.3c0.2,0.2,0.5,0.6,0.5,0.9c0,0.2-0.3,0.7-0.4,0.9c-0.1,0.2-0.3,0.5-0.3,0.7c0,0.3,0.2,0.9,0.3,1.1
		c0.1,0.3,0.6,0.6,0.8,0.9c0.2,0.3,0.6,1,0.8,1.3c0.1,0.3,0.1,0.9,0.3,1.1c0.3,0.3,1.1,0.4,1.5,0.5c0.3,0.1,0.9,0.3,1.1,0.5
		c0.3,0.2,0.6,0.9,0.9,1c0.2,0.2,0.8,0.3,1.1,0.3c0.1,0,0.3,0.1,0.5,0.1c0.2,0,0.4,0.1,0.5,0.1c0.2,0,0.6,0,1,0.1
		c-0.1,0.2-0.2,0.3-0.2,0.4c-0.1,0.2-0.1,0.8-0.2,1c-0.1,0.2-0.4,0.5-0.6,0.6c-0.2,0.1-0.5,0-0.7,0c-0.4,0.1-1,0.6-1.3,0.9
		c-0.3,0.2-0.9,0.5-1.1,0.7c-0.2,0.1-0.5,0.3-0.6,0.5c-0.2,0.2-0.3,0.6-0.4,0.9c-0.1,0.2-0.5,0.6-0.6,0.8c-0.1,0.3,0.1,1.1,0,1.4
		c-0.1,0.3-0.4,0.8-0.6,1.1c-0.2,0.3-0.9,0.6-1.1,0.9c-0.2,0.3-0.4,1-0.5,1.4c0,0.3-0.1,0.9,0,1.1c0.1,0.2,0.5,0.3,0.7,0.5
		c0.3,0.2,0.7,0.8,0.9,1c0.3,0.2,0.9,0.6,1.2,0.7c0.2,0.1,0.7-0.1,0.9,0c0.2,0.1,0.4,0.6,0.4,0.9c0,0.2,0,0.6-0.1,0.7
		c-0.1,0.2-0.5,0.4-0.6,0.6c-0.1,0.1-0.2,0.4-0.2,0.5c0,0.2,0,0.5,0,0.6c0.1,0.1,0.5,0.2,0.6,0.3c0.1,0.1,0.2,0.5,0.2,0.7
		c0,0.2-0.1,0.5-0.3,0.7c-0.2,0.1-0.7,0.1-0.9,0.2c-0.3,0.1-0.8,0.6-0.9,0.9c-0.2,0.3-0.2,1.1-0.2,1.4c0,0.5,0.1,1.4,0.3,1.8
		c0.2,0.4,0.8,1,0.9,1.3c0.1,0.3,0.4,1,0.4,1.3c0,0.3-0.3,0.9-0.4,1.4c-0.4,0-1,0.1-1.3,0.2c-0.4,0.1-1,0.7-1.4,0.8
		c-0.3,0.1-0.8-0.1-1.1,0c-0.4,0.1-1.1,0.6-1.5,0.9c-0.3,0.2-0.8,0.6-1.1,0.8c-0.3,0.2-0.8,0.4-1.1,0.5c-0.4,0.1-1.1,0.2-1.5,0.3
		c-0.3,0-1-0.1-1.3,0c-0.2,0.1-0.5,0.4-0.7,0.5c-0.3,0.2-0.9,0.5-1.2,0.6c-0.2,0.1-0.7,0-0.9,0c-0.3-0.1-1-0.4-1.3-0.6
		c-0.2-0.1-0.5-0.4-0.7-0.5c-0.2,0-0.5,0.1-0.7,0.2c-0.1,0.1-0.3,0.5-0.3,0.7c-0.1,0.2,0.1,0.7,0,0.9c-0.1,0.2-0.6,0.3-0.8,0.3
		c-0.4,0-1.3-0.3-1.6-0.5c-0.3-0.2-0.7-0.8-1-1c-0.3-0.2-1-0.7-1.4-0.8c-0.3-0.1-1,0-1.3,0c-0.4,0.1-1.1,0.4-1.5,0.4
		c-0.3,0-1,0-1.3,0c-0.2,0-0.6,0-0.8,0.1c-0.2,0.1-0.5,0.5-0.7,0.8c-0.1,0.2-0.2,0.7-0.4,0.7c-0.2,0.1-0.7-0.3-0.8-0.5
		c-0.3-0.4-0.1-1.4-0.2-1.8c-0.1-0.4-0.3-1.2-0.4-1.6c-0.2-0.4-0.6-1-0.9-1.3c-0.2-0.2-0.7-0.6-1-0.7c-0.3-0.1-0.9-0.1-1.1,0
		c-0.3,0.2-0.7,0.8-0.9,1.1c-0.3,0.3-0.8,1-1,1.4c-0.2,0.3-0.5,0.9-0.6,1.1c-0.1,0.2-0.3,0.7-0.5,0.8c-0.2,0.2-0.7,0.3-1,0.3
		c-0.2,0-0.7-0.1-1-0.2c-0.2-0.1-0.5-0.5-0.7-0.6c-0.3-0.2-0.9-0.3-1.2-0.4c-0.4-0.1-1.1-0.4-1.4-0.5c-0.3-0.1-0.8-0.3-1.1-0.4
		c-0.3-0.1-1-0.3-1.3-0.5c-0.2-0.2-0.6-0.6-0.8-0.9c-0.2-0.2-0.5-0.6-0.5-0.9c-0.1-0.3,0-1,0-1.4c0-0.3,0.2-0.9,0.3-1.1
		c0.1-0.3,0.3-0.7,0.4-1c0-0.2,0.1-0.6,0-0.7c-0.1-0.1-0.3-0.2-0.4-0.2c-0.2,0-0.6,0.1-0.8,0.1c-0.3,0.1-0.7,0.5-0.9,0.8
		c-0.2,0.3-0.4,1.1-0.5,1.5c-0.1,0.3-0.1,0.9-0.1,1.3c0,0.1,0,0.2-0.1,0.4c-0.2,0.1-0.3,0.1-0.4,0.1c-0.3,0-0.8-0.2-1-0.4
		c-0.2-0.2-0.3-0.7-0.4-1c-0.1-0.4,0.1-1.3,0.1-1.7c0-0.4,0.1-1.2,0.1-1.6c0-0.3-0.2-1-0.3-1.3c-0.1-0.2-0.3-0.5-0.4-0.6
		c-0.1-0.3,0-0.9,0-1.2c0-0.6,0.1-1.8,0-2.3c0-0.4-0.3-1.1-0.3-1.4c0-0.3,0.3-0.9,0.4-1.3c0-0.3,0-1-0.1-1.3c0-0.3-0.2-1-0.3-1.3
		c0-0.3,0-0.9,0-1.2c0.1-0.6,0.6-1.7,0.7-2.3c0.1-0.8,0-2.3,0.1-3.1c0.1-0.5,0.5-1.4,0.6-1.8c0.2-0.5,0.4-1.4,0.6-1.9
		c0.1-0.3,0.5-0.7,0.6-1c0.2-0.4,0.7-1.3,0.9-1.7c0.2-0.5,0.3-1.4,0.5-1.9c0.1-0.3,0.5-0.8,0.6-1.1c0.1-0.2,0.3-0.6,0.4-0.8
		C259,167.3,259.1,167,259.2,166.7z"/>
	<path fill="#F4EB98" stroke="#72706F" d="M114.4,34.7c-0.1,0-0.1-0.1-0.2-0.1c-0.1-0.1-0.1-0.4-0.2-0.5c-0.1-0.2-0.2-0.5-0.3-0.6
		c-0.1-0.2-0.4-0.6-0.7-0.7c-0.4-0.2-1.2-0.3-1.6-0.3c-0.4,0-1.2,0.1-1.7,0.1c-0.4,0-1.2,0-1.5,0c-0.3,0-0.9-0.2-1.1-0.3
		c-0.2-0.1-0.7-0.5-0.8-0.8c-0.1-0.2,0-0.8,0-1c0-0.3,0.3-1,0.3-1.3c0-0.3-0.2-0.8-0.4-1.1c-0.1-0.3-0.4-0.8-0.6-1
		c-0.2-0.3-0.8-0.8-1-1.2c-0.2-0.5-0.4-1.5-0.5-2c0-0.4,0-1.1,0-1.5c0-0.3,0.1-1,0.1-1.3c0-0.3-0.2-0.8-0.4-1
		c-0.1-0.2-0.5-0.6-0.6-0.8c-0.2-0.2-0.6-0.7-0.9-0.9c-0.2-0.2-0.8-0.5-1-0.6c-0.2-0.1-0.7-0.5-0.9-0.6c-0.3-0.2-0.9-0.7-1.2-0.9
		c-0.3-0.4-0.7-1.2-0.8-1.7c-0.1-0.3-0.2-0.8-0.1-1.1c0.1-0.2,0.5-0.3,0.6-0.4c0.2,0,0.6,0.2,0.8,0.4c0.2,0.2,0.5,0.8,0.8,0.9
		c0.2,0.1,0.7,0,0.9,0c0.2,0,0.7-0.3,0.9-0.4c0.3-0.1,1-0.1,1.3,0c0.4,0.1,1.1,0.3,1.3,0.5c0.2,0.2,0.5,0.7,0.7,1
		c0.2,0.3,0.5,0.8,0.7,1c0.1,0.1,0.5,0.3,0.7,0.3c0.3,0,1-0.2,1.4-0.3c0.2-0.1,0.6-0.5,0.9-0.5c0.4,0,1.1,0.4,1.5,0.5
		c0.3,0.1,1.1,0.1,1.4,0c0.2-0.1,0.5-0.5,0.7-0.6c0.2-0.1,0.7-0.1,0.9,0c0.2,0.1,0.5,0.4,0.6,0.5c0.2,0.1,0.6,0.1,0.8,0.3
		c0.2,0.2,0.3,0.8,0.4,1c0.2,0.2,0.6,0.6,0.8,0.8c0.4,0.3,1,1,1.5,1.2c0.2,0.1,0.8,0.1,1.1,0.1c0.2,0,0.6-0.3,0.8-0.4
		c0.2-0.1,0.5-0.5,0.6-0.7c0.1-0.2,0.1-0.6,0.1-0.8c0-0.4-0.5-1.1-0.4-1.4c0-0.3,0.3-0.9,0.4-1.2c0.2-0.3,1-0.7,1.3-0.9
		c0.4-0.2,1.1-0.5,1.5-0.6c0.4-0.1,1.3-0.2,1.8-0.1c0.3,0,0.9,0.4,1.3,0.4c0.2,0,0.7,0,0.9,0c0.3-0.1,0.8-0.4,1-0.5
		c0.3-0.1,1,0,1.4,0c0.3,0,0.9-0.2,1.2-0.3c0.2-0.1,0.5-0.5,0.8-0.6c0.4-0.2,1.2-0.2,1.5-0.4c0.3-0.2,0.6-0.8,0.9-1
		c0.3-0.3,1-0.7,1.3-0.9c0.4-0.3,1-1,1.4-1.2c0.3-0.2,1-0.3,1.3-0.3c0.4-0.1,1.3,0,1.7-0.1c0.2-0.1,0.6-0.5,0.8-0.7
		c0.2-0.2,0.5-0.8,0.7-1c0.3-0.2,0.9-0.5,1.2-0.7c0.3-0.2,0.8-0.7,0.9-1c0.2-0.3,0.5-0.9,0.5-1.3c0-0.4-0.3-1.2-0.2-1.6
		c0-0.3,0.1-0.8,0.3-1c0.2-0.2,0.8-0.1,1.1-0.1c0.3,0,0.9-0.1,1.2-0.1c0.3-0.1,1-0.5,1.3-0.5c0.4,0,1.2,0.4,1.6,0.6
		c0.4,0.2,1.1,0.7,1.3,1.1c0.3,0.5,0.3,1.6,0.3,2.1c0,0.5,0.1,1.5-0.1,1.9c-0.1,0.3-0.7,0.6-0.8,0.8c-0.1,0.2-0.2,0.8-0.1,1.1
		c0.1,0.3,0.8,0.5,1.1,0.6c0.3,0.1,1.1,0.2,1.4,0.3c0.3,0.1,0.9,0.3,1.1,0.5c0.3,0.3,0.5,1.2,0.7,1.6c0.2,0.4,0.5,1.3,0.6,1.7
		c0.2,0.5,0.6,1.4,0.7,1.9c0.1,0.3,0.1,0.9,0,1.2c-0.1,0.3-0.6,0.9-0.9,1.1c-0.3,0.3-1,0.7-1.2,1c-0.2,0.3-0.5,0.9-0.6,1.2
		c-0.1,0.4,0.1,1.3,0.1,1.8c0,0.4,0.1,1.1,0,1.5c-0.1,0.4-0.5,1.2-0.7,1.6c-0.2,0.4-0.4,1.2-0.6,1.6c-0.1,0.4-0.4,1.2-0.4,1.6
		c0,0.4,0.1,1.2,0.2,1.5c0.1,0.2,0.3,0.7,0.4,0.9c0.1,0.2,0.4,0.7,0.5,0.9c0.1,0.4,0,1.3,0.2,1.6c0.1,0.2,0.7,0.3,0.8,0.5
		c0.3,0.3,0.6,1.2,0.6,1.6c0,0.3-0.2,1-0.1,1.3c0,0.4,0.2,1.3,0.4,1.7c0.3,0.5,1.3,1.1,1.6,1.6c0.4,0.4,1,1.5,1.4,1.9
		c0.7,0.6,2.2,1.5,3,1.9c0.3,0.2,1,0.4,1.4,0.5c0.3,0,0.8-0.1,1.2-0.1l0.5,12c-1-0.9-4.5,0-5.3,0c-0.9,0-2.7,0.1-3.5,0.2
		c-0.7,0.1-2.1,0.4-2.7,0.7c-0.6,0.2-1.8,0.8-2.3,1.3c-0.2,0.2-0.5,0.9-0.7,1.2c-0.2,0.3-0.9,0.9-1.1,1.3c-0.2,0.3-0.3,1-0.4,1.4
		c-0.1,0.6,0,1.7,0,2.2c-0.1,0.4-0.3,1.3-0.5,1.7c-0.1,0.3-0.3,0.8-0.6,1c-0.3,0.2-1.1,0.4-1.4,0.4c-0.4,0-1.2,0-1.5-0.1
		c-0.3-0.1-0.9-0.5-1.2-0.7c-0.3-0.2-0.7-0.9-1-1.2c-0.2-0.2-0.7-0.8-1.1-0.9c-0.4-0.1-1.2,0-1.7,0c-0.3,0-0.8,0.1-1,0.2
		c-0.3,0.1-0.7,0.5-0.9,0.6c-0.3,0.2-1.1,0.4-1.4,0.7c-0.3,0.3-0.7,1.2-0.9,1.6c-0.2,0.3-0.5,1-0.6,1.3c-0.1,0.5,0.2,1.4,0.2,1.8
		c0,0.6-0.2,1.9-0.6,2.5c-0.2,0.2-0.7,0.6-0.9,0.7c-0.2,0-0.5,0-0.7-0.1c-0.3-0.1-0.9-0.4-1.1-0.6c-0.3-0.2-0.6-0.9-0.9-1.2
		c-0.2-0.2-0.8-0.6-1.1-0.8c-0.2-0.1-0.6-0.5-0.9-0.6c-0.3-0.2-1.1-0.4-1.3-0.6c-0.3-0.2-0.6-0.9-0.8-1.2c-0.2-0.3-0.6-0.8-0.7-1.1
		c-0.1-0.3-0.4-1-0.2-1.2c0.2-0.2,0.7,0.3,0.9,0.2c0.2-0.1,0.3-0.6,0.4-0.8c0.1-0.3,0.3-1,0.2-1.3c-0.1-0.2-0.4-0.6-0.5-0.8
		c-0.1-0.3-0.3-0.8-0.4-1.1c-0.1-0.2-0.5-0.5-0.6-0.7c-0.3-0.4-0.8-1.3-1-1.8c-0.3-0.8-0.5-2.5-0.6-3.4c0-0.6,0.1-1.8,0.1-2.3
		c0-0.5,0.1-1.6,0.2-2.2c0-0.3,0-0.9,0.1-1.2c0.1-0.3,0.6-0.9,0.6-1.2c0.1-0.2,0-0.7,0-0.9c-0.1-0.3-0.4-0.8-0.5-1
		c-0.1-0.2-0.3-0.5-0.4-0.7c-0.1-0.3-0.2-0.9-0.3-1.3c-0.1-0.4-0.3-1.1-0.4-1.4c-0.2-0.6-0.9-1.7-1.2-2.3c-0.2-0.3-0.6-0.8-0.6-1.1
		c0-0.3,0.3-0.9,0.3-1.2c0.1-0.3,0.2-1,0.1-1.4c0-0.3-0.2-1.1-0.5-1.3c-0.3-0.3-1-0.4-1.4-0.5c-0.3-0.1-0.9-0.2-1.1-0.3
		c-0.2-0.1-0.8-0.3-1-0.4c-0.2-0.1-0.3-0.6-0.5-0.7c-0.2-0.1-0.6-0.3-0.8-0.3c-0.2,0-0.6,0-0.8,0C114.9,34.8,114.6,34.7,114.4,34.7z
		"/>
	<path fill="#F4EB98" stroke="#72706F" d="M79.8,170.9c0-0.1,0-0.1,0-0.1c0-0.3-0.1-0.9,0-1.2c0-0.1,0.2-0.4,0.3-0.5
		c0.2-0.2,0.5-0.6,0.7-0.8c0.3-0.2,0.9-0.3,1.1-0.5c0.2-0.2,0.6-0.7,0.8-0.9c0.1-0.2,0.4-0.5,0.5-0.7c0.2-0.2,0.4-0.8,0.6-1
		c0.5-0.3,1.9-0.3,2.5-0.3c0.3,0,0.8-0.1,1.1,0c0.2,0.1,0.6,0.3,0.8,0.4c0.3,0.1,1.1,0.4,1.4,0.5c0.2,0.1,0.6,0.3,0.8,0.2
		c0.3,0,0.8-0.4,1-0.6c0.1-0.1,0.1-0.4,0.2-0.5c0.2-0.1,0.6-0.1,0.8-0.1c0.3-0.1,1.1-0.1,1.3-0.3c0.2-0.1,0.4-0.5,0.6-0.7
		c0.2-0.2,0.5-0.7,0.7-0.9c0.2-0.1,0.7-0.1,0.9-0.1c0.2,0,0.6,0.2,0.8,0.3c0.2,0.2,0.5,0.8,0.7,0.9c0.3,0.1,0.9-0.2,1.1-0.4
		c0.2-0.2,0.4-0.7,0.5-0.9c0.1-0.3,0.4-0.9,0.5-1.3c0.1-0.3,0.1-1.1,0.3-1.3c0.3-0.3,1.1-0.5,1.5-0.5c0.3-0.1,1,0,1.3,0
		c0.3,0,1-0.2,1.3-0.4c0.3-0.1,0.9-0.6,1.3-0.7c0.4-0.1,1.2-0.2,1.5-0.3c0.3-0.1,0.9-0.2,1.2-0.3c0.3-0.1,1-0.4,1.2-0.7
		c0.2-0.1,0.5-0.5,0.5-0.7c0.1-0.3-0.2-1-0.2-1.3c-0.1-0.3-0.4-0.9-0.4-1.3c0-0.4,0.3-1.3,0.5-1.7c0.1-0.1,0.4-0.3,0.5-0.4
		c0.2-0.1,0.6-0.3,0.8-0.4c0.2-0.2,0.6-0.6,0.9-0.9c0.2-0.2,0.6-0.7,0.9-1c0.2-0.3,0.7-0.9,0.9-1.1c0.2-0.2,0.6-0.5,0.8-0.6
		c0.4-0.1,1.1,0,1.5,0c0.5,0,1.4-0.2,1.8-0.2c0.5,0,1.3,0.1,1.8,0.2c0.3,0,0.8,0.1,1,0.1c0.4,0.1,1.3,0.4,1.7,0.6
		c0.3,0.2,0.9,0.8,1.1,1.1c0.2,0.2,0.6,0.7,0.9,0.9c0.2,0.2,0.7,0.5,0.9,0.7c0.2,0.1,0.8,0.2,1,0.4c0.2,0.2,0.3,0.8,0.4,1.1
		c0.1,0.1,0.1,0.5,0.2,0.6c0.2,0.2,1,0.2,1.3,0.4c0.2,0.2,0.6,0.7,0.8,0.9c0.3,0.4,0.8,1.1,1.2,1.4c0.3,0.2,0.9,0.5,1.2,0.5
		c0.3,0,0.8-0.5,1.1-0.7c0.2-0.2,0.4-0.7,0.6-0.9c0.3-0.1,1.1,0,1.4,0.1c0.4,0.1,0.5,0.3,1.6,0.5l0.4,16.9l0.6,1.2l0.3,1.8l-0.2,1.8
		l-0.3,1.5l0.5,1l1.3,0.7h1.5l1.8-0.2l3.4,0.3h2.3l1.7,0.4l0.7-0.2h1.1l2.3,1.1l0.6,1.5l-0.4,1.5l-0.7,1.3l-0.6,2.3l0.4,1.3l0.6,1
		l0.6,0.4l0.6,1.5l0.2,1.2l0.2,2.2l-0.4,1.3l-0.5,1.2l-0.5,1.1v1.1l-0.8,0.5l-0.5,0.9l-0.8,0.6l-0.7,1.1l-0.9,0.6v1.6l-0.5,1.1
		l-0.9,0.7l-0.7,0.4l-1.4,0.9l-0.8,1.3c-0.2-0.1-0.4-0.2-0.5-0.3c-0.2-0.1-0.3-0.5-0.5-0.6c-0.2-0.2-0.8-0.5-1.1-0.6
		c-0.3-0.1-1-0.2-1.3-0.3c-0.2,0-0.8-0.1-1,0c-0.2,0-0.4,0.3-0.5,0.4c-0.4,0.1-1.4,0.1-1.9,0.1c-0.3,0-1,0.2-1.4,0.2
		c-0.3,0-0.9-0.3-1.2-0.3c-0.5-0.1-1.4,0.1-1.9,0c-0.3-0.1-0.9-0.3-1.1-0.5c-0.3-0.2-0.5-0.9-0.7-1.2c-0.3-0.4-1.1-1.2-1.5-1.6
		c-0.2-0.2-0.5-0.8-0.7-1c-0.2-0.1-0.6-0.2-0.8-0.2c-0.3,0-0.9,0.2-1.2,0.2c-0.3,0-0.8,0.1-1.1,0c-0.2-0.1-0.5-0.3-0.7-0.4
		c-0.2-0.1-0.7-0.2-1-0.4c-0.2-0.1-0.4-0.6-0.6-0.7c-0.3-0.1-1,0.1-1.3,0c-0.4-0.1-1.1-0.7-1.5-0.9c-0.2-0.1-0.6-0.5-0.8-0.6
		c-0.2-0.2-0.6-0.4-0.8-0.6c-0.2-0.2-0.3-0.7-0.5-0.9c-0.2-0.2-0.8-0.4-1.1-0.4c-0.3,0-0.9,0.4-1.2,0.4c-0.5,0-1.4-0.4-1.8-0.6
		c-0.3-0.1-0.7-0.6-1-0.7c-0.3-0.1-1-0.3-1.3-0.3c-0.5,0-1.4,0-1.9,0c-0.6,0.1-1.8,0.5-2.4,0.5c-0.6,0-1.9-0.3-2.5-0.5
		c-0.4-0.2-1.2-0.5-1.5-0.9c-0.2-0.2-0.4-0.7-0.5-1c-0.2-0.3-0.5-1.1-0.8-1.4c-0.2-0.2-0.8-0.4-1.1-0.5c-0.2-0.1-0.8,0-1-0.1
		c-0.2-0.1-0.4-0.8-0.6-1c-0.2-0.2-0.9-0.3-1.2-0.4c-0.3-0.2-0.9-0.5-1.2-0.8c-0.2-0.2-0.3-0.9-0.5-1.1c-0.1-0.2-0.5-0.5-0.7-0.6
		c-0.1-0.1-0.5-0.1-0.6-0.2c-0.1-0.1-0.2-0.3-0.2-0.4c-0.1-0.2,0-0.7-0.1-0.9c-0.1-0.3-0.4-0.8-0.6-1.1c-0.2-0.2-0.7-0.6-0.8-0.9
		c-0.2-0.5-0.2-1.5-0.3-2c0-0.4,0-1.3,0-1.8c0-0.7,0.4-2,0.3-2.6c0-0.4-0.3-1-0.5-1.4c-0.1-0.4-0.5-1-0.6-1.4
		c-0.1-0.3-0.1-1-0.1-1.3c0-0.3,0.2-0.9,0.3-1.2c0.1-0.4,0.6-1.1,0.7-1.5c0.1-0.4,0.1-1.4,0.1-1.8c0-0.6-0.2-1.9-0.4-2.5
		c-0.2-0.4-0.5-1.3-0.9-1.5c-0.2-0.1-0.9-0.2-1.1-0.1c-0.2,0.1-0.4,0.7-0.6,0.9c-0.3,0.2-1,0.4-1.3,0.4c-0.4,0.1-1.2,0.1-1.7,0.2
		c-0.5,0-1.6,0.1-2.1,0.2c-0.5,0.1-1.4,0.3-1.9,0.4c-0.7,0.1-2.1,0.4-2.8,0.6c-0.6,0.2-1.8,0.6-2.4,0.9c-0.2,0.1-0.3,0.2-0.5,0.4
		c0-0.2-0.1-0.4-0.1-0.5C79.9,171.4,79.8,171.1,79.8,170.9z"/>
	<g>
		<path fill="#F4EB98" stroke="#72706F" d="M209.6,83.7c-0.2,0-0.4-0.2-0.6-0.3c-0.2,0-0.7,0.2-1,0.1c-0.2-0.1-0.5-0.4-0.6-0.6
			c-0.1-0.2-0.2-0.6-0.1-0.8c0.1-0.2,0.4-0.3,0.6-0.4c0.2-0.1,0.8-0.1,1,0c0.2,0.1,0.3,0.5,0.4,0.7c0.1,0.1,0,0.5,0.1,0.6
			c0.1,0.1,0.4,0.1,0.4,0.2C210,83.4,209.8,83.6,209.6,83.7z"/>
		<path fill="#F4EB98" stroke="#72706F" d="M211.1,81.8c0-0.1-0.2-0.4-0.3-0.5c-0.2-0.1-0.6,0.1-0.7,0.2c-0.1,0.2-0.1,0.6,0,0.8
			c0.1,0.1,0.3,0.2,0.4,0.3c0.1,0.1,0,0.6,0.1,0.7c0.1,0.1,0.4-0.1,0.5-0.2c0.1-0.1,0.2-0.4,0.2-0.5c0-0.1-0.3-0.2-0.4-0.3
			C210.9,82.2,211.1,81.9,211.1,81.8z"/>
		<path fill="#F4EB98" stroke="#72706F" d="M242.9,73.2c0.4-0.1,1.2-0.2,1.5-0.4c0.4-0.2,1-0.7,1.3-1c0.4-0.3,1.2-0.9,1.5-1.3
			c0.3-0.4,1-1.1,1.2-1.6c0.2-0.5,0-1.6,0.2-2.1c0.1-0.3,0.7-0.8,0.8-1.2c0.1-0.2,0-0.8-0.2-1c-0.1-0.2-0.5-0.5-0.7-0.5
			c-0.3-0.1-1.1,0.2-1.4,0.4c-0.2,0.1-0.5,0.6-0.7,0.8c-0.2,0.1-0.7,0.2-0.9,0.4c-0.2,0.3-0.3,1-0.4,1.3c-0.1,0.3-0.3,1-0.4,1.3
			c-0.1,0.3-0.3,1-0.4,1.3c-0.2,0.3-0.7,0.7-0.9,0.9c-0.2,0.2-0.8,0.4-1,0.6c-0.1,0.2-0.3,0.5-0.4,0.7c-0.1,0.2-0.2,0.7-0.3,1
			c-0.1,0.2-0.3,0.5-0.2,0.7c0.1,0.1,0.4,0.2,0.5,0.1C242.3,73.6,242.7,73.3,242.9,73.2z"/>
		<path fill="#F4EB98" stroke="#72706F" d="M250.8,68c0.3-0.1,0.6-0.7,0.8-0.9c0.2-0.2,0.7-0.6,0.9-0.8c0.2-0.2,0.5-0.6,0.5-0.8
			c0-0.3,0-0.9-0.2-1c-0.2-0.1-0.7,0.1-0.9,0.2c-0.2,0.2-0.5,0.7-0.7,0.9c-0.2,0.2-0.7,0.4-0.9,0.7c-0.1,0.2-0.2,0.6-0.2,0.8
			c0,0.2-0.1,0.7,0,0.9C250.2,68,250.6,68.1,250.8,68z"/>
		<path fill="#F4EB98" stroke="#72706F" d="M249,62.6c0.2-0.1,0.6-0.6,0.8-0.8c0.2-0.2,0.6-0.5,0.6-0.7c0-0.2-0.3-0.4-0.4-0.5
			c-0.2-0.1-0.6,0.1-0.8,0.2c-0.2,0.1-0.5,0.7-0.7,0.9c-0.2,0.2-0.6,0.4-0.7,0.6c-0.1,0.2,0,0.5,0.1,0.6c0.1,0.1,0.3,0,0.4,0
			C248.4,62.7,248.8,62.7,249,62.6z"/>
		<path fill="#F4EB98" stroke="#72706F" d="M253.6,61c0.2-0.1,0.5-0.6,0.8-0.8c0.2-0.1,0.7-0.3,0.9-0.4c0.1-0.1,0.4-0.4,0.4-0.6
			c0-0.3-0.1-0.8-0.3-1c-0.2-0.2-0.9-0.1-1.1,0c-0.2,0.1-0.5,0.4-0.6,0.5c-0.2,0.1-0.7,0.1-1,0.1c-0.3,0.1-0.8,0.1-1,0.3
			c-0.1,0.2-0.1,0.7,0,0.9c0.1,0.2,0.3,0.8,0.5,0.9c0.1,0.1,0.4,0,0.6,0C252.9,61,253.4,61.1,253.6,61z"/>
		<path fill="#F4EB98" stroke="#72706F" d="M257.4,58c-0.2,0-0.6,0-0.8-0.1c-0.1-0.1-0.2-0.4-0.3-0.6c-0.1-0.1-0.4-0.2-0.4-0.3
			c-0.1-0.2-0.1-0.6,0-0.8c0.1-0.1,0.4-0.2,0.6-0.2c0.2,0,0.5,0.4,0.7,0.4c0.2,0.1,0.6,0.1,0.7,0.3c0.1,0.1,0,0.4,0,0.5
			c0,0.1,0,0.4,0,0.5C257.8,57.9,257.6,58,257.4,58z"/>
		<path fill="#F4EB98" stroke="#72706F" d="M258.6,55.3c0.2-0.1,0.6-0.5,0.6-0.7c0.1-0.2,0.1-0.5,0-0.7c0-0.2-0.3-0.4-0.4-0.5
			c-0.1-0.2,0-0.5,0-0.7c0-0.1-0.1-0.4-0.3-0.4c-0.3-0.1-0.8,0.3-0.9,0.5c-0.1,0.2,0.1,0.7,0,0.9c-0.1,0.2-0.3,0.4-0.4,0.6
			c0,0.1-0.1,0.4,0,0.5c0.1,0.2,0.5,0.6,0.7,0.6C258.2,55.5,258.4,55.4,258.6,55.3z"/>
		<path fill="#F4EB98" stroke="#72706F" d="M260.7,53.6c-0.1,0-0.4,0.2-0.5,0.1c-0.1-0.1-0.1-0.4-0.2-0.5c0-0.2,0-0.6,0-0.7
			c0.1-0.2,0.5-0.3,0.6-0.5c0.1-0.1,0.1-0.3,0.2-0.4c0.1-0.1,0.5-0.3,0.7-0.3c0.1,0,0.2,0.2,0.2,0.3c0.1,0.1,0.1,0.4,0.1,0.5
			c0,0.2-0.1,0.5-0.2,0.7c-0.1,0.2-0.5,0.4-0.7,0.5C261,53.4,260.8,53.6,260.7,53.6z"/>
		<path fill="#F4EB98" stroke="#72706F" d="M263.4,58.4c0.3-0.2,0.6-0.8,0.8-1c0.1-0.1,0.5-0.2,0.7-0.3c0.3-0.2,0.9-0.4,1.1-0.7
			c0.1-0.1,0.4-0.5,0.4-0.7c0-0.1-0.1-0.3-0.2-0.4c-0.1-0.2-0.4-0.4-0.6-0.5c-0.2-0.1-0.7,0-0.9,0c-0.3,0-0.7,0.3-1,0.3
			c-0.2,0-0.6-0.1-0.8-0.1c-0.4,0-1.1-0.1-1.4,0.1c-0.2,0.1-0.3,0.6-0.4,0.7c-0.2,0.1-0.6,0.1-0.9,0.2c-0.2,0-0.6,0.1-0.8,0.2
			c-0.1,0.1-0.4,0.3-0.5,0.4c-0.1,0.2,0.1,0.7,0.2,0.9c0.1,0.2,0.6,0.5,0.8,0.5c0.3,0.1,0.8-0.1,1.1-0.1c0.3,0,0.8,0.2,1,0.3
			c0.2,0.1,0.4,0.3,0.6,0.3C262.9,58.5,263.2,58.4,263.4,58.4z"/>
		<path fill="#F4EB98" stroke="#72706F" d="M268,59.7c0.1-0.1,0.3-0.4,0.4-0.5c0.1-0.1,0.5,0,0.6-0.1c0.1-0.2,0.1-0.6,0-0.8
			c-0.1-0.2-0.3-0.4-0.5-0.5c-0.3-0.1-0.8-0.2-1.1-0.1c-0.2,0-0.6,0.2-0.8,0.3c-0.2,0.1-0.6,0.1-0.8,0.2c-0.1,0-0.2,0.1-0.2,0.2
			c-0.1,0.1-0.2,0.4-0.1,0.5c0.1,0.1,0.3,0.2,0.4,0.2c0.2,0.1,0.5,0,0.7,0.1c0.1,0.1,0.3,0.4,0.5,0.4c0.1,0,0.2,0,0.3,0
			C267.5,59.7,267.8,59.8,268,59.7z"/>
		<path fill="#F4EB98" stroke="#72706F" d="M173.2,138.4c-0.1-0.1-0.1-0.2-0.2-0.3c-0.5-0.8-1.9-2.3-2.4-3.1
			c-0.2-0.4-0.6-1.1-0.7-1.5c-0.1-0.4-0.3-1.2-0.2-1.6c0.1-0.3,0.7-1,0.7-1S186,96.3,191,84.7c0.2-0.4,0.5-1.1,0.5-1.5
			c0-0.4-0.3-1.3-0.6-1.7c-0.1-0.1-0.5-0.3-0.7-0.3c-0.3,0-0.8,0.2-1.1,0.2c-0.2,0-0.6,0-0.7-0.1c-0.4-0.2-1-0.9-1.3-1.2
			c-0.3-0.3-1-0.8-1.3-1c-0.3-0.3-0.9-0.9-1.3-1.1c-0.6-0.5-1.7-1.4-2.3-1.8c-0.4-0.2-1.2-0.4-1.6-0.5c-0.3-0.1-1-0.4-1.3-0.5
			c-0.4-0.1-1.3-0.2-1.6-0.4c-0.5-0.2-1.1-1.1-1.5-1.5c-0.5-0.4-1.5-0.9-1.9-1.2c-0.4-0.2-1.2-0.6-1.6-0.8c-0.4-0.2-1.2-0.8-1.6-1.1
			c-0.3-0.2-1-0.5-1.2-0.9c-0.3-0.4-0.2-1.4-0.5-1.8c-0.3-0.5-1.5-1.2-2-1.7c-0.3-0.3-0.9-0.9-1.1-1.2c-0.2-0.3-0.5-0.9-0.6-1.2
			c-0.1-0.2-0.1-0.7-0.2-0.9c-0.1-0.2-0.5-0.7-0.6-0.9c-0.2-0.3-0.5-0.9-0.6-1.2c-0.1-0.5,0.5-4.2-0.4-5.1l-0.5-12
			c0.1,0,0.2,0,0.2,0.1c0.3,0.1,0.5,0.9,0.8,1c0.2,0.1,0.8,0.1,1.1,0.1c0.4,0,1.2-0.2,1.5-0.4c0.3-0.1,0.7-0.6,0.9-0.8
			c0.2-0.2,0.3-0.7,0.5-0.9c0.3-0.4,0.9-1,1.3-1.2c0.3-0.2,1-0.6,1.4-0.7c0.4,0,1.1,0.3,1.4,0.3c0.3,0,1-0.2,1.3-0.4
			c0.1-0.1,0.3-0.3,0.4-0.4c0.2-0.1,0.6-0.4,0.9-0.5c0.2-0.1,0.8-0.1,1-0.2c0.2-0.1,0.6-0.5,0.8-0.5c0.3-0.1,1,0,1.3,0
			c0.3,0,1,0.1,1.3,0c0.3-0.2,0.8-0.8,0.9-1.1c0.1-0.3,0.1-0.9,0.3-1.2c0.2-0.2,0.7-0.2,1-0.3c0.2,0,0.8,0,1-0.1
			c0.3-0.1,0.7-0.4,1-0.4c0.3,0,0.8,0,1.1,0.1c0.2,0.1,0.4,0.4,0.6,0.5c0.3,0.1,0.9,0.3,1.3,0.3c0.4,0,1.1,0,1.5-0.1
			c0.3-0.1,0.8-0.4,1.1-0.4c0.6-0.1,1.7,0.1,2.3,0.2c0.5,0.1,1.6,0.4,2.1,0.5c0.3,0.1,0.8,0.3,1,0.4c0.4,0.1,1.1,0.1,1.4,0
			c0.2-0.1,0.7-0.4,0.8-0.6c0.1-0.2,0.2-0.7,0.2-0.9c0-0.2-0.3-0.7-0.4-0.8c-0.2-0.2-0.6-0.3-0.8-0.5c-0.2-0.2-0.5-0.6-0.6-0.9
			c-0.1-0.3,0-1,0.1-1.3c0.1-0.3,0.4-0.7,0.6-0.9c0.2-0.2,0.7-0.5,1-0.6c0.4-0.2,1.1-0.5,1.5-0.4c0.2,0,0.6,0.4,0.9,0.4
			c0.4,0.1,1.1-0.1,1.5,0c0.2,0,0.6,0.3,0.9,0.4c0.2,0.1,0.8,0.2,1,0.1c0.2-0.1,0.5-0.6,0.7-0.8c0.2-0.2,0.8-0.5,1-0.7
			c0.4-0.2,1.2-0.3,1.6-0.3c0.3,0,0.9-0.1,1.2,0c0.3,0.1,0.7,0.6,1,0.7c0.2,0.1,0.7,0.4,1,0.5c0.3,0.1,0.8,0.1,1.1,0.3
			c0.3,0.1,0.6,0.6,0.9,0.8c0,0,0.1,0,0.1,0c-0.1,0.2-0.3,0.4-0.3,0.5c-0.2,0.3-0.8,1-0.9,1.4c-0.1,0.4-0.1,1.1,0,1.5
			c0.1,0.5,0.3,1.4,0.5,1.8c0.2,0.4,0.9,1.1,1.3,1.2c0.4,0.2,1.3-0.1,1.7,0c0.6,0.1,1.8,0.3,2.3,0.6c0.5,0.2,1.3,1.1,1.7,1.4
			c0.3,0.3,1,0.7,1.4,1c0.4,0.3,1.3,0.9,1.8,1c0.5,0.2,1.5,0.1,2,0.4c0.4,0.2,1,0.7,1.2,1c0.3,0.3,0.6,1.2,0.8,1.6
			c0.2,0.4,0.3,1.4,0.5,1.8c0.2,0.4,0.7,1.2,1,1.5c0.1,0.2,0.5,0.4,0.7,0.6c0.3,0.2,1,0.3,1.2,0.6c0.3,0.4,0.2,1.6,0.2,2.1
			c0,0.4-0.1,1.4,0,1.8c0.1,0.5,0.6,1.4,0.8,1.9c0.1,0.4,0.2,1.1,0.3,1.5c0.2,0.4,0.7,1.2,1,1.6c0.2,0.2,0.5,0.8,0.7,1
			c0.3,0.3,0.9,0.8,1.3,1c0.3,0.3,1.1,0.7,1.3,1.1c0.2,0.4-0.1,1.4,0,1.8c0,0.2,0.2,0.7,0.3,0.9c0.1,0.3,0.5,1.2,0.5,1.3
			c0,0.1,0.9,1.1,1.3,1.5c0.2,0.3,0.7,0.8,0.9,1.1c0.2,0.4,0.5,1.3,0.9,1.5c0.3,0.3,1.2,0.5,1.6,0.5c0.4,0.1,1.3,0.1,1.7,0
			c0.3-0.1,0.8-0.7,1.1-0.9c0.3-0.1,1-0.2,1.5-0.2c-0.1,0.2-0.3,0.4-0.4,0.6c-0.2,0.3-0.9,0.8-1.1,1.2c-0.3,0.3-0.8,1.1-1.1,1.5
			c-0.2,0.3-0.4,0.8-0.6,1.1c-0.1,0.1-0.3,0.3-0.4,0.3c-0.2,0-0.6-0.1-0.8-0.2c-0.1-0.1-0.4-0.3-0.5-0.4c-0.1,0-0.4,0-0.6,0
			c-0.2,0-0.6,0.3-0.9,0.4c-0.3,0.1-0.9,0.4-1.3,0.5c-0.3,0.1-1.1,0.2-1.4,0.3c-0.4,0.1-1.3,0.2-1.7,0.3c-0.6,0.2-1.8,0.8-2.3,1.1
			c-0.6,0.3-1.7,1.1-2.3,1.3c-0.5,0.2-1.6,0.2-2.2,0.3c-0.7,0.1-2.2,0.6-2.9,0.8c-0.6,0.2-1.8,0.5-2.4,0.8c-0.5,0.2-1.6,0.7-2,1.1
			c-0.3,0.3-0.7,0.9-0.8,1.3c-0.1,0.4-0.2,1.2-0.3,1.5c-0.1,0.3-0.5,0.7-0.8,0.9c-0.3,0.2-0.9,0.6-1.2,0.7c-0.4,0.1-1.3,0.2-1.7,0.2
			c-0.2,0-0.7-0.2-0.9-0.4c-0.2-0.2-0.5-0.7-0.6-0.9c-0.1-0.2,0-0.7,0-0.9c0-0.1,0.2-0.4,0.2-0.5c0-0.2-0.1-0.6-0.2-0.7
			c-0.1-0.1-0.4-0.3-0.5-0.4c-0.2-0.1-0.5-0.1-0.7-0.2c-0.2-0.1-0.7-0.4-0.9-0.4c-0.2-0.1-0.7-0.2-1-0.3c-0.2,0-0.5,0-0.7-0.1
			c-0.2-0.1-0.5-0.4-0.7-0.4c-0.3-0.1-0.9-0.3-1.3-0.2c-0.2,0-0.5,0.1-0.6,0.2c-0.2,0.2-0.4,0.6-0.4,0.8c0,0.1,0.2,0.4,0.3,0.5
			c0.1,0.1,0.3,0.1,0.4,0c0.1,0,0.3-0.3,0.4-0.3c0.1-0.1,0.5-0.2,0.6-0.1c0.1,0.1,0.1,0.4,0.1,0.6c-0.1,0.2-0.4,0.4-0.6,0.5
			c-0.2,0.1-0.7,0.2-1,0.2c-0.2,0-0.6-0.1-0.8-0.3c-0.2-0.1-0.5-0.6-0.7-0.7c-0.2-0.2-0.6-0.5-0.8-0.6c-0.2-0.2-0.5-0.8-0.7-0.9
			c-0.3-0.1-0.8,0-1.1,0c-0.4-0.1-1-0.3-1.4-0.4c-0.3-0.1-0.7-0.5-0.9-0.6c-0.2-0.1-0.7-0.2-0.9-0.3c-0.2-0.1-0.6-0.4-0.7-0.7
			c-0.1-0.2,0.1-0.7,0-0.9c-0.1-0.2-0.7-0.3-0.9-0.5c-0.2-0.2-0.2-0.9-0.4-1.1c-0.3-0.2-1-0.3-1.3-0.2c-0.1,0-0.3,0.3-0.5,0.3
			c-0.3,0.1-1-0.1-1.3-0.3c-0.2-0.1-0.5-0.7-0.7-0.8c-0.2-0.2-0.8-0.3-1.1-0.3c-0.2,0-0.5,0.1-0.7,0c-0.2-0.1-0.1-0.6-0.3-0.7
			c-0.2-0.1-0.7-0.1-0.9,0c-0.2,0.1-0.4,0.5-0.4,0.7c0,0.1,0.1,0.4,0.3,0.4c0.2,0.1,0.8-0.1,0.9,0c0.1,0.1,0.1,0.6,0.2,0.7
			c0.2,0.2,0.9,0,1.2,0.1c0.1,0,0.4,0.1,0.5,0.2c0.2,0.2,0.2,0.8,0.4,0.9c0.2,0.1,0.6,0.3,0.8,0.3c0.4,0,1.1-0.4,1.5-0.4
			c0.3,0,0.7,0.3,0.9,0.5c0.2,0.2,0.5,0.8,0.7,1.1c0.1,0.2,0.2,0.6,0.4,0.7c0.2,0.2,0.9,0.2,1.1,0.3c0.3,0.2,0.9,0.6,0.9,0.9
			c0,0.2-0.6,0.4-0.9,0.4c-0.2,0.1-0.6,0.1-0.9,0.1c-0.2,0-0.7,0-0.9,0c-0.2,0-0.6,0.1-0.8,0.3c-0.3,0.2-0.6,0.8-0.7,1.2
			c-0.1,0.3-0.3,0.9-0.1,1.1c0.1,0.1,0.4-0.2,0.5-0.3c0.2-0.1,0.6-0.5,0.9-0.6c0.3-0.2,0.8-0.5,1.1-0.7c0.3-0.1,1-0.2,1.3-0.3
			c0.3-0.1,0.9-0.6,1.2-0.7c0.2,0,0.7,0.1,0.9,0.1c0.2,0,0.5-0.1,0.7-0.1c0.2,0,0.4,0.2,0.6,0.3c0.2,0.1,0.3,0.6,0.5,0.7
			c0.1,0.1,0.4,0.2,0.6,0.3c0.1,0.1,0.4,0.3,0.4,0.5c0,0.2-0.3,0.4-0.5,0.5c-0.1,0.1-0.5,0.2-0.7,0.2c-0.2,0-0.7,0-0.9-0.1
			c-0.2-0.1-0.3-0.5-0.5-0.7c-0.1-0.1-0.3-0.1-0.4-0.1c-0.1,0-0.4,0.2-0.5,0.3c-0.1,0.1-0.1,0.5,0,0.6c0,0.2,0.3,0.5,0.4,0.6
			c0.2,0.2,0.7,0.4,1,0.5c0.4,0.1,1.2,0.3,1.6,0.3c0.2,0,0.6-0.3,0.8-0.3c0.2-0.1,0.6,0,0.8-0.1c0.2-0.1,0.5-0.5,0.7-0.6
			c0.2-0.1,0.7-0.2,0.9,0c0.1,0.1,0.2,0.4,0.2,0.5c0,0.2-0.4,0.4-0.5,0.6c-0.1,0.2-0.3,0.5-0.4,0.7c0,0.1-0.1,0.5,0,0.6
			c0.1,0.1,0.4-0.1,0.6-0.1c0.1,0,0.4,0,0.5,0.1c0.1,0.2,0,0.6-0.1,0.8c0,0.2-0.2,0.6-0.3,0.8c-0.1,0.1-0.5,0.3-0.5,0.4
			c-0.1,0.3,0,0.9,0,1.2c0,0.2-0.1,0.6-0.1,0.8c-0.1,0.3-0.3,0.9-0.3,1.2c0,0.3,0,0.9,0,1.3c0,0.3-0.1,0.8-0.2,1
			c-0.1,0.3-0.7,0.8-0.8,1.2c-0.2,0.4-0.3,1.1-0.4,1.5c0,0.4,0,1.1,0,1.5c0,0.3-0.1,1,0.1,1c0.2,0.1,0.6-0.5,0.7-0.7
			c0.2-0.3,0.3-0.9,0.4-1.2c0.1-0.3,0.4-0.9,0.4-1.2c0-0.3,0-0.8,0-1.1c0.1-0.3,0.4-0.7,0.5-1c0.2-0.4,0.4-1.1,0.5-1.5
			c0.1-0.2,0.1-0.7,0.2-1c0.1-0.3,0.3-0.8,0.4-1.1c0.1-0.3,0.2-0.8,0.3-1.1c0.1-0.3,0.5-1,0.7-1.3c0.1-0.2,0.3-0.7,0.5-0.9
			c0.3-0.2,1.1-0.3,1.5-0.3c0.2,0,0.7,0,1,0c0.3,0,1,0.3,1.3,0.3c0.5,0.1,1.4,0.2,1.9,0.2c0.4,0,1.3-0.2,1.7-0.3
			c0.3-0.1,1-0.3,1.2-0.5c0.2-0.1,0.6-0.5,0.7-0.7c0.2-0.3,0.5-1.2,0.6-1.6c0.1-0.2,0.2-0.8,0.4-1c0.2-0.3,0.9-0.7,1.2-0.9
			c0.3-0.2,1-0.6,1.3-0.8c0.3-0.2,1.1-0.4,1.5-0.5c0.5,0,1.4,0.2,1.8,0.2c0.6,0,1.7-0.3,2.3-0.4c0.4-0.1,1.2-0.4,1.6-0.6
			c0.3-0.2,0.8-0.7,1-0.9c0.3-0.2,0.9-0.5,1.2-0.7c0.3-0.2,0.9-0.7,1.3-0.8c0.4-0.2,1.2-0.5,1.6-0.6c0.4-0.1,1.3-0.4,1.7-0.4
			c0.3,0,0.9-0.1,1.2,0c0.3,0.1,0.9,0.3,1.1,0.6c0.1,0.1,0.3,0.5,0.2,0.7c0,0.1-0.4,0.2-0.4,0.3c-0.1,0.2-0.2,0.6-0.3,0.8
			c0,0.4,0.1,1.1,0.1,1.5c0,0.4,0,1.1,0.1,1.4c0.1,0.4,0.6,1,0.8,1.4c0.1,0.2,0.4,0.7,0.5,1c0.1,0.3,0.3,0.9,0.4,1.1
			c0.1,0.2,0.3,0.5,0.5,0.7c0.1,0.2,0.5,0.4,0.6,0.6c0.1,0.3,0,1,0,1.3c0,0.2-0.2,0.7-0.2,0.9c0,0.3,0.1,1,0.3,1.3
			c0.1,0.3,0.7,0.8,0.8,1c0.1,0.2,0.2,0.8,0.4,1c0.1,0.2,0.6,0.5,0.8,0.4c0.2-0.1,0.2-0.5,0.2-0.7c0-0.2-0.1-0.7-0.2-0.9
			c0-0.2-0.2-0.6-0.2-0.8c0-0.2,0-0.5,0-0.7c0-0.3-0.2-0.7-0.2-1c-0.1-0.3-0.1-1-0.2-1.3c-0.1-0.3-0.2-1-0.4-1.3
			c-0.2-0.3-0.6-0.8-0.9-1.1c-0.2-0.2-0.5-0.7-0.7-1c-0.1-0.2-0.4-0.6-0.5-0.8c-0.1-0.3,0-0.8,0-1.1c0-0.3-0.3-0.9-0.3-1.2
			c-0.1-0.4-0.3-1.2-0.2-1.5c0-0.2,0.1-0.6,0.2-0.7c0.1-0.2,0.4-0.6,0.5-0.7c0.3-0.2,1.1-0.3,1.5-0.4c0.4-0.1,1.1-0.3,1.5-0.4
			c0.3-0.2,0.8-0.7,1.2-0.8c0.3-0.1,0.9-0.2,1.2-0.3c0.3-0.1,1-0.3,1.3-0.5c0.3-0.1,0.8-0.5,1.1-0.6c0.2-0.1,0.6-0.5,0.9-0.6
			c0.2-0.1,0.5-0.3,0.7-0.5c0.3-0.2,0.6-0.9,0.9-1.1c0.2-0.2,0.8-0.6,1.1-0.8c0.3-0.2,1-0.3,1.3-0.5c0.2-0.2,0.4-0.7,0.6-0.8
			c0.2-0.1,0.8,0,1-0.1c0.2,0,0.6-0.1,0.7-0.2c0.2-0.2,0.3-0.8,0.4-1.1c0.1-0.2,0.2-0.5,0.2-0.7c0-0.2-0.1-0.5-0.2-0.7
			c0-0.2-0.1-0.6,0-0.7c0.1-0.2,0.6-0.3,0.8-0.3c0.2,0,0.5,0.5,0.7,0.5c0.2,0,0.5-0.2,0.5-0.4c0.1-0.2-0.1-0.6-0.2-0.7
			c-0.2-0.2-0.9-0.3-1.1-0.6c-0.1-0.2-0.1-0.8-0.1-1c0.1-0.6,0.6-1.6,1-2c0.2-0.3,0.9-0.7,1.2-0.9c0.5-0.2,1.4-0.6,1.9-0.7
			c0.5-0.1,1.5,0,2,0.2c0.4,0.1,1.2,0.5,1.5,0.7c0.3,0.1,0.9,0.5,1.2,0.6c0.4,0.1,1.1,0,1.5,0c0.3,0,1,0,1.3,0.1
			c0.4,0,1.2,0.3,1.6,0.3c0.3,0,1.1,0.1,1.4,0c0.4-0.2,0.8-0.9,1.1-1.1c0.3-0.2,1-0.4,1.3-0.4c0.2,0,0.7,0.1,0.9,0.2
			c0.3,0.1,0.9,0.3,1.2,0.4c0.4,0.1,1.2,0.5,1.7,0.6c0.5,0.1,1.6-0.1,2.2,0c0.4,0.1,1.2,0.2,1.5,0.4c0.3,0.2,1,0.6,1.2,0.9
			c0.1,0.3,0.1,0.9,0,1.2c-0.1,0.4-0.7,1.1-0.9,1.6c-0.1,0.3-0.2,1-0.4,1.3c-0.1,0.3-0.3,0.9-0.4,1.2c-0.1,0.2-0.2,0.6-0.3,0.8
			c-0.1,0.2-0.5,0.4-0.6,0.6c-0.2,0.3-0.2,1-0.3,1.3c-0.1,0.2-0.6,0.6-0.8,0.8c-0.1,0.2-0.4,0.6-0.5,0.8c-0.2,0.5-0.1,1.8-0.4,2.3
			c-0.4,0.6-1.9,1.3-2.6,1.6c-0.5,0.2-1.7,0.4-2.3,0.5c-0.3,0-0.8,0.1-1,0.1c-0.3,0-0.9,0.1-1.2,0c-0.1,0-0.3-0.3-0.4-0.3
			c-0.2,0-0.5,0-0.7,0.1c-0.2,0.1-0.2,0.6-0.4,0.8c-0.1,0.2-0.5,0.6-0.7,0.7c-0.2,0.1-0.5,0.2-0.7,0.1c-0.2-0.1-0.2-0.6-0.3-0.7
			c-0.1-0.1-0.4,0-0.5,0.1c-0.2,0.1-0.1,0.7-0.2,0.8c-0.1,0.1-0.3,0.1-0.4,0.1c-0.2,0-0.5-0.4-0.7-0.4c-0.2-0.1-0.7,0-0.9,0
			c-0.1,0-0.3-0.3-0.5-0.3c-0.2,0-0.6,0.4-0.8,0.4c-0.2,0.1-0.7,0-0.9,0c-0.2,0-0.5-0.1-0.7-0.2c-0.3,0-0.8-0.1-1,0
			c-0.2,0.1-0.5,0.6-0.7,0.7c-0.1,0-0.4,0-0.5,0c-0.2-0.1-0.5-0.5-0.7-0.6c-0.2-0.1-0.5-0.4-0.7-0.4c-0.3-0.1-0.8,0.1-1.1,0.2
			c-0.2,0.1-0.5,0.4-0.7,0.5c-0.2,0.1-0.5,0.3-0.7,0.3c-0.3,0.1-0.8,0.3-1,0.3c-0.3,0-1,0.1-1.3,0c-0.2-0.1-0.7-0.4-0.9-0.5
			c-0.1-0.1-0.3-0.3-0.5-0.4c-0.1-0.1-0.3-0.3-0.5-0.4c-0.2-0.1-0.5-0.1-0.7-0.2c-0.1,0-0.2-0.2-0.3-0.2c-0.2-0.1-0.7-0.5-0.9-0.4
			c-0.2,0-0.3,0.4-0.4,0.5c-0.2,0.2-0.5,0.4-0.7,0.5c-0.2,0.1-0.6,0.1-0.7,0.2c-0.1,0.1,0,0.4,0,0.6c0.1,0.2,0.4,0.4,0.4,0.6
			c0,0.2-0.4,0.6-0.4,0.8c-0.1,0.3-0.1,0.9-0.1,1.2c0,0.2,0.1,0.7,0.2,1c0.1,0.4,0.4,1.1,0.6,1.3c0.2,0.2,0.6,0.6,0.8,0.4
			c0.2-0.1-0.1-0.6-0.1-0.8c-0.1-0.2-0.3-0.6-0.3-0.8c-0.1-0.2-0.2-0.7-0.2-0.9c0-0.3,0.2-0.7,0.2-1c0.1-0.3,0.2-0.8,0.4-1.1
			c0.2-0.2,0.6-0.6,0.9-0.7c0.2-0.1,0.7-0.1,0.9,0c0.3,0.1,0.8,0.7,1.1,0.9c0.2,0.2,0.7,0.4,0.8,0.6c0.1,0.3-0.2,1-0.2,1.3
			c0,0.5,0,1.5,0,2c0,0.3,0,0.9,0.2,1.1c0.2,0.3,0.9,0.8,1.3,1c0.2,0.1,0.6,0.4,0.8,0.3c0.1,0,0.3-0.4,0.3-0.5c0-0.3-0.5-0.7-0.7-1
			c-0.2-0.2-0.7-0.5-0.9-0.8c-0.1-0.4,0.1-1.1,0.1-1.5c0-0.3-0.1-0.8,0-1.1c0.1-0.1,0.4-0.3,0.6-0.3c0.2,0,0.6,0.4,0.7,0.6
			c0.1,0.1,0.3,0.7,0.5,0.7c0.1,0,0.3-0.3,0.3-0.4c0-0.3-0.3-0.8-0.3-1c0-0.2,0.2-0.7,0.4-0.8c0.2-0.1,0.7,0.4,0.9,0.4
			c0.2-0.1,0.2-0.5,0.3-0.6c0-0.1,0-0.5,0.1-0.6c0.1-0.1,0.3,0,0.4,0c0.2,0,0.6,0,0.8,0c0.3,0.1,0.6,0.7,0.9,0.8
			c0.2,0.1,0.6,0.1,0.8,0.1c0.2,0,0.5,0,0.6,0c0.3-0.1,0.8-0.4,1.1-0.4c0.3-0.1,0.8,0.1,1.1,0c0.2-0.1,0.6-0.4,0.8-0.5
			c0.2-0.1,0.8,0,1,0.1c0.1,0,0.3,0.2,0.4,0.2c0.1,0.2,0.4,0.5,0.4,0.7c0.1,0.2-0.1,0.7,0,0.9c0.1,0.3,0.3,0.9,0.5,1
			c0.2,0.1,0.6-0.3,0.7-0.4c0.1-0.3-0.1-0.9,0-1.2c0.1-0.2,0.4-0.4,0.5-0.5c0.2-0.2,0.6-0.5,0.9-0.6c0.3-0.1,1.1,0.2,1.4,0
			c0.2-0.1,0.4-0.7,0.6-0.9c0.3-0.2,1.1-0.5,1.4-0.4c0.2,0,0.6,0.3,0.7,0.5c0.1,0.2-0.1,0.6-0.2,0.8c-0.1,0.2-0.6,0.4-0.8,0.6
			c-0.2,0.2-0.5,0.8-0.6,1.1c-0.2,0.4-0.5,1.2-0.6,1.6c-0.1,0.4-0.1,1.2-0.1,1.6c0,0.3,0.1,0.9,0.2,1.2c0.1,0.3,0.2,1,0.4,1
			c0.3,0,0.4-0.8,0.5-1.1c0-0.1,0-0.5,0.1-0.6c0.1-0.4,0.6-1,0.8-1.3c0.2-0.3,0.6-1,0.7-1.3c0.1-0.3,0.4-0.9,0.5-1.2
			c0.2-0.3,0.6-0.8,0.9-1c0.3-0.2,1-0.3,1.3-0.4c0.3-0.2,0.9-0.6,1.1-0.9c0.2-0.2,0.7-0.8,0.8-1c0.2-0.4,0.4-1.2,0.7-1.5
			c0.2-0.2,0.9-0.4,1.2-0.5c0.3,0,0.8,0,1,0.1c0.3,0.2,0.4,0.8,0.7,1c0.2,0.2,0.6,0.4,0.8,0.4c0.3,0,0.7-0.4,0.9-0.5
			c0.2-0.1,0.5-0.4,0.6-0.5c0.2-0.1,0.6-0.4,0.7-0.6c0.1-0.2,0-0.6-0.1-0.8c-0.2-0.2-0.8,0-1-0.1c-0.2-0.1-0.2-0.6-0.2-0.8
			c0-0.1,0-0.5,0-0.6c0-0.2,0.2-0.5,0.2-0.7c0.1-0.2,0.3-0.5,0.4-0.7c0-0.1,0-0.5,0-0.6c0-0.2-0.1-0.6-0.1-0.8
			c0-0.2,0.2-0.7,0.4-0.9c0.2-0.2,0.6-0.7,0.8-0.8c0.2-0.2,0.8-0.4,1-0.6c0.2-0.1,0.4-0.5,0.6-0.6c0.3-0.2,1.1,0,1.4-0.1
			c0.3-0.1,0.8-0.5,1-0.6c0.2-0.1,0.5-0.3,0.7-0.3c0.2,0,0.6,0.4,0.8,0.5c0.2,0.1,0.6,0.4,0.8,0.4c0.3,0,0.7-0.7,1-0.6
			c0.2,0,0.4,0.5,0.6,0.7c0.1,0.1,0.4,0.4,0.5,0.4c0.2,0,0.5-0.1,0.6-0.2c0.1-0.1-0.1-0.5,0-0.7c0.1-0.1,0.3-0.1,0.4-0.1
			c0.1,0,0.4,0.2,0.5,0.2c0.2-0.1,0.1-0.7,0.3-0.9c0.1-0.1,0.5-0.1,0.6,0c0.2,0.2,0,0.8,0.1,1c0.1,0.2,0.6,0.2,0.8,0.2
			c0.2,0.1,0.8,0.1,1,0.2c0.2,0.1,0.3,0.6,0.5,0.6c0.2,0.1,0.6-0.4,0.9-0.3c0.2,0.1,0.2,0.6,0.4,0.7c0.2,0,0.4-0.4,0.6-0.4
			c0.1,0,0.4,0,0.5,0c0.2,0,0.5,0.2,0.7,0.3c0.2,0.1,0.7,0.2,0.8,0.3c0.2,0.2,0.5,0.9,0.6,1.2c0.1,0.3,0.4,0.9,0.6,1
			c0.3,0.2,1.2,0.1,1.6,0c0.3-0.1,1-0.2,1.2-0.4c0.1-0.1,0.1-0.7,0.3-0.7c0.2-0.1,0.6,0.1,0.7,0.3c0.1,0.2,0.1,0.6,0.1,0.8
			c0,0.2-0.4,0.5-0.4,0.7c0,0.2,0.2,0.5,0.4,0.6c0.2,0.1,0.7,0.2,0.9,0.2c0.1,0,0.2,0,0.3-0.1c0,0.4-0.1,0.9-0.1,1.1
			c-0.1,0.3-0.3,1-0.4,1.3c-0.1,0.5-0.2,1.6-0.3,2.1c-0.1,0.2-0.5,0.6-0.5,0.9c-0.1,0.3,0.2,0.9,0.2,1.3c0,0.4-0.3,1.3-0.4,1.7
			c-0.1,0.4-0.2,1.3-0.4,1.7c-0.1,0.2-0.5,0.6-0.6,0.8c-0.2,0.3-0.6,0.8-0.7,1.1c-0.2,0.4-0.3,1.2-0.5,1.6c-0.1,0.3-0.6,0.9-0.8,1.2
			c-0.2,0.3-0.5,0.8-0.7,1.1c-0.3,0.4-0.9,1.1-1.1,1.5c-0.2,0.6,0,1.8-0.2,2.4c-0.1,0.4-0.3,1.2-0.5,1.5c-0.2,0.4-0.9,0.9-1.2,1.3
			c-0.3,0.3-0.7,0.9-1,1.3c-0.3,0.5-0.9,1.5-1.2,2c-0.2,0.4-0.3,1.3-0.4,1.8c-0.1,0.4-0.1,1.1-0.3,1.5c-0.2,0.4-0.8,1.1-1.1,1.4
			c-0.3,0.2-1.1,0.4-1.4,0.7c-0.3,0.2-0.6,0.9-0.8,1.2c-0.1,0.3-0.1,1-0.3,1.2c-0.2,0.4-0.9,0.8-1.2,1.1c-0.4,0.4-1.1,1.2-1.5,1.5
			c-0.2,0.2-0.6,0.4-0.8,0.5c-0.4,0.2-1.1,0.6-1.5,0.8c-0.4,0.2-1.2,0.4-1.6,0.6c-0.5,0.3-1.2,1.1-1.7,1.4c-0.5,0.4-1.6,1.2-2.2,1.6
			c-0.5,0.3-1.6,0.7-2,1c-0.4,0.3-1.1,1.1-1.3,1.5c-0.2,0.3-0.5,0.9-0.5,1.3c0,0.2,0.2,0.4,0.4,0.5c0.1,0.1,0.1,0.1,0.2,0.2
			c0.3,0.2,0.9,0.4,1.2,0.4c0.4,0.1,1.3,0.2,1.7,0.4c0.3,0.1,0.8,0.5,1,0.7c0.2,0.2,0.6,0.6,0.6,0.9c0.1,0.2,0.1,0.8,0,1
			c-0.1,0.3-0.9,0.6-1,0.9c-0.1,0.2,0,0.5,0,0.7c0,0.3,0,0.9,0,1.2c0,0.3-0.3,0.8-0.4,1.1c-0.1,0.2-0.2,0.7-0.3,0.9
			c-0.1,0.2-0.6,0.5-0.7,0.7c-0.1,0.3,0,1-0.1,1.3c-0.1,0.2-0.4,0.6-0.6,0.7c-0.2,0.2-0.8,0.4-1.1,0.6c-0.2,0.2-0.7,0.5-0.9,0.8
			c-0.2,0.3-0.1,1-0.3,1.2c-0.1,0.2-0.5,0.5-0.7,0.7c-0.3,0.2-1,0.5-1.3,0.7c-0.3,0.1-1,0.2-1.3,0.3c-0.4,0.1-1.2,0.5-1.5,0.8
			c-0.2,0.2-0.3,0.7-0.4,1c-0.1,0.2-0.4,0.5-0.5,0.7c-0.2,0.4-0.4,1.3-0.4,1.8c-0.1,0.4-0.1,1.2-0.1,1.6c-0.1,0.3-0.3,0.9-0.4,1.2
			c-0.1,0.2-0.4,0.7-0.5,0.9c-0.1,0.2-0.4,0.7-0.4,0.9c0,0.3,0.2,0.9,0.4,1.2c0.2,0.3,0.8,0.8,1,1.1c0.3,0.5,0.6,1.8,0.5,2.4
			c-0.1,0.4-0.8,1-0.9,1.4c-0.1,0.4,0.2,1.4,0.1,1.8c-0.1,0.4-0.6,1.3-0.9,1.6c-0.2,0.3-0.9,0.7-1.2,1c-0.2,0.3-0.4,0.9-0.5,1.3
			c-0.1,0.3-0.2,1-0.4,1.3c-0.1,0.3-0.4,0.9-0.7,1.1c-0.3,0.3-1,0.5-1.3,0.7c-0.4,0.3-1,0.9-1.3,1.2c-0.6,0.6-1.5,2-1.9,2.7
			c-0.2,0.4-0.6,1.4-0.8,1.8c-0.1,0.3-0.4,1-0.5,1.3c-0.2,0.4-0.7,1-0.9,1.4c-0.2,0.3-0.5,1-0.7,1.3c-0.1,0.1-0.1,0.4-0.1,0.6
			l-65.8-4.1c0,0-1.9-0.4-2.5-0.6c-0.6-0.1-1.8-0.4-2.3-0.7c-0.5-0.2-1.3-0.9-1.8-1.1c-0.4-0.2-1.2-0.7-1.6-0.9
			c-0.5-0.3-1.4-1.1-1.9-1.5c-0.5-0.4-1.5-1.2-1.9-1.6c-0.5-0.5-1.7-1.4-2.1-1.9c-0.3-0.4-0.7-1.4-0.8-1.8c-0.1-0.6,0.1-1.8,0-2.4
			c-0.1-0.6-0.4-1.8-0.6-2.4c-0.4-1.3-1.6-3.8-2.2-5.1C175.1,141.6,174,139.6,173.2,138.4z"/>
	</g>
</g>
</svg>
