<!-- Generator: Adobe Illustrator 18.0.0, SVG Export Plug-In  -->
<svg version="1.1"
	 xmlns="http://www.w3.org/2000/svg" xmlns:xlink="http://www.w3.org/1999/xlink" xmlns:a="http://ns.adobe.com/AdobeSVGViewerExtensions/3.0/"
	 x="0px" y="0px" width="151.1px" height="194.7px" viewBox="0 0 151.1 194.7" enable-background="new 0 0 151.1 194.7"
	 xml:space="preserve">
<defs>
</defs>
<g>
	<path fill="#E2A960" stroke="#72706F" d="M146.1,92c-0.2,0.4-0.4,0.8-0.5,1.1c-0.2,0.5-0.6,1.5-0.8,1.9c-0.4,0.6-1.3,1.8-1.8,2.3
		c-0.6,0.7-1.9,2-2.6,2.5c-0.4,0.2-1.3,0.2-1.6,0.5c-0.3,0.2-0.5,0.8-0.7,1.1c-0.2,0.4-0.5,1.1-0.6,1.5c-0.3,0.5-0.7,1.6-1.1,2
		c-0.4,0.4-1.5,0.9-1.9,1.3c-0.3,0.2-0.8,0.7-1,0.9c-0.2,0.3-0.4,1.2-0.7,1.5c-0.2,0.3-0.9,0.6-1.3,0.9c-0.4-0.6-1-1.3-1.2-1.7
		c-0.2-0.3-0.6-1-0.9-1.3c-0.5-0.4-1.8-0.5-2.2-0.9c-0.2-0.2-0.4-0.7-0.5-1c-0.2-0.5-0.5-1.7-0.9-2.1c-0.4-0.4-1.5-0.8-2-1
		c-0.5-0.3-1.3-0.8-1.8-1c-0.3-0.1-0.9-0.3-1.1-0.4c-0.4-0.2-1.2-0.5-1.7-0.6c-0.5-0.2-1.5-0.4-1.9-0.7c-0.3-0.2-0.7-0.7-1-0.9
		c-0.3-0.2-0.9-0.5-1.2-0.7c-0.1,0-0.3-0.1-0.5-0.2c0-0.2-0.1-0.5-0.2-0.7c-0.1-0.2-0.6-0.3-0.8-0.4c-0.1-0.1-0.4-0.1-0.5-0.2
		c-0.2-0.2-0.4-0.9-0.5-1.2c0-0.2,0.1-0.6,0.2-0.9c0.1-0.1,0.3-0.4,0.5-0.4c0.3-0.2,1.1-0.2,1.5-0.3c0.4-0.1,1.1-0.5,1.4-0.7
		c0.3-0.2,0.7-0.8,0.9-1.1c0.1-0.2,0.3-0.7,0.5-0.8c0.2-0.1,0.8-0.1,1.1,0c0.2,0.1,0.3,0.6,0.5,0.7c0.3,0.1,0.9,0,1.2,0
		c0.2,0,0.6,0.1,0.8,0.2c0.2,0.1,0.7,0.5,0.9,0.7c0.3,0.3,0.8,1.1,1.1,1.5c0.2,0.3,0.4,0.9,0.6,1.2c0.2,0.2,0.7,0.5,0.9,0.6
		c0.3,0.1,1,0,1.3,0c0.4,0.1,1.2,0.5,1.7,0.5c0.6,0.1,1.9-0.1,2.5-0.3c0.4-0.1,1.1-0.4,1.5-0.5c0.6-0.2,1.9-0.3,2.4-0.6
		c0.3-0.2,0.5-0.8,0.8-1.1c0.3-0.3,0.9-0.7,1.2-0.9c0.2-0.1,0.7-0.4,1-0.4c0.4-0.1,1.2-0.5,1.6-0.5c0.3,0,0.8,0.1,1.1,0.2
		c0.3,0,0.9,0,1.2,0c0.4,0,1.2-0.2,1.6-0.2c0.6,0.1,1.6,0.6,2.2,0.7C144.8,92.1,145.6,92.1,146.1,92z"/>
	<path fill="#E2A960" stroke="#72706F" d="M130.2,107.9c0.3,0.4,0.8,1.1,1.2,1.7c-0.1,0.1-0.2,0.1-0.3,0.2c-0.5,0.3-1.5,0.8-2,1
		c-0.9,0.5-2.7,1.3-3.5,1.9c-0.5,0.4-1.4,1.4-1.7,1.9c-0.3,0.4-0.7,1.4-1,1.9c-0.1,0.3-0.3,0.9-0.5,1.2c-0.2,0.3-0.5,1-0.7,1.3
		c-0.2,0.2-0.7,0.5-1,0.4c-0.1,0-0.2-0.3-0.2-0.5c0-0.2,0.2-0.5,0.2-0.7c0-0.1,0.1-0.5,0-0.6c-0.1-0.1-0.4-0.1-0.5,0
		c-0.2,0.2-0.1,0.8-0.3,1c-0.1,0.1-0.4-0.1-0.4,0c-0.2,0.2,0,0.6,0,0.9c0,0,0,0.1,0,0.2c-0.5,0-1.1,0-1.4,0c-0.5,0-1.6,0.2-2.1,0
		c-0.5-0.1-1.4-0.7-1.7-1.1c-0.3-0.5-0.4-1.6-0.6-2.2c-0.2-0.5-0.5-1.4-0.7-1.9c-0.2-0.4-0.8-1-0.9-1.4c-0.1-0.3-0.1-1.1,0-1.4
		c0.1-0.4,0.7-1.2,1.1-1.4c0.1-0.1,0.5,0,0.7,0c0.4-0.1,1.3-0.3,1.7-0.6c0.4-0.3,0.8-1.3,1-1.7c0.2-0.6,0.7-1.9,0.7-2.5
		c0-0.8-0.8-2.3-1.1-3.1c-0.2-0.5-0.8-1.5-1.1-2c-0.1-0.2-0.3-0.6-0.3-0.9c-0.1-0.6-0.1-1.8-0.2-2.3c0,0,0-0.1,0-0.1
		c0.2,0.1,0.4,0.2,0.5,0.2c0.3,0.1,0.9,0.5,1.2,0.7c0.3,0.2,0.7,0.7,1,0.9c0.4,0.3,1.5,0.5,1.9,0.7c0.4,0.1,1.2,0.5,1.7,0.6
		c0.3,0.1,0.9,0.3,1.1,0.4c0.5,0.2,1.3,0.8,1.8,1c0.5,0.3,1.6,0.6,2,1c0.4,0.4,0.7,1.6,0.9,2.1c0.1,0.3,0.3,0.8,0.5,1
		c0.4,0.4,1.8,0.5,2.2,0.9C129.6,106.8,129.9,107.6,130.2,107.9z"/>
	<path fill="#E2A960" stroke="#72706F" d="M148.8,63.3c0.1,0.5,0.3,1.4,0.4,2.2c-0.3,0.1-0.7,0.2-0.9,0.2c-0.4,0.1-1.3,0.1-1.7,0
		c-0.4-0.1-1-0.8-1.4-1c-0.5-0.2-1.5-0.4-2.1-0.5c-0.5,0-1.4,0.2-1.9,0.2c-0.5,0-1.6,0-2.1,0c-0.4,0-1.3,0.1-1.7-0.1
		c-0.3-0.1-0.8-0.5-1.1-0.7c-0.4-0.3-0.9-1.2-1.3-1.4c-0.2-0.1-0.7-0.1-0.9,0c-0.2,0.1-0.7,0.4-0.8,0.6c-0.1,0.2,0,0.8,0,1.1
		c-0.1,0.3-0.3,0.9-0.4,1.2c-0.1,0.4-0.4,1.1-0.5,1.4c-0.1,0.4-0.2,1.1-0.3,1.5c-0.1,0.2-0.2,0.8-0.4,0.9c-0.3,0.2-0.9,0.2-1.2,0
		c-0.2-0.1-0.4-0.8-0.5-1c-0.2-0.3-0.3-1.1-0.5-1.3c-0.2-0.2-0.7-0.6-0.9-0.7c-0.4-0.1-1.2-0.1-1.5,0c-0.2,0.1-0.4,0.5-0.6,0.6
		c-0.3,0.1-1,0.2-1.3,0.1c-0.5-0.1-1.2-0.8-1.7-1c-0.2-0.1-0.6-0.1-0.7-0.2c-0.2-0.1-0.5-0.6-0.5-0.8c0-0.3,0.5-0.6,0.6-0.9
		c0.1-0.2,0.2-0.7,0.3-1c0.1-0.3,0.3-0.8,0.5-1.1c0.1-0.2,0.5-0.4,0.6-0.5c0.2-0.2,0.4-0.6,0.5-0.8c0.1-0.2,0.4-0.6,0.4-0.8
		c0-0.3-0.4-0.9-0.7-1c-0.3-0.2-1,0-1.3,0c-0.5,0.1-1.4,0.4-1.9,0.5c-0.3,0.1-0.9,0.3-1,0.4c-0.1,0-0.5,0.5-0.7,0.7
		c-0.2,0.3-0.5,1-0.8,1.2c-0.2,0.2-1,0.4-1.1,0.4c-0.1,0-0.8,0.4-1.1,0.6c-0.2,0.2-0.6,0.6-0.9,0.7c-0.3,0.1-0.9,0.1-1.2,0.1
		c-0.4-0.1-1.1-0.4-1.4-0.6c-0.3-0.2-0.9-0.6-1.2-0.7c-0.2-0.1-0.7,0-0.9,0c-0.1,0-0.2,0-0.3,0c0.1-0.3,0.3-0.6,0.3-0.8
		c0.1-0.4-0.1-1.2,0-1.6c0.1-0.3,0.5-0.7,0.7-0.9c0.3-0.2,0.9-0.4,1.2-0.5c0.3-0.1,1-0.2,1.3-0.4c0.2-0.2,0.5-0.7,0.6-0.9
		c0.3-0.4,0.9-1.3,1.1-1.8c0.2-0.3,0.4-1,0.5-1.3c0.3-0.5,1-1.5,1.2-2c0.2-0.5,0.6-1.5,0.9-1.9c0.3-0.4,0.9-1.2,1.3-1.6
		c0.4-0.5,1.2-1.5,1.7-1.8c0.6-0.4,2.1-0.7,2.8-1c0.2-0.1,0.8-0.3,1.2-0.4c0.2,0.3,0.5,0.8,0.7,1.1c0.2,0.2,0.7,0.7,1,0.8
		c0.4,0.2,1.3,0.2,1.6,0.3c0.3,0.1,1,0.5,1.3,0.7c0.4,0.2,1,0.8,1.4,0.9c0.4,0.1,1.2,0.2,1.6,0.2c0.7,0.1,2.1,0,2.7,0.1
		c0.5,0,1.4,0.3,1.8,0.3c0.5,0,1.4-0.2,1.9-0.2c1,0.1,3.1,0.4,4,0.9c0.5,0.2,1.4,0.9,1.7,1.3c0.4,0.6,0.9,1.9,1.1,2.6
		c0.3,0.8,0.7,2.4,1,3.2c0.2,0.5,0.5,1.5,0.6,2.1c0.1,0.4,0,1.3,0.1,1.7C148.1,61.5,148.6,62.7,148.8,63.3z"/>
	<path fill="#E2A960" stroke="#72706F" d="M30.5,101.9c-0.4,0-0.8,0-1-0.1c-0.1,0-0.3,0-0.5-0.1c0.2-0.4,0.4-0.9,0.5-1.2
		c0.2-0.6,0.3-1.9,0.4-2.6c0.1-0.8,0.3-2.4,0.5-3.2c0.1-0.4,0.2-1.1,0.3-1.5c0-0.4,0.1-1.2,0-1.6c-0.1-0.3-0.7-0.7-0.8-1
		c-0.2-0.4,0-1.4,0-1.9c0-0.5,0.1-1.4,0.1-1.8c0-0.5-0.1-1.6,0-2.2c0.1-0.3,0.5-0.8,0.6-1.1c0.2-0.4,0.5-1.3,0.6-1.7
		c0.2-0.5,0.7-1.4,1-1.8c0.2-0.4,0.7-1.3,1-1.8c0.3-0.5,0.8-1.6,0.9-2.1c0.1-0.4-0.1-1.4,0-1.8c0.1-0.4,0.6-1.2,0.9-1.6
		c0.2-0.3,0.8-0.7,1.1-0.9c0.3-0.2,1.1-0.5,1.5-0.7c0.4-0.1,1.3-0.3,1.7-0.4c0.3-0.1,0.9-0.3,1.1-0.5c0.2-0.1,0.6-0.4,0.8-0.6
		c0.2-0.2,0.7-0.5,0.9-0.6c0.2-0.1,0.7,0.1,1,0c0.4-0.1,1.2-0.5,1.5-0.7c0.6-0.4,1.6-1.3,2.1-1.7c0.4-0.3,1.3-0.9,1.8-1.2
		c0.4-0.3,1.2-1.1,1.6-1.5c0.3-0.3,0.9-1,1.3-1.3c0.4-0.3,1.2-0.9,1.7-1c0.3-0.1,1,0.1,1.3,0.2c0.3,0.1,0.9,0.7,1.2,0.8
		c0.2,0.1,0.7,0.1,1,0.1c0.4,0,1.1-0.2,1.5-0.2c0.6,0,1.9,0.4,2.6,0.3c0.3,0,1-0.3,1.2-0.5c0.4-0.2,1.1-0.7,1.3-1.1
		c0.3-0.4,0.5-1.4,0.6-1.9c0.1-0.5,0.2-1.6,0-2c-0.2-0.4-0.9-0.8-1.1-1.1c-0.3-0.3-0.8-1-0.9-1.3c-0.2-0.5-0.4-1.6-0.4-2.1
		c0-0.5,0.2-1.3,0.4-1.8c0.2-0.7,1-1.9,1.3-2.6c0.2-0.5,0.6-1.5,0.7-2.1c0.2-0.7,0.3-2.2,0.2-2.9c0-0.9-0.4-2.8-0.5-3.8
		c-0.1-1.3-0.4-4.1-0.1-5.4c0.2-0.7,1.1-1.8,1.4-2.4c0.2-0.3,0.5-1.1,0.7-1.4c0.2-0.4,0.6-1.3,0.9-1.7c0.3-0.4,0.8-1.4,1.3-1.7
		c0.2-0.2,0.8-0.2,1.1-0.2c0.4-0.1,1.3-0.4,1.7-0.6c0.7-0.3,2.1-1.2,2.7-1.6c0.5-0.4,1.6-1.2,1.9-1.7c0.1-0.3,0-1,0-1.3
		c0-0.2-0.1-0.7,0-1c0.1-0.3,0.3-0.9,0.6-1.4c0.1,0.1,0.3,0.2,0.4,0.2c0.4,0.3,1,1,1.4,1.3c0.3,0.2,0.9,0.3,1.2,0.5
		c0.2,0.1,0.7,0.4,0.9,0.5c0.3,0.1,0.9-0.2,1.2-0.1c0.2,0,0.5,0.3,0.7,0.4c0.1,0,0.3,0.1,0.5,0.2c0,0.2,0,0.4,0,0.5
		c-0.1,0.4-0.5,1-0.7,1.3c-0.2,0.3-0.7,1-0.8,1.3c-0.1,0.5,0,1.5,0,2c0,0.4,0,1.3,0.1,1.7c0.2,0.5,0.8,1.5,1,2
		c0.2,0.4,0.6,1.3,0.9,1.7c0.2,0.4,0.7,1.3,0.8,1.8c0.1,0.4,0.1,1.4,0,1.8c-0.1,0.4-0.3,1.2-0.4,1.6c-0.1,0.4-0.4,1.2-0.4,1.6
		c0,0.7,0.2,2,0.3,2.7c0.2,0.8,0.8,2.4,1,3.2c0.2,0.8,0.6,2.3,0.9,3c0.2,0.6,0.5,1.7,0.6,2.3c0.1,0.7-0.1,2.2,0,2.9
		c0,0.6,0.3,1.9,0.4,2.6c0.1,0.7,0.2,2,0.3,2.6c0.1,0.6,0.1,1.7,0.4,2.2c0.2,0.4,0.8,1.1,1.1,1.3c0.3,0.2,1,0.4,1.3,0.7
		c0.3,0.3,0.6,1.1,0.7,1.5c0.1,0.3,0,1.1-0.1,1.4c-0.1,0.3-0.5,0.9-0.6,1.2c-0.1,0.3-0.3,1.1-0.4,1.4c-0.2,0.4-0.7,1.2-0.9,1.7
		c-0.1,0.1-0.1,0.3-0.2,0.5c-0.1,0.3-0.2,0.7-0.3,1c0,0.3,0.1,1,0.1,1.4c0.1,0.3,0.3,0.8,0.3,1.1c0.1,0.3,0.1,0.8,0.2,1.1
		c0.1,0.3,0.3,0.9,0.4,1.2c0.1,0.4,0.1,1.2,0,1.5c-0.1,0.5-0.7,1.2-1,1.6c-0.3,0.3-0.9,1-1.2,1.3c-0.3,0.3-1.1,0.7-1.5,0.9
		c-0.4,0.2-1.3,0.4-1.7,0.6c-0.5,0.3-1.4,1-1.7,1.4c-0.3,0.3-0.6,1.1-0.9,1.4c0,0-0.1,0.1-0.2,0.1c-0.4,0.3-1,0.6-1.3,0.8
		c-0.4,0.3-0.9,1-1.3,1.3C77,88.4,76,89,75.5,89.3c-0.2,0.2-0.6,0.6-0.8,0.8c-0.3,0.3-0.7,0.8-1,1c-0.2,0.1-0.6,0.3-0.8,0.3
		c-0.5,0.1-1.4-0.1-1.9,0c-0.4,0.1-1.1,0.6-1.5,0.8c-0.5,0.3-1.6,0.9-2.2,1.2c-0.2,0.1-0.7,0.5-0.9,0.6c-0.4,0.1-1.2,0-1.6,0
		c-0.4,0-1.1,0.3-1.5,0.2c-0.4-0.1-1.1-0.5-1.5-0.7c-0.2-0.1-0.7-0.5-0.9-0.6c-0.2-0.1-0.6-0.4-0.8-0.4c-0.5-0.1-1.5,0.1-2,0
		c-0.4-0.1-1.1-0.7-1.5-0.8c-0.3-0.1-1-0.1-1.3,0c-0.2,0-0.5,0.1-0.7,0.2c-0.3,0.2-0.8,0.7-1.1,1c-0.2,0.2-0.7,0.4-0.8,0.6
		c-0.1,0.3-0.1,0.9,0,1.2c0.1,0.4,0.6,1.1,0.7,1.5c0.1,0.4,0.2,1.2,0.1,1.7c-0.1,0.4-0.4,1.1-0.6,1.5c-0.2,0.4-0.5,1.3-0.7,1.8
		c-0.3,0.6-1,1.9-1.5,2.5c-0.3,0.4-1.1,1-1.5,1.3c-0.4,0.3-1.4,0.7-1.9,0.8c-0.4,0.1-1.1,0-1.5,0c-0.3,0-0.8,0-1.1,0.1
		c-0.3,0.1-0.8,0.3-1,0.5c-0.3,0.2-0.7,1-1,1.3c-0.2,0.2-0.7,0.4-0.9,0.5c-0.4,0.1-1.1,0.3-1.5,0.3c-0.5,0-1.4-0.1-1.8-0.3
		c-0.2-0.1-0.6-0.4-0.9-0.5c-0.3-0.1-1.1-0.2-1.4-0.4c-0.3-0.1-0.7-0.5-0.9-0.8c-0.4-0.4-0.9-1.4-1.2-1.9c-0.3-0.5-0.9-1.8-1.4-2.2
		c-0.3-0.2-1-0.4-1.4-0.4C31.1,101.9,30.8,101.9,30.5,101.9z"/>
	<path fill="#E2A960" stroke="#72706F" d="M150.3,77c0,0.1,0,0.1,0,0.2c-0.1,0.7-0.6,2.1-0.7,2.9c-0.2,0.8-0.4,2.5-0.5,3.4
		c-0.1,0.6-0.3,1.8-0.4,2.4c-0.3,1-1,2.9-1.4,3.8c-0.2,0.6-0.7,1.6-1.1,2.4c-0.5,0-1.3,0-1.6,0c-0.6-0.1-1.6-0.6-2.2-0.7
		c-0.4,0-1.2,0.2-1.6,0.2c-0.3,0-0.9,0-1.2,0c-0.3,0-0.8-0.2-1.1-0.2c-0.4,0-1.2,0.3-1.6,0.5c-0.3,0.1-0.8,0.3-1,0.4
		c-0.3,0.2-0.9,0.6-1.2,0.9c-0.2,0.2-0.5,0.9-0.8,1.1c-0.5,0.4-1.8,0.5-2.4,0.6c-0.4,0.1-1.1,0.4-1.5,0.5c-0.6,0.1-1.9,0.3-2.5,0.3
		c-0.4,0-1.2-0.5-1.7-0.5c-0.3-0.1-1,0-1.3,0c-0.3-0.1-0.7-0.4-0.9-0.6c-0.2-0.2-0.5-0.9-0.6-1.2c-0.2-0.4-0.7-1.1-1.1-1.5
		c-0.2-0.2-0.6-0.5-0.9-0.7c-0.2-0.1-0.6-0.2-0.8-0.2c-0.3,0-0.9,0.1-1.2,0c-0.2-0.1-0.3-0.6-0.5-0.7c-0.2-0.1-0.8-0.1-1.1,0
		c-0.2,0.1-0.4,0.6-0.5,0.8c-0.2,0.3-0.6,0.9-0.9,1.1c-0.3,0.3-1.1,0.6-1.4,0.7c-0.4,0.1-1.1,0.1-1.5,0.3c-0.1,0.1-0.3,0.3-0.5,0.4
		c0-0.2,0.1-0.4,0.1-0.5c0-0.3-0.1-1-0.3-1.3c-0.1-0.2-0.5-0.4-0.6-0.5c-0.3-0.2-1-0.2-1.2-0.5c-0.2-0.3,0-1.1-0.2-1.3
		c-0.2-0.2-0.7-0.2-1-0.1c-0.1,0.1-0.2,0.5-0.3,0.5c-0.2,0.1-0.8,0.1-1,0c-0.3-0.1-0.7-0.6-0.9-0.8c-0.2-0.1-0.6-0.3-0.8-0.4
		c-0.3-0.1-0.8-0.1-1.1-0.2c-0.2-0.1-0.4-0.6-0.6-0.8c-0.2-0.1-0.7-0.2-1-0.3c-0.2-0.1-0.6-0.5-0.8-0.7c-0.3-0.3-0.7-0.9-1-1.1
		c-0.2-0.1-0.6-0.2-0.8-0.3c-0.4-0.1-1.1-0.1-1.5,0c-0.3,0.1-0.8,0.7-1,1c-0.3,0.3-0.7,0.9-1,1.1c-0.2,0.2-0.8,0.3-1.1,0.4
		c-0.2,0.1-0.6,0.2-0.7,0.3c-0.2,0.2-0.4,0.6-0.6,0.8c-0.1,0.2-0.4,0.6-0.6,0.8c-0.1,0.1-0.4,0.4-0.6,0.4c-0.2,0.1-0.7,0.1-0.9,0.2
		c-0.3,0-0.8-0.1-1,0c-0.2,0-0.6,0.2-0.8,0.4c-0.2,0.2-0.4,0.6-0.4,0.9c-0.1,0.3-0.2,1-0.4,1.3c-0.1,0.3-0.5,0.8-0.7,1.1
		c-0.1,0.2-0.4,0.7-0.6,0.9c-0.4,0.3-1.3,0.5-1.8,0.5c-0.1,0-0.4-0.2-0.5-0.3c-0.2-0.3-0.4-1.1-0.5-1.4c-0.1-0.4,0-1.2-0.2-1.6
		c-0.1-0.2-0.6-0.5-0.8-0.7c-0.2-0.2-0.6-0.4-0.8-0.6c-0.2-0.3-0.3-0.9-0.4-1.2c-0.1-0.4-0.1-1.3-0.4-1.6c-0.1-0.2-0.5-0.5-0.7-0.6
		c-0.3-0.2-0.8-0.7-1.1-0.9c-0.4-0.2-1.1-0.3-1.5-0.4c-0.2,0-0.4-0.1-0.7-0.3c0.1,0,0.1-0.1,0.2-0.1c0.3-0.3,0.6-1.1,0.9-1.4
		c0.4-0.4,1.3-1.1,1.7-1.4c0.4-0.2,1.3-0.4,1.7-0.6c0.4-0.2,1.1-0.6,1.5-0.9c0.3-0.3,0.9-0.9,1.2-1.3c0.3-0.4,0.9-1.1,1-1.6
		c0.1-0.4,0.1-1.1,0-1.5c0-0.3-0.3-0.9-0.4-1.2c-0.1-0.3-0.1-0.8-0.2-1.1c-0.1-0.3-0.3-0.8-0.3-1.1c-0.1-0.3-0.2-1-0.1-1.4
		c0-0.2,0.1-0.6,0.3-1c0.4,0.1,0.8,0.2,1.1,0.2c0.4,0,1.2-0.2,1.6-0.1c0.6,0,1.6,0.5,2.2,0.6c0.3,0,0.9,0,1.2,0
		c0.5-0.1,1.4-0.6,1.8-0.6c0.3,0,0.9,0.1,1.2,0.1c0.3,0,1.1,0,1.4,0.1c0.3,0.1,0.8,0.5,1,0.7c0.3,0.3,0.9,0.9,1.3,1.2
		c0.2,0.1,0.5,0.3,0.7,0.4c0.3,0.2,1,0.6,1.3,0.8c0.4,0.3,1.1,0.8,1.3,1.1c0.3,0.4,0.4,1.5,0.9,1.7c0.2,0.1,0.8,0.1,1,0
		c0.3-0.1,0.6-0.7,0.9-0.9c0.4-0.3,1.2-0.8,1.6-1.1c0.2-0.1,0.4-0.3,0.6-0.5c0.2,0.3,0.4,0.6,0.5,0.8c0.2,0.2,0.7,0.6,1,0.7
		c0.3,0.2,0.8,0.5,1.1,0.6c0.3,0.1,1-0.1,1.2,0c0.2,0.1,0.3,0.6,0.5,0.7c0.2,0.1,0.8,0.1,1.1,0.1c0.3-0.1,0.9-0.6,1.2-0.7
		c0.4-0.1,1.2,0.1,1.6,0c0.4-0.1,1.1-0.7,1.5-0.9c0.5-0.3,1.7-0.9,2.1-1.4c0.3-0.3,0.7-1.3,1.1-1.6c0.4-0.3,1.3-0.5,1.8-0.5
		c0.3,0,0.9-0.1,1.2,0c0.3,0.1,0.8,0.5,1,0.6c0.2,0.1,0.6,0.2,0.7,0.4c0.2,0.3,0.2,0.9,0,1.2c-0.1,0.2-0.5,0.3-0.6,0.4
		c-0.1,0.2-0.3,0.5-0.4,0.7c-0.1,0.3-0.1,1.1-0.2,1.4c-0.1,0.3-0.3,1-0.4,1.3c-0.1,0.4-0.2,1.2,0,1.5c0.1,0.2,0.6,0.3,0.7,0.4
		c0.3,0.4,0.4,1.3,0.7,1.7c0.1,0.2,0.5,0.5,0.7,0.7c0.3,0.2,0.9,0.4,1.2,0.4c0.3,0,1-0.3,1.3-0.6c0.2-0.2,0.3-0.7,0.4-0.9
		c0.1-0.2,0.3-0.5,0.5-0.7c0.2-0.2,0.6-0.3,0.8-0.5c0.2-0.1,0.3-0.6,0.5-0.7c0.1-0.1,0.4-0.3,0.5-0.4c0.3-0.1,1.2-0.2,1.3-0.4
		c0.1-0.1,0.6-0.5,0.9-0.6c0.4-0.1,1.3,0,1.7,0.1c0.4,0.1,1.2,0.4,1.6,0.5c0.4,0.1,1.2,0.1,1.6,0c0.3-0.1,0.6-0.7,0.9-0.9
		c0.3-0.2,1-0.3,1.4-0.5c0.2-0.1,0.8-0.2,1-0.3c0.3-0.2,0.6-0.8,0.8-1.1c0.1-0.2,0.4-0.6,0.5-0.9c0.2-0.2,0.5-0.7,0.7-0.9
		c0.2-0.1,0.7,0,1,0c0.3,0,0.8,0,1.1,0c0.3,0,0.8,0.2,1,0.3c0.3,0.2,0.6,0.8,0.9,1c0.2,0.2,0.7,0.4,0.9,0.4
		C149.2,77,149.8,77,150.3,77z"/>
	<path fill="#E2A960" stroke="#72706F" d="M150.5,73c0,0.5,0.1,1.6,0.1,2.1c0,0.5-0.2,1.4-0.3,1.9c-0.5,0-1.1,0-1.4,0
		c-0.2-0.1-0.7-0.3-0.9-0.4c-0.3-0.2-0.6-0.8-0.9-1c-0.2-0.1-0.7-0.3-1-0.3c-0.3,0-0.8,0-1.1,0c-0.2,0-0.8-0.1-1,0
		c-0.3,0.1-0.5,0.6-0.7,0.9c-0.1,0.2-0.4,0.6-0.5,0.9c-0.2,0.3-0.5,0.9-0.8,1.1c-0.2,0.2-0.7,0.2-1,0.3c-0.3,0.1-1.1,0.3-1.4,0.5
		c-0.3,0.2-0.6,0.8-0.9,0.9c-0.4,0.1-1.2,0.1-1.6,0c-0.4-0.1-1.2-0.4-1.6-0.5c-0.4-0.1-1.3-0.2-1.7-0.1c-0.3,0.1-0.8,0.5-0.9,0.6
		c-0.1,0.1-1,0.2-1.3,0.4c-0.1,0.1-0.4,0.2-0.5,0.4c-0.1,0.2-0.3,0.6-0.5,0.7c-0.2,0.2-0.6,0.3-0.8,0.5c-0.2,0.1-0.4,0.5-0.5,0.7
		c-0.1,0.2-0.2,0.7-0.4,0.9c-0.2,0.2-0.9,0.6-1.3,0.6c-0.3,0-0.9-0.3-1.2-0.4c-0.2-0.1-0.6-0.5-0.7-0.7c-0.3-0.4-0.4-1.4-0.7-1.7
		c-0.1-0.2-0.6-0.2-0.7-0.4c-0.2-0.3-0.1-1.1,0-1.5c0-0.3,0.3-1,0.4-1.3c0.1-0.4,0.1-1.1,0.2-1.4c0.1-0.2,0.3-0.6,0.4-0.7
		c0.1-0.1,0.5-0.2,0.6-0.4c0.1-0.3,0.1-0.9,0-1.2c-0.1-0.2-0.6-0.3-0.7-0.4c-0.3-0.2-0.7-0.6-1-0.6c-0.3-0.1-0.9,0-1.2,0
		c-0.5,0.1-1.4,0.3-1.8,0.5c-0.4,0.3-0.8,1.3-1.1,1.6c-0.5,0.4-1.6,1-2.1,1.4c-0.4,0.2-1.1,0.8-1.5,0.9c-0.4,0.1-1.2-0.1-1.6,0
		c-0.3,0.1-0.9,0.6-1.2,0.7c-0.3,0.1-0.9,0.1-1.1-0.1c-0.2-0.1-0.3-0.6-0.5-0.7c-0.3-0.1-0.9,0.1-1.2,0c-0.3-0.1-0.8-0.4-1.1-0.6
		c-0.3-0.2-0.8-0.5-1-0.7c-0.1-0.1-0.3-0.5-0.5-0.8c0.3-0.3,0.7-0.6,0.9-0.9c0.3-0.3,0.7-1,0.9-1.4c0.1-0.3,0.1-1,0.1-1.4
		c-0.1-0.4-0.6-1-0.8-1.4c-0.2-0.4-0.5-1.2-0.6-1.6c-0.1-0.5-0.1-1.6,0-2.1c0.1-0.5,0.6-1.3,0.8-1.7c0.2-0.5,0.4-1.4,0.6-1.9
		c0.1-0.2,0.3-0.6,0.4-1c0.1,0,0.2,0,0.3,0c0.2,0,0.7-0.1,0.9,0c0.3,0.1,0.9,0.6,1.2,0.7c0.3,0.2,1,0.5,1.4,0.6c0.3,0,0.9,0,1.2-0.1
		c0.3-0.1,0.6-0.5,0.9-0.7c0.3-0.2,1-0.6,1.1-0.6c0.1,0,0.8-0.2,1.1-0.4c0.3-0.2,0.6-0.9,0.8-1.2c0.2-0.2,0.6-0.7,0.7-0.7
		c0.1,0,0.8-0.3,1-0.4c0.5-0.1,1.4-0.4,1.9-0.5c0.3,0,1-0.2,1.3,0c0.3,0.1,0.6,0.7,0.7,1c0,0.2-0.3,0.6-0.4,0.8
		c-0.1,0.2-0.3,0.6-0.5,0.8c-0.1,0.2-0.5,0.4-0.6,0.5c-0.2,0.2-0.4,0.8-0.5,1.1c-0.1,0.2-0.2,0.7-0.3,1c-0.1,0.2-0.6,0.6-0.6,0.9
		c0,0.2,0.3,0.7,0.5,0.8c0.2,0.1,0.6,0.1,0.7,0.2c0.4,0.2,1.2,0.9,1.7,1c0.3,0.1,1,0,1.3-0.1c0.2-0.1,0.4-0.5,0.6-0.6
		c0.4-0.1,1.2-0.1,1.5,0c0.3,0.1,0.8,0.5,0.9,0.7c0.2,0.3,0.4,1,0.5,1.3c0.1,0.3,0.3,0.9,0.5,1c0.3,0.2,1,0.2,1.2,0
		c0.2-0.1,0.4-0.7,0.4-0.9c0.1-0.4,0.2-1.1,0.3-1.5c0.1-0.4,0.4-1.1,0.5-1.4c0.1-0.3,0.4-0.9,0.4-1.2c0-0.3-0.1-0.9,0-1.1
		c0.1-0.2,0.5-0.5,0.8-0.6c0.2-0.1,0.7-0.1,0.9,0c0.4,0.2,0.9,1.1,1.3,1.4c0.2,0.2,0.8,0.6,1.1,0.7c0.4,0.1,1.3,0.1,1.7,0.1
		c0.5,0,1.6,0,2.1,0c0.5,0,1.4-0.3,1.9-0.2c0.5,0,1.6,0.3,2.1,0.5c0.4,0.2,1,0.9,1.4,1c0.4,0.1,1.3,0.1,1.7,0c0.2,0,0.5-0.1,0.9-0.2
		c0.1,0.3,0.1,0.6,0.1,0.9c0,0.3,0,1.1,0,1.4c0,0.4,0.1,1.1,0.2,1.5c0.1,0.5,0.6,1.3,0.8,1.8C150.5,71.5,150.4,72.5,150.5,73z"/>
	<path fill="#E2A960" stroke="#72706F" d="M75.8,19.6c-0.2,0.5-0.5,1.1-0.6,1.4c-0.1,0.2,0,0.7,0,1c0,0.3,0.1,1,0,1.3
		c-0.3,0.6-1.4,1.4-1.9,1.7c-0.6,0.5-2,1.3-2.7,1.6c-0.4,0.2-1.2,0.5-1.7,0.6c-0.3,0.1-0.9,0.1-1.1,0.2c-0.4,0.3-1,1.2-1.3,1.7
		c-0.3,0.4-0.7,1.2-0.9,1.7c-0.2,0.4-0.5,1.1-0.7,1.4c-0.3,0.6-1.2,1.7-1.4,2.4c-0.3,1.3,0,4,0.1,5.4c0.1,0.9,0.5,2.8,0.5,3.8
		c0,0.7-0.1,2.2-0.2,2.9c-0.1,0.5-0.5,1.6-0.7,2.1c-0.3,0.7-1.1,1.9-1.3,2.6c-0.1,0.4-0.3,1.3-0.4,1.8c0,0.5,0.2,1.6,0.4,2.1
		c0.2,0.4,0.7,1,0.9,1.3c0.3,0.3,1,0.7,1.1,1.1c0.2,0.5,0.1,1.5,0,2c-0.1,0.5-0.3,1.5-0.6,1.9c-0.2,0.4-1,0.9-1.3,1.1
		c-0.3,0.2-0.9,0.4-1.2,0.5c-0.6,0.1-1.9-0.3-2.6-0.3c-0.4,0-1.1,0.2-1.5,0.2c-0.3,0-0.8-0.1-1-0.1c-0.3-0.1-0.9-0.7-1.2-0.8
		c-0.3-0.1-1-0.2-1.3-0.2c-0.5,0.1-1.3,0.7-1.7,1c-0.4,0.3-0.9,1-1.3,1.3c-0.4,0.4-1.2,1.1-1.6,1.5c-0.4,0.3-1.3,0.9-1.8,1.2
		c-0.5,0.4-1.6,1.3-2.1,1.7c-0.4,0.2-1.1,0.6-1.5,0.7c-0.2,0.1-0.7-0.1-1,0c-0.3,0.1-0.7,0.4-0.9,0.6c-0.2,0.1-0.6,0.5-0.8,0.6
		c-0.3,0.1-0.8,0.4-1.1,0.5c-0.4,0.1-1.3,0.2-1.7,0.4c-0.4,0.1-1.1,0.5-1.5,0.7c-0.3,0.2-0.8,0.6-1.1,0.9c-0.3,0.3-0.8,1.1-0.9,1.6
		c-0.1,0.4,0.1,1.4,0,1.8C34,77,33.5,78,33.2,78.5c-0.2,0.5-0.7,1.3-1,1.8c-0.2,0.5-0.7,1.4-1,1.8c-0.2,0.4-0.4,1.3-0.6,1.7
		c-0.1,0.3-0.6,0.8-0.6,1.1c-0.1,0.5,0,1.6,0,2.2c0,0.5-0.1,1.4-0.1,1.8c0,0.5-0.2,1.4,0,1.9c0.1,0.3,0.7,0.7,0.8,1
		c0.1,0.4,0,1.2,0,1.6c0,0.4-0.2,1.1-0.3,1.5c-0.1,0.8-0.3,2.4-0.5,3.2c-0.1,0.6-0.2,2-0.4,2.6c-0.1,0.3-0.3,0.7-0.5,1.2
		c-0.2,0-0.3-0.1-0.5-0.1c-0.3-0.1-0.9-0.2-1.1-0.3c-0.3-0.2-0.6-0.8-0.9-1c-0.3-0.2-0.8-0.4-1.1-0.5c-0.4-0.1-1.2-0.2-1.5-0.5
		c-0.2-0.2-0.2-0.9-0.3-1.1c-0.2-0.4-0.6-1-0.8-1.3c-0.2-0.2-0.7-0.6-0.8-0.9c-0.1-0.3-0.3-0.8-0.3-1.1c0-0.2,0.2-0.6,0.3-0.7
		c0.1-0.2,0.4-0.7,0.4-0.9c0-0.2-0.3-0.7-0.5-0.9c-0.2-0.2-0.8-0.2-1-0.3c-0.3-0.2-0.7-0.8-0.8-1.1c-0.1-0.2-0.1-0.6-0.1-0.8
		c0-0.3,0-0.9-0.1-1.3c-0.1-0.2-0.2-0.7-0.3-0.8c-0.2-0.2-0.7-0.1-0.9-0.2c-0.2-0.1-0.5-0.6-0.6-0.9c-0.1-0.3-0.1-0.9,0-1.1
		c0.1-0.3,0.7-0.6,0.9-0.9c0.2-0.3,0.4-0.8,0.5-1.1c0.1-0.3,0-1.1,0.1-1.4c0.1-0.3,0.3-0.9,0.5-1.2c0.3-0.3,1.1-0.6,1.5-0.7
		c0.3-0.1,1-0.3,1.3-0.4c0.3-0.2,0.9-0.5,1.1-0.8c0.2-0.4,0.1-1.2,0.1-1.6c0-0.3-0.1-0.9-0.1-1.2c-0.1-0.3-0.3-0.9-0.4-1.1
		c-0.1-0.2-0.4-0.5-0.7-0.6c-0.4-0.2-1.4,0-1.9,0.1c-0.3,0.1-0.8,0.6-1.1,0.7c-0.3,0.1-0.9,0.1-1.2,0c-0.4-0.1-1.1-0.4-1.4-0.6
		c-0.3-0.3-0.7-1-0.9-1.3c-0.3-0.4-0.7-1.2-1-1.5c-0.3-0.4-1.2-0.9-1.5-1.3c-0.2-0.3-0.5-0.9-0.6-1.2c-0.1-0.3-0.1-0.8-0.2-1
		c-0.1-0.2-0.4-0.7-0.6-0.8c-0.2-0.1-0.7-0.1-0.9-0.3c-0.2-0.2-0.6-0.8-0.6-1.1c0-0.3,0.2-0.8,0.3-1c0.2-0.2,0.8-0.3,1-0.4
		c0.3-0.2,0.8-0.7,0.9-1c0.1-0.3,0.1-1.1,0.1-1.4c0-0.4,0.1-1.1,0.2-1.4c0-0.3,0.1-1.1,0.1-1.4c0.1-0.5,0.4-1.4,0.5-1.8
		c0.1-0.3,0.4-0.7,0.4-1c0-0.4-0.3-1.1-0.4-1.4c-0.1-0.2-0.2-0.5-0.3-0.6c0-0.4,0.4-1.1,0.4-1.5c0-0.3,0.1-0.8,0-1
		c-0.1-0.4-0.6-1-0.6-1.4c-0.1-0.4,0.1-1.1,0-1.5c-0.1-0.4-0.5-1-0.8-1.3c-0.2-0.2-0.6-0.8-0.9-0.9c-0.2-0.1-0.6,0-0.7,0
		c-0.4-0.1-1.1-0.4-1.3-0.7c-0.2-0.2-0.3-0.7-0.5-0.9c-0.1-0.2-0.4-0.5-0.6-0.6C8.6,45.1,8.2,45,8,45c-0.4,0-1.2,0.3-1.5,0.2
		c-0.3-0.1-0.8-0.5-1.1-0.6c-0.3-0.1-1,0-1.3,0c-0.4,0-1.3,0.1-1.7,0.3c-0.3,0.1-0.8,0.5-1,0.7c-0.1,0.1-0.3,0.3-0.5,0.5
		c-0.2-0.2-0.3-0.4-0.4-0.5c-0.1-0.3,0.3-1,0.5-1.3c0.3-0.4,0.9-1.2,1.3-1.5c0.5-0.3,1.5-0.7,2-1c0.6-0.3,1.6-1.2,2.2-1.6
		c0.4-0.3,1.2-1.1,1.7-1.4c0.4-0.2,1.2-0.5,1.6-0.6c0.4-0.2,1.1-0.6,1.5-0.8c0.2-0.1,0.6-0.4,0.8-0.5c0.4-0.3,1.1-1.1,1.5-1.5
		c0.3-0.3,1-0.8,1.2-1.1c0.2-0.3,0.1-0.9,0.3-1.2c0.1-0.3,0.5-1,0.8-1.2c0.3-0.3,1.1-0.4,1.4-0.7c0.3-0.3,0.9-1,1.1-1.4
		c0.2-0.3,0.2-1.1,0.3-1.5c0.1-0.4,0.3-1.3,0.4-1.8c0.2-0.5,0.8-1.5,1.2-2c0.2-0.3,0.7-1,1-1.3c0.3-0.3,1-0.9,1.2-1.3
		c0.2-0.3,0.4-1.1,0.5-1.5c0.1-0.6,0-1.9,0.2-2.4c0.2-0.4,0.8-1.1,1.1-1.5c0.2-0.3,0.5-0.8,0.7-1.1c0.2-0.3,0.6-0.8,0.8-1.2
		c0.2-0.4,0.3-1.2,0.5-1.6c0.1-0.3,0.5-0.8,0.7-1.1c0.1-0.2,0.5-0.6,0.6-0.8c0.2-0.4,0.3-1.3,0.4-1.7c0.1-0.4,0.4-1.3,0.4-1.7
		c0-0.3-0.3-0.9-0.2-1.3c0-0.3,0.4-0.7,0.5-0.9c0.2-0.5,0.2-1.5,0.3-2.1c0.1-0.3,0.4-1,0.4-1.3c0-0.2,0.1-0.7,0.1-1.1
		c0.2-0.1,0.4-0.2,0.5-0.2c0.2,0,0.6,0,0.8,0.1c0.2,0.1,0.3,0.6,0.5,0.7c0.1,0.1,0.5,0,0.6,0c0.2,0,0.6,0.3,0.8,0.3s0.6-0.2,0.8-0.2
		c0.1,0,0.2,0.3,0.2,0.4c0.1,0.3-0.2,0.9,0,1.1c0.2,0.2,0.8,0.1,1.1,0.1c0.2-0.1,0.4-0.5,0.7-0.6c0.2,0,0.5,0,0.7,0.1
		c0.1,0.1,0,0.5,0,0.7c0,0.2-0.1,0.7,0,0.9c0,0.1,0.2,0.4,0.4,0.4c0.2,0,0.1-0.6,0.2-0.7c0.1-0.2,0.5-0.5,0.7-0.7
		C37.3,3,37.8,2.8,38,3c0.2,0.1,0.3,0.6,0.2,0.8c-0.1,0.3-0.6,0.6-0.7,0.9c-0.1,0.3-0.1,1-0.1,1.3c0,0.2,0,0.6,0.1,0.8
		c0.1,0.2,0.5,0.6,0.7,0.6c0.2,0,0.4-0.5,0.5-0.7c0.1-0.2,0.1-0.6,0.2-0.8c0.1-0.3,0.6-0.8,0.8-1.1c0.2-0.2,0.5-0.5,0.8-0.5
		c0.2,0,0.6,0.2,0.8,0.3c0.2,0.1,0.7,0.4,0.9,0.3c0.2-0.1,0.2-0.6,0.4-0.8c0.1-0.1,0.5-0.1,0.6,0c0.1,0.1,0,0.5,0,0.7
		c-0.1,0.2-0.5,0.6-0.5,0.8c0,0.2,0.4,0.4,0.5,0.5c0.2,0.2,0.8,0.5,1,0.7c0.2,0.2,0.6,0.7,0.7,0.9c0.2,0.2,0.5,0.8,0.8,1
		c0.2,0.1,0.7,0.2,0.8,0.4c0.2,0.3,0.2,1,0.1,1.3c0,0.3-0.2,0.9-0.4,1.1c-0.2,0.3-0.8,0.6-1,0.8c-0.3,0.2-0.9,0.4-1.1,0.6
		c-0.2,0.2-0.5,0.9-0.3,1.2c0.1,0.2,0.6,0.1,0.7,0.2c0.1,0.1,0.2,0.5,0.4,0.5c0.2,0,0.5-0.4,0.6-0.5c0.2-0.3,0.2-0.9,0.3-1.1
		c0.2-0.2,0.7-0.5,1-0.6c0.2-0.1,0.6-0.1,0.7-0.1c0.2,0.1,0.4,0.6,0.4,0.8c0.1,0.3,0.2,0.9,0.1,1.1c-0.1,0.2-0.5,0.5-0.7,0.6
		c-0.2,0.1-0.6-0.3-0.8-0.2c-0.2,0.1-0.6,0.4-0.7,0.7c-0.1,0.2-0.1,0.7-0.1,0.9c-0.1,0.3-0.2,0.8-0.4,1c-0.1,0.3-0.5,0.7-0.6,1
		c-0.1,0.2-0.2,0.8-0.2,1c-0.1,0.5,0,1.5-0.1,1.9c-0.1,0.3-0.3,1-0.4,1.3c-0.1,0.2-0.4,0.6-0.4,0.8c-0.1,0.2-0.2,0.7-0.1,1
		c0,0.1,0.2,0.3,0.4,0.4c0.2,0,0.6-0.4,0.8-0.6c0.2-0.2,0.4-0.8,0.5-1c0.2-0.2,0.7-0.4,0.8-0.5c0.2-0.2,0.5-0.7,0.7-1
		c0.2-0.2,0.5-0.6,0.6-0.9c0.2-0.3,0.4-1.1,0.5-1.5c0.1-0.3-0.1-1,0-1.4c0.1-0.5,0.4-1.4,0.7-1.7c0.2-0.3,0.9-0.6,1.3-0.7
		c0.2-0.1,0.7-0.1,1,0c0.2,0.1,0.4,0.4,0.5,0.6c0.1,0.2,0.1,0.7,0,0.9c-0.1,0.2-0.6,0.5-0.9,0.6c-0.2,0.2-0.8,0.4-1,0.6
		c-0.1,0.2-0.1,0.7,0,0.9c0.1,0.2,0.3,0.5,0.4,0.6c0.1,0.1,0.5,0.2,0.7,0.1c0.2-0.1,0.5-0.4,0.6-0.6c0.1-0.2,0.2-0.6,0.3-0.8
		c0.2-0.2,0.8-0.5,1.1-0.6c0.3-0.2,1-0.4,1.3-0.5c0.2-0.1,0.5-0.5,0.7-0.6c0.2-0.1,0.8-0.2,1.1-0.2c0.2,0,0.5,0.4,0.7,0.4
		c0.1,0,0.3-0.2,0.4-0.3c0.1-0.1,0.2-0.5,0.3-0.5c0.2,0,0.4,0.3,0.5,0.4c0.1,0.1,0.4,0.3,0.5,0.3c0.1,0,0.4-0.3,0.4-0.4
		c0.1-0.2,0-0.6,0-0.8c0-0.2,0.2-0.5,0.3-0.5c0.3-0.2,1-0.3,1.3-0.3c0.4,0,1.1,0.2,1.5,0.3c0.5,0.2,1.2,0.9,1.6,1.2
		c0.3,0.2,1,0.4,1.4,0.5c0.4,0.1,1.1,0.4,1.4,0.6c0.3,0.2,0.6,0.9,0.9,1c0.4,0.2,1.3,0.2,1.8,0.4c0.4,0.1,1.1,0.6,1.4,0.8
		c0.3,0.1,1.1,0.3,1.5,0.4c0.4,0.1,1.1,0.4,1.5,0.5c0.3,0.1,0.8,0.5,1.1,0.4c0.2-0.1,0.3-0.7,0.5-0.8c0.2-0.2,0.6-0.4,0.8-0.4
		C75.5,19.5,75.7,19.5,75.8,19.6z"/>
	<path fill="#E2A960" stroke="#72706F" d="M25.5,128.9c0.1-0.4,0.4-1,0.4-1.4c0-0.3-0.2-1-0.4-1.3c-0.2-0.4-0.8-1-0.9-1.3
		c-0.2-0.4-0.3-1.3-0.3-1.8c0-0.4,0-1.1,0.2-1.4c0.1-0.3,0.7-0.7,0.9-0.9c0.2-0.1,0.7,0,0.9-0.2c0.1-0.1,0.3-0.5,0.3-0.7
		c0-0.2-0.1-0.6-0.2-0.7c-0.1-0.1-0.5-0.2-0.6-0.3c-0.1-0.1-0.1-0.5,0-0.6c0-0.1,0.2-0.4,0.2-0.5c0.1-0.2,0.5-0.4,0.6-0.6
		c0.1-0.2,0.1-0.6,0.1-0.7c0-0.2-0.2-0.7-0.4-0.9c-0.2-0.1-0.7,0.1-0.9,0c-0.3-0.1-0.9-0.5-1.2-0.7c-0.3-0.2-0.7-0.8-0.9-1
		c-0.2-0.1-0.6-0.3-0.7-0.5c-0.1-0.2-0.1-0.8,0-1.1c0.1-0.4,0.3-1.1,0.5-1.4c0.2-0.3,0.9-0.7,1.1-0.9c0.2-0.2,0.5-0.8,0.6-1.1
		c0.1-0.3-0.1-1.1,0-1.4c0.1-0.2,0.5-0.6,0.6-0.8c0.1-0.2,0.3-0.7,0.4-0.9c0.1-0.2,0.5-0.4,0.6-0.5c0.3-0.2,0.9-0.5,1.1-0.7
		c0.3-0.2,0.9-0.7,1.3-0.9c0.2,0,0.5,0.1,0.7,0c0.2-0.1,0.5-0.4,0.6-0.6c0.1-0.2,0.1-0.8,0.2-1c0-0.1,0.1-0.3,0.2-0.4
		c0.3,0,0.6,0,0.7,0.1c0.4,0.1,1.1,0.2,1.4,0.4c0.5,0.4,1.1,1.6,1.4,2.2c0.3,0.5,0.8,1.5,1.2,1.9c0.2,0.2,0.7,0.6,0.9,0.8
		c0.3,0.2,1,0.2,1.4,0.4c0.2,0.1,0.6,0.4,0.9,0.5c0.4,0.2,1.4,0.3,1.8,0.3c0.4,0,1.1-0.1,1.5-0.3c0.3-0.1,0.7-0.3,0.9-0.5
		c0.3-0.3,0.7-1,1-1.3c0.2-0.2,0.8-0.4,1-0.5c0.3-0.1,0.8-0.1,1.1-0.1c0.4,0,1.1,0.1,1.5,0c0.5-0.1,1.5-0.5,1.9-0.8
		c0.4-0.3,1.2-0.9,1.5-1.3c0.5-0.6,1.2-1.8,1.5-2.5c0.2-0.4,0.5-1.3,0.7-1.8c0.1-0.4,0.5-1.1,0.6-1.5c0.1-0.4,0-1.3-0.1-1.7
		c-0.1-0.4-0.6-1.1-0.7-1.5c-0.1-0.3-0.1-0.9,0-1.2c0.1-0.2,0.6-0.5,0.8-0.6c0.3-0.2,0.8-0.8,1.1-1c0.2-0.1,0.5-0.2,0.7-0.2
		c0.3-0.1,1-0.1,1.3,0c0.4,0.1,1.1,0.7,1.5,0.8c0.5,0.1,1.5-0.1,2,0c0.2,0.1,0.6,0.3,0.8,0.4c0.2,0.1,0.7,0.5,0.9,0.6
		c0.4,0.2,1.1,0.6,1.5,0.7c0.4,0.1,1.1-0.2,1.5-0.2c0.4,0,1.2,0.1,1.6,0c0.3-0.1,0.7-0.4,0.9-0.6c0.5-0.3,1.6-0.9,2.2-1.2
		c0.4-0.2,1.1-0.7,1.5-0.8c0.5-0.1,1.4,0.1,1.9,0c0.2,0,0.6-0.2,0.8-0.3c0.3-0.2,0.8-0.8,1-1c0.2-0.2,0.6-0.6,0.8-0.8
		C76,89,77,88.4,77.4,88c0.4-0.3,0.9-1.1,1.3-1.3c0.3-0.2,0.9-0.5,1.3-0.8c0.3,0.1,0.5,0.2,0.7,0.3c0.4,0.1,1.2,0.2,1.5,0.4
		c0.3,0.2,0.9,0.6,1.1,0.9c0.2,0.2,0.6,0.4,0.7,0.6c0.2,0.4,0.3,1.2,0.4,1.6c0.1,0.3,0.2,0.9,0.4,1.2c0.1,0.2,0.6,0.5,0.8,0.6
		c0.2,0.2,0.7,0.5,0.8,0.7c0.2,0.3,0.1,1.2,0.2,1.6c0.1,0.4,0.3,1.2,0.5,1.4c0.1,0.1,0.4,0.3,0.5,0.3c0.5,0.1,1.4-0.2,1.8-0.5
		c0.2-0.2,0.4-0.7,0.6-0.9c0.2-0.3,0.5-0.8,0.7-1.1c0.1-0.3,0.2-1,0.4-1.3c0.1-0.2,0.3-0.7,0.4-0.9c0.2-0.2,0.6-0.3,0.8-0.4
		c0.3-0.1,0.8,0,1,0c0.2,0,0.7-0.1,0.9-0.2c0.2-0.1,0.5-0.3,0.6-0.4c0.2-0.2,0.5-0.6,0.6-0.8c0.2-0.2,0.4-0.7,0.6-0.8
		c0.2-0.1,0.5-0.3,0.7-0.3c0.3-0.1,0.8-0.2,1.1-0.4c0.3-0.2,0.7-0.8,1-1.1c0.2-0.3,0.7-0.8,1-1c0.3-0.1,1.1-0.1,1.5,0
		c0.2,0,0.6,0.1,0.8,0.3c0.3,0.2,0.7,0.8,1,1.1c0.2,0.2,0.6,0.6,0.8,0.7c0.2,0.1,0.8,0.1,1,0.3c0.2,0.1,0.4,0.6,0.6,0.8
		c0.2,0.1,0.8,0.1,1.1,0.2c0.2,0.1,0.6,0.3,0.8,0.4c0.3,0.2,0.6,0.7,0.9,0.8c0.2,0.1,0.8,0.1,1,0c0.1-0.1,0.2-0.5,0.3-0.5
		c0.2-0.1,0.8,0,1,0.1c0.2,0.2,0,1,0.2,1.3c0.2,0.2,0.9,0.3,1.2,0.5c0.2,0.1,0.5,0.3,0.6,0.5c0.2,0.3,0.2,1,0.3,1.3
		c0,0.1,0,0.3-0.1,0.5c-0.1,0.3-0.2,0.7-0.2,0.9c0,0.3,0.3,1,0.5,1.2c0.1,0.1,0.4,0.2,0.5,0.2c0.2,0.1,0.6,0.2,0.8,0.4
		c0.1,0.1,0.2,0.5,0.2,0.7c0,0,0,0.1,0,0.1c0.1,0.6,0.1,1.8,0.2,2.3c0.1,0.2,0.2,0.6,0.3,0.9c0.2,0.5,0.9,1.5,1.1,2
		c0.3,0.7,1.1,2.3,1.1,3.1c0,0.6-0.4,1.9-0.7,2.5c-0.2,0.5-0.6,1.4-1,1.7c-0.3,0.3-1.2,0.5-1.7,0.6c-0.2,0-0.5-0.1-0.7,0
		c-0.4,0.2-0.9,1-1.1,1.4c-0.1,0.3-0.1,1.1,0,1.4c0.1,0.4,0.7,1,0.9,1.4c0.2,0.4,0.6,1.4,0.7,1.9c0.2,0.5,0.2,1.7,0.6,2.2
		c0.3,0.4,1.2,0.9,1.7,1.1c0.5,0.2,1.6,0,2.1,0c0.3,0,0.9,0,1.4,0c0,0.2,0,0.4,0,0.5c0.1,0.1,0.4,0.2,0.4,0.3c0.1,0.1,0,0.4,0,0.5
		c-0.1,0.2-0.4,0.5-0.5,0.7c-0.2,0.3-0.7,1-0.9,1.3c-0.3,0.4-0.7,1.4-0.9,1.8c-0.2,0.4-0.5,1.4-0.7,1.8c-0.3,0.5-1,1.4-1.4,1.8
		c-0.5,0.6-1.4,1.9-1.8,2.5c-0.4,0.6-1.2,1.7-1.7,2.3c-0.4,0.4-1.1,1.2-1.5,1.5c-0.3,0.3-1,1-1.4,1.3c-0.4,0.2-1.2,0.6-1.6,0.5
		c-0.3,0-0.7-0.4-0.9-0.6c-0.2-0.3-0.5-0.9-0.4-1.2c0-0.2,0.2-0.5,0.3-0.7c0.1-0.2,0.2-0.7,0.2-0.9c0-0.3-0.1-0.9-0.3-1.1
		c-0.2-0.2-0.8-0.2-1,0c-0.2,0.2-0.1,0.8-0.2,1.1c0,0.2-0.1,0.5-0.2,0.6c-0.2,0.1-0.7,0.1-0.8-0.1c-0.1-0.1,0-0.3-0.1-0.5
		c0-0.1-0.1-0.4-0.2-0.4c-0.1-0.1-0.4-0.1-0.5-0.1c-0.1,0.1-0.2,0.5-0.2,0.6c0,0.2-0.1,0.5,0,0.7c0.1,0.2,0.3,0.5,0.4,0.6
		c0.2,0.1,0.6,0.1,0.8,0.3c0.2,0.1,0.4,0.5,0.4,0.8c0,0.2-0.2,0.6-0.4,0.8c-0.2,0.1-0.7,0.1-0.8,0.3c-0.1,0.2,0,0.6,0,0.9
		c0,0.2-0.3,0.7-0.4,0.9c-0.2,0.3-0.5,0.8-0.8,1c-0.2,0.2-0.8,0.6-1,0.8c-0.2,0.2-0.5,0.7-0.5,0.9c0,0.3,0.2,0.8,0.4,1
		c0.1,0.1,0.5,0.2,0.6,0.4c0.2,0.3,0.2,0.9,0.1,1.2c-0.1,0.2-0.6,0.5-0.7,0.7c-0.1,0.2-0.4,0.5-0.4,0.7c0,0.2,0.2,0.7,0.3,0.9
		c0,0.1,0.1,0.4,0.2,0.5c0.2,0.1,0.5-0.3,0.6-0.3c0.2,0.1,0.3,0.6,0.4,0.8c0,0.2,0.1,0.7,0,0.8c-0.1,0.1-0.4,0.2-0.5,0.2
		c-0.2,0-0.4-0.4-0.5-0.4c-0.1,0-0.3,0.2-0.4,0.4c-0.1,0.2-0.3,0.5-0.2,0.7c0.1,0.2,0.5,0.4,0.7,0.6c0.2,0.3,0.3,1,0.2,1.4
		c0,0.3-0.4,0.8-0.5,1c-0.1,0.4-0.3,1.2-0.3,1.6c-0.1,0.7-0.2,2.2-0.2,3c0,0.6,0.1,1.9,0.2,2.5c0,0.8,0.1,2.3,0.2,3
		c0.1,0.8,0.2,2.5,0.3,3.4c0.1,0.6,0.5,1.9,0.4,2.6c-0.1,0.7-0.7,1.9-0.9,2.5c-0.3,0.8-0.8,2.4-1.1,3.3c-0.4,1.1-1.2,3.3-1.5,4.4
		c-0.2,0.8-0.4,2.3-0.6,3.1c-0.2,0.6-0.7,1.8-0.8,2.4c-0.1,0.6-0.1,1.9,0,2.6c0.1,0.4,0.5,1.2,0.4,1.7c0,0.3-0.3,0.9-0.5,1.1
		c-0.2,0.4-0.9,1-1.2,1.3c-0.5,0.4-1.5,1-2,1.4c-0.5,0.4-1.3,1.4-1.7,1.9c-0.1,0.1-0.2,0.3-0.2,0.5c-0.3-0.3-0.8-0.7-1-0.8
		c-0.2-0.2-0.7-0.4-1-0.5c-0.4-0.3-1.3-0.8-1.6-1.1c-0.2-0.2-0.5-0.8-0.7-1c-0.3-0.2-1-0.4-1.4-0.5c0-0.4,0-1.2,0-1.5
		c-0.1-0.6-0.6-1.8-0.9-2.3c-0.2-0.5-1-1.2-1.2-1.7c-0.2-0.3-0.4-1-0.5-1.4c-0.1-0.6-0.1-1.9,0-2.5c0-0.4,0.2-1.1,0.3-1.5
		c0.2-0.4,0.7-1,1-1.3c0.3-0.3,1.3-0.6,1.6-1c0.2-0.3,0.3-1.1,0.5-1.5c0.2-0.5,0.9-1.3,1.2-1.7c0.2-0.2,0.6-0.6,0.8-0.7
		c0.3-0.3,0.9-0.8,1.1-1.1c0.3-0.4,0.8-1.1,0.9-1.6c0.1-0.5-0.2-1.5-0.4-2c-0.1-0.3-0.6-0.9-0.9-1.1c-0.2-0.2-0.8-0.5-1-0.6
		c-0.2-0.1-0.7-0.3-1-0.4c-0.3-0.1-1-0.3-1.4-0.4c-0.3-0.1-0.8-0.3-1.1-0.4c-0.4-0.2-1.2-0.6-1.6-0.8c-0.4-0.2-1.1-0.6-1.5-0.7
		c-0.3-0.1-0.8-0.2-1.1-0.3c-0.2,0-0.6-0.1-0.8,0c-0.2,0.1-0.5,0.5-0.8,0.6c-0.3,0.1-0.9,0.3-1.2,0.3c-0.2,0-0.6-0.1-0.8-0.2
		c-0.2-0.1-0.6-0.4-0.7-0.6c-0.3-0.3-0.7-1-0.9-1.4c-0.1-0.3-0.2-1.1-0.3-1.4c-0.2-0.4-0.8-1-1-1.3c-0.2-0.3-0.7-0.9-1-1.1
		c-0.2-0.2-0.8-0.4-1-0.5c-0.2-0.1-0.7-0.2-0.9-0.3c-0.6-0.1-1.7-0.3-2.3-0.3c-0.4,0-1.2,0.1-1.6,0c-0.4-0.1-1-0.7-1.3-0.9
		c-0.3-0.2-1-0.7-1.3-0.9c-0.3-0.2-0.9-0.3-1.2-0.5c-0.3-0.1-0.9-0.5-1.2-0.6c-0.4-0.2-1-0.7-1.3-1c-0.5-0.4-1.4-1.1-1.9-1.4
		c-0.4-0.3-1.3-0.7-1.8-0.9c-0.4-0.1-1.3-0.1-1.7,0c-0.4,0.1-1.1,0.7-1.5,0.8c-0.3,0.1-1,0-1.3,0c-0.4,0-1.4-0.1-1.8-0.4
		c-0.4-0.3-0.9-1.2-1.1-1.7c-0.1-0.4,0-1.3-0.1-1.7c-0.1-0.3-0.4-0.8-0.6-1c-0.2-0.2-0.7-0.5-0.9-0.6c-0.4-0.2-1.3-0.3-1.8-0.3
		c-0.3,0-1-0.1-1.3-0.1c-0.3,0-1,0-1.4,0.1c-0.4,0.1-1.2,0.6-1.5,0.8c-0.4,0.2-1.3,0.7-1.8,1c-0.6,0.3-1.6,1.2-2.1,1.5
		c-0.4,0.3-1.4,0.7-1.9,1c-0.6,0.4-1.7,1.3-2.4,1.7c-0.4,0.3-1.3,0.8-1.8,1c-0.3,0.2-1,0.5-1.3,0.7c-0.3,0.2-0.7,0.6-0.9,0.8
		c-0.3,0.2-0.8,0.6-1.1,0.7c-0.3,0.1-1,0.3-1.3,0.2c-0.2-0.1-0.6-0.5-0.7-0.7c-0.2-0.3-0.2-1-0.3-1.4c0-0.2-0.1-0.5-0.1-0.7
		c0.2-0.2,0.4-0.4,0.6-0.6c0.2-0.3,0.7-0.9,0.7-1.3c0.1-0.4-0.3-1.2-0.3-1.7c0-0.3,0-1,0-1.3c0-0.3-0.1-1-0.2-1.4
		c-0.1-0.2-0.3-0.6-0.5-0.7c-0.2-0.2-0.7-0.4-0.8-0.7c-0.2-0.2-0.4-0.8-0.5-1.1c-0.2-0.5-0.5-1.4-0.6-1.9c-0.1-0.5-0.5-1.4-0.5-1.9
		c-0.1-0.6,0-1.8,0.1-2.3c0.1-0.3,0.5-0.8,0.7-1.1c0.2-0.3,0.6-0.9,0.7-1.3c0.1-0.3,0-0.8,0-1.1c-0.1-0.3-0.5-1-0.4-1.3
		c0-0.3,0.6-0.8,0.7-1.2c0.1-0.3,0.1-0.9,0-1.2c-0.1-0.2-0.4-0.6-0.5-0.9c-0.1-0.2-0.3-0.5-0.3-0.7C25.5,129.1,25.5,129,25.5,128.9z
		"/>
	<path fill="#E2A960" stroke="#72706F" d="M110.6,61.8c-0.2,0.4-0.3,0.7-0.4,1c-0.2,0.5-0.4,1.4-0.6,1.9c-0.2,0.4-0.7,1.2-0.8,1.7
		c-0.1,0.5-0.1,1.5,0,2.1c0.1,0.4,0.4,1.2,0.6,1.6c0.2,0.4,0.7,1,0.8,1.4c0.1,0.3,0,1-0.1,1.4c-0.1,0.4-0.6,1.1-0.9,1.4
		c-0.2,0.2-0.6,0.6-0.9,0.9c-0.2,0.2-0.4,0.4-0.6,0.5c-0.4,0.3-1.2,0.8-1.6,1.1c-0.2,0.2-0.6,0.8-0.9,0.9c-0.2,0.1-0.8,0.1-1,0
		c-0.4-0.3-0.6-1.4-0.9-1.7c-0.3-0.3-1-0.9-1.3-1.1c-0.3-0.2-1-0.6-1.3-0.8c-0.2-0.1-0.5-0.3-0.7-0.4c-0.3-0.3-0.9-0.9-1.3-1.2
		c-0.2-0.2-0.7-0.6-1-0.7c-0.3-0.1-1-0.1-1.4-0.1c-0.3,0-0.9-0.1-1.2-0.1c-0.5,0.1-1.4,0.6-1.8,0.6c-0.3,0-0.9,0-1.2,0
		c-0.6-0.1-1.6-0.5-2.2-0.6c-0.4,0-1.2,0.2-1.6,0.1c-0.2,0-0.7-0.1-1.1-0.2c0.1-0.2,0.1-0.4,0.2-0.5c0.2-0.4,0.7-1.2,0.9-1.7
		c0.1-0.3,0.3-1.1,0.4-1.4c0.1-0.3,0.5-0.9,0.6-1.2c0.1-0.3,0.1-1.1,0.1-1.4c-0.1-0.4-0.4-1.2-0.7-1.5c-0.3-0.3-1-0.5-1.3-0.7
		c-0.3-0.3-0.9-1-1.1-1.3c-0.2-0.5-0.3-1.7-0.4-2.2c-0.1-0.7-0.2-2-0.3-2.6c-0.1-0.6-0.3-1.9-0.4-2.6c-0.1-0.7,0.1-2.2,0-2.9
		c-0.1-0.6-0.4-1.7-0.6-2.3c-0.2-0.8-0.6-2.3-0.9-3c-0.2-0.8-0.9-2.4-1-3.2c-0.1-0.7-0.4-2-0.3-2.7c0-0.4,0.3-1.2,0.4-1.6
		c0.1-0.4,0.4-1.2,0.4-1.6c0.1-0.5,0.1-1.4,0-1.8c-0.1-0.5-0.6-1.4-0.8-1.8c-0.2-0.4-0.6-1.3-0.9-1.7c-0.3-0.5-0.9-1.4-1-2
		c-0.1-0.4-0.1-1.3-0.1-1.7c0-0.5-0.1-1.5,0-2c0.1-0.4,0.6-1,0.8-1.3c0.2-0.3,0.6-0.9,0.7-1.3c0-0.1,0-0.3,0-0.5c0.1,0,0.2,0,0.2,0
		c0.2-0.1,0.2-0.6,0.4-0.7c0.2-0.1,0.7-0.2,0.9-0.2c0.3,0,0.8,0.3,1.1,0.4c0.5,0.1,1.6,0.1,2.1,0c0.6-0.1,1.7-0.6,2.3-0.7
		c0.6-0.1,1.8-0.1,2.4-0.1c0.6,0,1.7,0,2.2,0.1c0.6,0.1,1.8,0.3,2.3,0.5c0.3,0.2,0.8,0.7,1.1,0.9c0.5,0.4,1.6,1,2.2,1.3
		c0.6,0.4,1.9,1.2,2.6,1.6c0.5,0.3,1.4,0.8,1.9,1.1c0.7,0.4,2.2,1.2,2.8,1.7c0.8,0.6,2.2,2,3,2.7c0.4,0.3,1.1,1.1,1.5,1.4
		c0.3,0.2,1.1,0.5,1.4,0.7c0.4,0.3,1,1.1,1.3,1.5c0.6,0.7,2,2.1,2.6,2.7c0.4,0.4,1.1,1.2,1.5,1.6c0.3,0.3,1,0.8,1.3,1.1
		c0.4,0.5,1,1.6,1.4,2c0.3,0.2,1,0.5,1.3,0.7c0.4,0.2,1.1,0.3,1.5,0.5c0.5,0.3,1.2,1,1.6,1.4c0,0,0.1,0.1,0.1,0.2
		c-0.4,0.1-0.9,0.3-1.2,0.4c-0.7,0.2-2.2,0.6-2.8,1c-0.5,0.3-1.3,1.3-1.7,1.8c-0.3,0.4-1,1.1-1.3,1.6c-0.3,0.5-0.6,1.5-0.9,1.9
		c-0.3,0.5-1,1.5-1.2,2c-0.2,0.3-0.4,1-0.5,1.3c-0.2,0.5-0.8,1.3-1.1,1.8c-0.1,0.2-0.4,0.8-0.6,0.9c-0.3,0.2-1,0.2-1.3,0.4
		c-0.3,0.1-0.9,0.3-1.2,0.5c-0.2,0.2-0.6,0.6-0.7,0.9c-0.1,0.4,0.1,1.2,0,1.6C110.8,61.2,110.7,61.5,110.6,61.8z"/>
</g>
</svg>
