<!-- Generator: Adobe Illustrator 18.0.0, SVG Export Plug-In  -->
<svg version="1.1"
	 xmlns="http://www.w3.org/2000/svg" xmlns:xlink="http://www.w3.org/1999/xlink" xmlns:a="http://ns.adobe.com/AdobeSVGViewerExtensions/3.0/"
	 x="0px" y="0px" width="169.4px" height="187.2px" viewBox="0 0 169.4 187.2" enable-background="new 0 0 169.4 187.2"
	 xml:space="preserve">
<defs>
</defs>
<g>
	<path fill="#9CC397" stroke="#72706F" d="M93,170c-0.3,0.3-0.6,0.7-0.8,0.9c-0.2,0.3-0.7,1-1,1.2c-0.3,0.3-1.2,0.6-1.6,0.7
		c-0.2,0.1-0.7,0.2-0.9,0.3c-0.3,0.1-1,0.3-1.3,0.5c-0.2,0.2-0.6,0.8-0.7,1.1c-0.1,0.3-0.3,0.9-0.4,1.2c-0.1,0.3-0.1,0.8-0.3,1.1
		c-0.2,0.4-0.8,1-1.1,1.3c-0.3,0.3-0.9,0.7-1.2,1c-0.3,0.3-0.6,1.1-0.8,1.4c-0.2,0.5-0.4,1.6-0.6,2.1c-0.1,0.5-0.5,1.4-0.6,1.8
		c-0.1,0.4-0.1,1.2-0.3,1.5c-0.3,0.2-1,0.2-1.4,0.3c-0.2,0-0.7,0.1-1,0.1c-0.2-0.1-0.5-0.3-0.6-0.4c-0.2-0.3-0.2-1.1-0.5-1.4
		c-0.2-0.2-0.8-0.4-1.1-0.4c-0.4-0.1-1.2-0.1-1.6,0c-0.3,0.1-0.7,0.5-1,0.6c-0.2,0.2-0.7,0.5-1,0.6c-0.4,0.2-1.3,0.5-1.8,0.6
		c-0.4,0.1-1.3,0.2-1.7,0c-0.4-0.2-1-0.9-1.2-1.3c-0.2-0.4-0.3-1.3-0.4-1.7c-0.2-0.5-0.7-1.3-0.9-1.7c-0.1-0.3,0-0.8,0-1.1
		c-0.1-0.6-0.4-1.7-0.5-2.3c0-0.4,0.1-1.1,0-1.5c0-0.3-0.2-0.9-0.4-1.2c-0.1-0.3-0.5-0.8-0.5-1.1c-0.1-0.4,0.2-1.2,0.2-1.6
		c0-0.5-0.1-1.4-0.2-1.8c-0.1-0.4-0.4-1.2-0.6-1.6c-0.1-0.2-0.6-0.5-0.7-0.7c-0.1-0.2-0.3-0.7-0.5-0.9c-0.3-0.2-1.1-0.4-1.4-0.4
		c-0.3,0-0.9,0.1-1.2,0c-0.6-0.1-1.7-0.6-2.1-1c-0.4-0.3-0.7-1.3-1.1-1.5c-0.2-0.1-0.8-0.2-1.1-0.1c-0.3,0.1-0.7,0.8-0.9,1.1
		c-0.2,0.2-0.6,0.6-0.9,0.7c-0.4,0.3-1.3,0.6-1.7,0.7c-0.2,0-0.7,0-1,0c-0.2,0-0.7-0.3-0.9-0.3c-0.3,0-0.9,0.1-1.1,0
		c-0.2-0.1-0.5-0.4-0.6-0.5c-0.3-0.1-1-0.1-1.3-0.1c-0.4,0-1.1,0.4-1.5,0.4c-0.3-0.1-0.6-0.7-0.9-0.8c-0.2-0.1-0.8,0-1.1,0
		c-0.3,0-0.8,0-1,0c-0.4,0-1.3,0-1.6-0.2c-0.2-0.1-0.6-0.5-0.7-0.7c-0.1-0.3-0.1-0.8,0-1.1c0-0.2,0.3-0.6,0.3-0.8
		c0-0.3-0.4-0.8-0.4-1.1c0-0.3,0.5-0.7,0.5-1c0.1-0.3,0.1-0.9,0.1-1.2c0-0.5-0.5-1.3-0.5-1.7c0-0.4,0.2-1.1,0.2-1.5
		c0.1-0.8,0.5-2.4,0.6-3.2c0.1-0.6,0.2-1.8,0-2.3c-0.1-0.4-0.8-0.9-1-1.3c-0.3-0.5-0.5-1.6-0.7-2.1c-0.2-0.6-0.8-1.7-1-2.2
		c-0.1-0.4-0.6-1.1-0.5-1.5c0.1-0.4,0.8-0.9,1.1-1.2c0.3-0.3,0.9-0.7,1.3-0.9c0.2-0.1,0.8,0,0.9-0.2c0.1-0.2-0.2-0.7-0.3-0.9
		c-0.2-0.3-0.8-0.6-1-0.9c-0.3-0.4-0.6-1.2-0.6-1.6c-0.1-0.4-0.1-1.2,0-1.6c0.1-0.4,0.4-1.3,0.5-1.7c0.2-0.6,0.7-1.7,0.9-2.3
		c0.1-0.3,0.3-1,0.3-1.4c0-0.3-0.1-0.9-0.1-1.2c0-0.2,0.3-0.7,0.4-0.9c0.2-0.4,0.6-1.1,0.8-1.6c0.1-0.4,0.2-1.3,0.3-1.7
		c0.1-0.4,0.3-1.2,0.5-1.6c0.2-0.5,0.7-1.4,0.7-1.9c0-0.5-0.2-1.5-0.4-1.9c-0.1-0.3-0.6-0.9-0.7-1.2c-0.2-0.5-0.4-1.4-0.5-1.9
		c-0.1-0.3-0.1-0.6-0.2-1c0.1,0,0.3,0,0.4,0c0.2,0,0.4,0.2,0.6,0.2c0.3,0.2,0.9,0.5,1.1,0.7c0.2,0.2,0.4,0.9,0.7,1
		c0.2,0.1,0.6-0.2,0.7-0.3c0.3-0.1,0.8-0.5,1-0.6c0.3-0.2,0.8-0.5,1.1-0.6c0.2-0.1,0.6,0,0.8-0.1c0.2-0.1,0.7-0.4,0.8-0.6
		c0.1-0.2,0-0.8,0.1-1.1c0.2-0.4,0.9-0.8,1.1-1.1c0.2-0.3,0.6-1,0.9-1.2c0.4-0.3,1.3-0.8,1.7-0.9c0.3-0.1,1.1-0.3,1.4-0.4
		c0.4-0.1,1.1,0,1.4-0.1c0.2-0.1,0.5-0.3,0.7-0.4c0.2-0.1,0.7-0.4,1-0.5c0.3-0.1,1-0.5,1.4-0.4c0.3,0,0.8,0.3,1.1,0.4
		c0.3,0.1,0.8,0.5,1.1,0.7c0.3,0.1,0.9,0.3,1.3,0.4c0.4,0.2,1.3,0.6,1.7,0.9c0.3,0.2,0.7,0.8,0.9,1c0.3,0.3,1,0.7,1.3,0.9
		c0.3,0.2,1,0.8,1.3,1c0.5,0.2,1.6,0.2,2.2,0.2c0.3,0,1-0.3,1.3-0.4c0.4-0.1,1.1-0.5,1.4-0.7c0.3-0.1,1-0.5,1.3-0.6
		c0.4-0.1,1.1-0.1,1.4-0.1c0.5,0,1.6,0.3,2.1,0.5c0.4,0.1,1.1,0.4,1.5,0.4c0.2,0,0.7,0,0.9-0.1c0.3-0.1,0.7-0.5,0.9-0.7
		c0.2-0.2,0.4-0.7,0.6-0.9c0.2-0.2,0.9-0.4,1.1-0.7c0.2-0.2,0.5-0.6,0.6-0.8c0.1-0.2,0.1-0.5,0.3-0.6c0.2-0.1,0.6-0.1,0.8,0
		c0.2,0.1,0.4,0.6,0.4,0.8c0.1,0.3,0,0.9,0,1.2c0,0.3-0.1,0.8-0.2,1c-0.1,0.3-0.5,0.8-0.7,1c-0.2,0.2-0.5,0.5-0.7,0.7
		c-0.2,0.3-0.5,0.9-0.6,1.2c-0.1,0.3-0.1,0.9,0,1.2c0.1,0.2,0.6,0.6,0.8,0.7c0.4,0.2,1.2,0,1.6,0.1c0.3,0,0.8,0.2,1.1,0.2
		c0.8,0.1,2.5-0.2,3.3-0.2c0.3,0,1.1,0,1.7,0c0,0.1,0.1,0.1,0.1,0.1c0.1,0.2,0.3,0.8,0.4,1c0.1,0.4,0.2,1.1,0.3,1.5
		c0.1,0.3,0.3,0.7,0.5,0.9c0.2,0.2,0.9,0.5,1,0.8c0.2,0.3,0.2,1,0.2,1.4c0,0.3-0.1,0.8-0.1,1.1c0,0.2,0.2,0.6,0.3,0.7
		c0.3,0.3,1.2,0.7,1.6,0.8c0.4,0.1,1.1,0.1,1.5,0.1c0.3,0,1-0.4,1.3-0.3c0.2,0.1,0.4,0.6,0.6,0.8c0.2,0.2,0.5,0.5,0.7,0.6
		c0.2,0.1,0.8,0,1,0c0.4,0.1,1.1,0.3,1.4,0.5c0.2,0.2,0.5,0.8,0.7,1c0.2,0.2,0.7,0.3,0.9,0.4c0.3,0.2,1,0.4,1.3,0.6
		c0.4,0.2,1.1,0.6,1.4,0.7c0.3,0.1,1,0,1.3,0.1c0.3,0.1,0.9,0.4,1.3,0.5c0.5,0.2,1.4,0.5,1.8,0.7c0.3,0.2,0.8,0.7,1,0.9
		c0.3,0.3,0.8,0.8,1,1c0.1,0.1,0.5,0.3,0.8,0.5c-0.2,0.2-0.3,0.4-0.4,0.5c-0.1,0.2,0.1,0.8,0,1c-0.1,0.5-0.7,1.2-0.8,1.7
		c-0.1,0.3-0.1,0.9,0,1.1c0.1,0.4,0.5,1,0.5,1.3c0,0.3,0,0.9-0.1,1.4c0,0.3-0.1,0.6-0.1,0.8c0,0.3,0.1,1,0,1.3
		c-0.1,0.3-0.7,0.8-1,0.9c-0.4,0.2-1.4-0.1-1.8,0c-0.4,0.1-1.2,0.4-1.5,0.7c-0.2,0.2-0.4,0.9-0.6,1.1c-0.2,0.2-0.8,0.5-1,0.8
		c-0.2,0.3-0.4,1-0.5,1.4c-0.1,0.3,0.1,1,0,1.3c-0.2,0.6-1,1.7-1.3,2.3c-0.2,0.3-0.5,0.9-0.7,1.2c-0.2,0.3-0.6,0.9-0.7,1.3
		c-0.1,0.3,0.1,1,0,1.3c-0.1,0.3-0.3,1-0.6,1.2c-0.2,0.3-1,0.4-1.2,0.7c-0.2,0.3-0.1,0.9-0.1,1.2c-0.1,0.4-0.3,1.1-0.4,1.5
		c-0.3,0.4-1.1,1.1-1.5,1.5c-0.3,0.4-0.9,1.3-1.2,1.7c-0.3,0.5-0.9,1.7-1.3,2.2c-0.3,0.3-1,0.6-1.3,0.7c-0.5,0.2-1.4,0.6-1.8,0.9
		c-0.5,0.3-1.6,0.9-2.1,1.3C93.1,169.9,93.1,170,93,170z"/>
	<path fill="#9CC397" stroke="#72706F" d="M57.7,24.9l65.8,4.1c-0.1,0.3-0.1,0.5-0.2,0.7c-0.1,0.2-0.3,0.6-0.4,0.8
		c-0.1,0.3-0.5,0.8-0.6,1.1c-0.2,0.5-0.3,1.4-0.5,1.9c-0.2,0.5-0.6,1.3-0.9,1.7c-0.1,0.2-0.5,0.7-0.6,1c-0.2,0.4-0.4,1.4-0.6,1.9
		c-0.2,0.5-0.5,1.4-0.6,1.8c-0.1,0.8,0,2.3-0.1,3.1c-0.1,0.6-0.6,1.7-0.7,2.3c0,0.3,0,0.9,0,1.2c0,0.3,0.2,1,0.3,1.3
		c0,0.3,0.1,1,0.1,1.3c0,0.3-0.3,0.9-0.4,1.3c0,0.4,0.3,1.1,0.3,1.4c0.1,0.6,0,1.8,0,2.3c0,0.3-0.1,0.9,0,1.2c0,0.2,0.3,0.5,0.4,0.6
		c0.1,0.3,0.3,1,0.3,1.3c0,0.4-0.1,1.2-0.1,1.6c0,0.4-0.2,1.3-0.1,1.7c0,0.3,0.2,0.8,0.4,1c0.2,0.2,0.7,0.4,1,0.4
		c0.1,0,0.2-0.1,0.4-0.1c-0.1,0.4-0.2,1-0.4,1.2c-0.1,0.3-0.6,0.8-0.8,1c-0.1,0.2-0.3,0.6-0.4,0.8c-0.1,0.3-0.2,1-0.3,1.3
		c-0.1,0.4-0.2,1.2-0.4,1.6c-0.2,0.4-0.7,1-0.9,1.4c-0.2,0.5-0.6,1.4-0.8,1.9c-0.1,0.4-0.4,1.1-0.4,1.5c-0.1,0.4-0.3,1.2-0.3,1.6
		c0,0.4,0.1,1.2,0,1.6c-0.1,0.4-0.4,1-0.5,1.3c-0.2,0.4-0.8,1.1-0.9,1.5c-0.1,0.2,0.1,0.7,0.1,1c0,0.4-0.2,1.2-0.3,1.6
		c-0.1,0.5-0.4,1.3-0.5,1.8c-0.1,0.3-0.3,1-0.4,1.3c-0.2,0.4-0.6,1.1-0.9,1.4c-0.3,0.3-1.1,0.7-1.5,0.9c-0.4,0.2-1.2,0.4-1.6,0.5
		c-0.3,0.1-1.1,0.3-1.4,0.5c-0.3,0.2-0.7,0.7-0.9,1c-0.1,0.3-0.3,0.9-0.4,1.1c-0.1,0.3-0.3,0.9-0.4,1.2c-0.1,0.3-0.5,1-0.6,1.4
		c-0.1,0.3-0.1,0.9-0.2,1.2c-0.2,0.4-0.6,1.1-0.9,1.3c-0.4,0.3-1.4,0.4-1.8,0.6c-0.3,0.2-0.9,0.6-1.2,0.8c-0.6,0.4-1.9,1.1-2.6,1.5
		c-0.5,0.4-1.6,1.1-2,1.6c-0.2,0.4-0.2,1.5-0.3,1.9c-0.1,0.5-0.2,1.4-0.4,1.8c-0.2,0.5-0.6,1.5-0.9,1.9c-0.4,0.4-1.6,0.8-2.1,1.1
		c-0.4,0.3-1.2,1.2-1.5,1.7c-0.2,0.3-0.4,1-0.5,1.3c-0.1,0.5-0.4,1.4-0.5,1.9c-0.1,0.6-0.3,1.9-0.4,2.6c0,0.6-0.1,1.7,0,2.2
		c0.1,0.6,0.5,1.8,0.8,2.4c0.1,0.2,0.3,0.5,0.5,0.7c-0.6,0-1.3,0-1.7,0c-0.8,0-2.5,0.3-3.3,0.2c-0.3,0-0.8-0.2-1.1-0.2
		c-0.4-0.1-1.2,0.1-1.6-0.1c-0.3-0.1-0.7-0.5-0.8-0.7c-0.1-0.3-0.1-0.9,0-1.2c0.1-0.3,0.4-0.9,0.6-1.2c0.1-0.2,0.5-0.5,0.7-0.7
		c0.2-0.2,0.6-0.7,0.7-1c0.1-0.2,0.2-0.8,0.2-1c0-0.3,0.1-0.9,0-1.2c-0.1-0.2-0.2-0.7-0.4-0.8c-0.2-0.1-0.6-0.1-0.8,0
		c-0.1,0.1-0.2,0.5-0.3,0.6c-0.1,0.2-0.4,0.7-0.6,0.8c-0.2,0.2-0.9,0.4-1.1,0.7c-0.2,0.2-0.4,0.7-0.6,0.9c-0.2,0.2-0.7,0.6-0.9,0.7
		c-0.2,0.1-0.7,0.1-0.9,0.1c-0.4,0-1.1-0.3-1.5-0.4c-0.5-0.1-1.5-0.4-2.1-0.5c-0.4,0-1.1,0-1.4,0.1c-0.3,0.1-1,0.4-1.3,0.6
		c-0.4,0.2-1.1,0.5-1.4,0.7c-0.3,0.1-1,0.4-1.3,0.4c-0.5,0.1-1.6,0-2.2-0.2c-0.4-0.1-1-0.7-1.3-1c-0.3-0.2-1-0.6-1.3-0.9
		c-0.3-0.2-0.7-0.8-0.9-1c-0.4-0.3-1.3-0.7-1.7-0.9c-0.3-0.1-1-0.3-1.3-0.4c-0.3-0.1-0.8-0.5-1.1-0.7c-0.3-0.1-0.8-0.4-1.1-0.4
		c-0.4,0-1,0.3-1.4,0.4c-0.3,0.1-0.7,0.4-1,0.5c-0.2,0.1-0.5,0.4-0.7,0.4c-0.3,0.1-1.1,0.1-1.4,0.1c-0.4,0.1-1.1,0.2-1.4,0.4
		c-0.5,0.2-1.4,0.6-1.7,0.9c-0.3,0.2-0.6,0.9-0.9,1.2c-0.3,0.3-1,0.8-1.1,1.1c-0.1,0.2,0,0.8-0.1,1.1c-0.1,0.2-0.6,0.5-0.8,0.6
		c-0.2,0.1-0.6,0-0.8,0.1c-0.3,0.1-0.8,0.4-1.1,0.6c-0.3,0.1-0.8,0.5-1,0.6c-0.2,0.1-0.5,0.4-0.7,0.3c-0.3-0.1-0.4-0.8-0.7-1
		c-0.2-0.2-0.8-0.6-1.1-0.7c-0.1-0.1-0.4-0.2-0.6-0.2c-0.1,0-0.2,0-0.4,0c-0.1-0.4-0.1-0.8-0.3-1c-0.2-0.4-0.9-1-1.3-1.3
		c-0.4-0.2-1.2-0.4-1.6-0.5c-0.4-0.1-1.2-0.4-1.6-0.6c-0.5-0.3-1.5-1.1-1.8-1.6c-0.2-0.3-0.5-0.8-0.6-1.1c-0.2-0.4-0.4-1.3-0.5-1.7
		c-0.2-0.5-0.5-1.5-0.6-2c0-0.3-0.1-1,0-1.4c0.1-0.4,0.6-0.9,0.7-1.3c0.1-0.3,0.4-0.8,0.4-1.1c0.1-0.3,0.1-1,0-1.3
		c-0.1-0.3-0.6-0.7-0.9-0.9c-0.5-0.2-1.7,0-2.3,0c-0.8,0-2.4,0-3.2,0c-1.6,0-4.7,0-6.3,0c-0.7,0-2.2,0.1-2.9,0
		c-0.8-0.1-2.4-0.4-3-0.9c-0.3-0.3-0.4-1.1-0.6-1.5c-0.2-0.5-0.6-1.5-0.6-2.1c-0.1-0.6,0.3-1.8,0.2-2.4c-0.1-0.7-0.9-1.8-1.3-2.4
		C15.1,91,14,90,13.7,89.3c-0.1-0.2-0.2-0.6-0.1-0.8c0.1-0.2,0.7-0.4,0.9-0.6c0.2-0.1,0.6-0.4,0.8-0.5c0.2-0.3,0.4-1,0.4-1.4
		c0.1-0.4,0.1-1.3,0-1.7c-0.1-0.5-0.5-1.3-0.7-1.8c-0.2-0.5-0.5-1.6-0.7-2.1c-0.2-0.4-0.8-1-0.9-1.4c-0.1-0.3,0-0.9,0-1.1
		c0-0.3,0.2-1,0.3-1.3c0-0.3,0.1-0.8,0-1.1c0-0.2-0.2-0.6-0.3-0.8c-0.1-0.1-0.3-0.2-0.3-0.2c-0.2-0.2-0.5-0.7-0.7-0.9
		c-0.2-0.2-0.5-0.5-0.8-0.7c-0.3-0.1-0.9-0.2-1.2-0.3c0,0-0.1,0-0.1,0l0.8-1.3l1.4-0.9l0.7-0.4l0.9-0.7l0.5-1.1v-1.6l0.9-0.6
		l0.7-1.1l0.8-0.6l0.5-0.9l0.8-0.5v-1.1l0.5-1.1l0.5-1.2l0.4-1.3l-0.2-2.2l-0.2-1.2l-0.6-1.5l-0.6-0.4l-0.6-1l-0.4-1.3l0.6-2.3
		l0.7-1.3l0.4-1.5L18,44.2l-2.3-1.1h-1.1l-0.7,0.2L12.1,43H9.8l-3.4-0.3l-1.8,0.2H3.1l-1.3-0.7l-0.5-1l0.3-1.5l0.2-1.8L1.5,36
		l-0.6-1.2L0.5,17.9l32.6-1.4c0,0,0.6-0.2,0.7-0.3c0.1-0.2,0-0.6,0.1-0.8c0.1-0.2,0.3-0.6,0.4-0.8c0.1-0.2,0.1-0.6,0.1-0.8
		c0-0.2,0.2-0.7,0.3-0.9c0.1-0.1,0.2-0.4,0.3-0.5c0.1-0.2,0.3-0.6,0.3-0.9c0.1-0.2,0-0.8,0-1c0-0.4,0.3-1,0.3-1.4c0-0.2,0-0.7,0-0.9
		c-0.1-0.2-0.4-0.6-0.4-0.9C35,7.2,34.9,6.8,35,6.6c0-0.2,0.2-0.7,0.4-0.9C35.5,5.5,36,5.3,36.1,5c0.2-0.3,0.2-0.9,0.2-1.3
		c0-0.3-0.3-0.9-0.2-1.2c0.1-0.2,0.5-0.3,0.6-0.5c0.1-0.2-0.1-0.6,0-0.8c0.1-0.2,0.5-0.4,0.8-0.6c0.7,1.2,1.9,3.2,2.4,4.2
		c0.6,1.2,1.7,3.8,2.2,5.1c0.2,0.6,0.5,1.8,0.6,2.4c0.1,0.6-0.1,1.8,0,2.4c0.1,0.5,0.5,1.4,0.8,1.8c0.4,0.6,1.6,1.5,2.1,1.9
		c0.5,0.4,1.4,1.2,1.9,1.6c0.5,0.4,1.4,1.1,1.9,1.5c0.4,0.3,1.2,0.7,1.6,0.9c0.5,0.3,1.3,0.9,1.8,1.1c0.5,0.2,1.7,0.5,2.3,0.7
		C55.8,24.5,57.7,24.9,57.7,24.9z"/>
	<path fill="#9CC397" stroke="#72706F" d="M92.3,118.9c-0.2-0.2-0.4-0.5-0.5-0.7c-0.3-0.6-0.7-1.7-0.8-2.4c-0.1-0.5,0-1.7,0-2.2
		c0-0.6,0.2-1.9,0.4-2.6c0.1-0.5,0.3-1.4,0.5-1.9c0.1-0.3,0.3-1,0.5-1.3c0.3-0.5,1-1.3,1.5-1.7c0.5-0.4,1.7-0.7,2.1-1.1
		c0.4-0.4,0.8-1.4,0.9-1.9c0.1-0.4,0.3-1.4,0.4-1.8c0.1-0.5,0-1.5,0.3-1.9c0.3-0.6,1.4-1.2,2-1.6c0.6-0.4,1.9-1.1,2.6-1.5
		c0.3-0.2,0.9-0.7,1.2-0.8c0.4-0.2,1.4-0.4,1.8-0.6c0.3-0.2,0.8-0.9,0.9-1.3c0.1-0.3,0.1-0.9,0.2-1.2c0.1-0.4,0.5-1,0.6-1.4
		c0.1-0.3,0.3-0.9,0.4-1.2c0.1-0.3,0.2-0.9,0.4-1.1c0.2-0.3,0.6-0.8,0.9-1c0.3-0.2,1-0.4,1.4-0.5c0.4-0.1,1.2-0.3,1.6-0.5
		c0.4-0.2,1.2-0.6,1.5-0.9c0.3-0.3,0.8-1.1,0.9-1.4c0.1-0.3,0.3-1,0.4-1.3c0.1-0.4,0.4-1.3,0.5-1.8c0.1-0.4,0.2-1.2,0.3-1.6
		c0-0.2-0.1-0.7-0.1-1c0.1-0.4,0.7-1.1,0.9-1.5c0.2-0.3,0.5-1,0.5-1.3c0.1-0.4,0-1.2,0-1.6c0-0.4,0.2-1.2,0.3-1.6
		c0.1-0.4,0.3-1.1,0.4-1.5c0.2-0.5,0.5-1.5,0.8-1.9c0.2-0.4,0.8-1,0.9-1.4c0.2-0.4,0.3-1.2,0.4-1.6c0.1-0.3,0.2-1,0.3-1.3
		c0.1-0.2,0.2-0.6,0.4-0.8c0.2-0.3,0.7-0.7,0.8-1c0.1-0.3,0.3-0.8,0.4-1.2c0-0.1,0.1-0.3,0.1-0.4c0.1-0.3,0.1-0.9,0.1-1.3
		c0.1-0.4,0.3-1.2,0.5-1.5c0.2-0.2,0.6-0.6,0.9-0.8c0.2-0.1,0.6-0.2,0.8-0.1c0.1,0,0.4,0.1,0.4,0.2c0.1,0.2,0,0.6,0,0.7
		c0,0.3-0.3,0.7-0.4,1c-0.1,0.3-0.3,0.8-0.3,1.1c0,0.3-0.1,1.1,0,1.4c0.1,0.2,0.4,0.7,0.5,0.9c0.2,0.2,0.6,0.7,0.8,0.9
		c0.3,0.2,1,0.4,1.3,0.5c0.3,0.1,0.8,0.3,1.1,0.4c0.4,0.1,1.1,0.4,1.4,0.5c0.3,0.1,0.9,0.3,1.2,0.4c0.2,0.1,0.5,0.5,0.7,0.6
		c0.2,0.1,0.7,0.2,1,0.2c0.3,0,0.8-0.2,1-0.3c0.2-0.1,0.4-0.6,0.5-0.8c0.2-0.3,0.4-0.9,0.6-1.1c0.2-0.4,0.7-1.1,1-1.4
		c0.2-0.3,0.6-1,0.9-1.1c0.3-0.1,0.9-0.1,1.1,0c0.3,0.1,0.8,0.5,1,0.7c0.3,0.3,0.7,1,0.9,1.3c0.2,0.4,0.4,1.2,0.4,1.6
		c0.1,0.5,0,1.5,0.2,1.8c0.1,0.2,0.6,0.6,0.8,0.5c0.2-0.1,0.2-0.5,0.4-0.7c0.1-0.2,0.4-0.6,0.7-0.8c0.2-0.1,0.6-0.1,0.8-0.1
		c0.3,0,1,0,1.3,0c0.4-0.1,1.1-0.4,1.5-0.4c0.3,0,1-0.1,1.3,0c0.4,0.1,1.1,0.5,1.4,0.8c0.3,0.2,0.7,0.8,1,1c0.4,0.2,1.2,0.5,1.6,0.5
		c0.2,0,0.7-0.1,0.8-0.3c0.1-0.2-0.1-0.7,0-0.9c0-0.2,0.2-0.5,0.3-0.7c0.1-0.1,0.5-0.3,0.7-0.2c0.2,0,0.5,0.4,0.7,0.5
		c0.3,0.2,0.9,0.5,1.3,0.6c0.2,0,0.7,0.1,0.9,0c0.3-0.1,0.9-0.4,1.2-0.6c0.2-0.1,0.5-0.5,0.7-0.5c0.3-0.1,1,0,1.3,0
		c0.4,0,1.2-0.1,1.5-0.3c0.3-0.1,0.8-0.3,1.1-0.5c0.3-0.2,0.8-0.6,1.1-0.8c0.4-0.2,1.1-0.8,1.5-0.9c0.3-0.1,0.8,0.1,1.1,0
		c0.4-0.1,1-0.7,1.4-0.8c0.3-0.1,0.8-0.2,1.3-0.2c0,0.1,0,0.2,0,0.3c0,0.2,0.2,0.5,0.3,0.7c0.1,0.2,0.5,0.6,0.5,0.9
		c0.1,0.3,0.1,0.9,0,1.2c-0.1,0.3-0.7,0.8-0.7,1.2c0,0.3,0.4,1,0.4,1.3c0,0.3,0.1,0.8,0,1.1c-0.1,0.3-0.5,0.9-0.7,1.3
		c-0.2,0.3-0.6,0.8-0.7,1.1c-0.2,0.6-0.2,1.7-0.1,2.3c0,0.5,0.4,1.5,0.5,1.9c0.1,0.5,0.4,1.4,0.6,1.9c0.1,0.3,0.3,0.8,0.5,1.1
		c0.2,0.2,0.7,0.5,0.8,0.7c0.2,0.2,0.4,0.5,0.5,0.7c0.1,0.3,0.2,1,0.2,1.4c0,0.3,0,1,0,1.3c0,0.4,0.4,1.2,0.3,1.7
		c-0.1,0.4-0.5,1-0.7,1.3c-0.1,0.2-0.4,0.4-0.6,0.6c-0.1,0-0.1,0.1-0.1,0.1c-0.4,0.2-1.2,0.1-1.6,0c-0.2,0-0.6-0.1-0.8-0.3
		c-0.1-0.1-0.2-0.5-0.3-0.6c-0.1-0.2-0.4-0.7-0.5-0.8c-0.2-0.2-0.7-0.3-1-0.3c-0.2,0-0.7-0.1-0.9,0c-0.3,0.2-0.5,0.8-0.6,1.1
		c-0.2,0.4-0.1,1.3-0.4,1.6c-0.1,0.2-0.6,0.4-0.8,0.5c-0.3,0.1-1,0.1-1.3,0.2c-0.2,0.1-0.5,0.3-0.7,0.5c-0.1,0.2-0.3,0.6-0.3,0.8
		c-0.1,0.3,0,0.9,0,1.2c0,0.3-0.1,0.8-0.1,1.1c-0.1,0.4-0.2,1.1-0.2,1.5c0,0.4,0.2,1.3,0.2,1.8c0,0.5,0,1.5-0.2,2
		c-0.2,0.3-0.8,0.8-1.1,0.9c-0.3,0.1-1,0.1-1.3,0.1c-0.2,0.1-0.7,0.3-0.9,0.4c-0.2-0.3-0.4-0.6-0.5-0.8c-0.1-0.1-0.3-0.3-0.4-0.5
		c-0.1-0.3,0-0.9,0-1.2c0-0.4,0.1-1.1,0-1.5c-0.2-0.5-0.8-1.6-1.3-1.8c-0.6-0.3-1.9-0.2-2.6-0.2c-0.8-0.1-2.3-0.2-3.1-0.2
		c-0.5,0-1.8-0.1-2.2,0.2c-0.2,0.1-0.2,0.6-0.2,0.9c0,0.3,0.1,0.9,0,1.1c-0.1,0.2-0.4,0.7-0.4,0.9c-0.1,0.4-0.3,1.4-0.2,1.8
		c0.1,0.5,0.4,1.5,0.9,1.8c0.4,0.3,1.4,0.2,1.9,0c0.2-0.1,0.5-0.7,0.7-0.7c0.3,0,0.7,0.4,0.9,0.5c0.3,0.1,0.9,0,1.2,0
		c0.4,0.1,1,0.4,1.4,0.5c0.5,0.1,1.5-0.1,2,0c0.2,0,0.5,0.1,0.8,0.3c-0.1,0.2-0.3,0.6-0.3,0.8c-0.1,0.4-0.1,1.2-0.2,1.6
		c-0.1,0.3-0.5,0.7-0.6,1c-0.1,0.4-0.1,1.1,0,1.5c0,0.2,0.1,0.7,0.2,0.8c0.2,0.3,0.8,0.6,1,0.9c0.2,0.3,0.6,0.9,0.8,1.3
		c0.2,0.5,0.5,1.5,0.5,2c0,0.3-0.4,0.9-0.6,1.2c-0.2,0.3-0.7,0.7-0.9,0.9c-0.3,0.3-1.1,0.9-1.4,1.3c-0.2,0.2-0.5,0.8-0.6,1.1
		c-0.1,0.1-0.2,0.4-0.2,0.5c0,0.2,0.4,0.6,0.5,0.7c0.2,0.2,0.7,0.3,0.9,0.6c0.2,0.2,0.2,0.9,0.2,1.2c0,0.3,0,1,0,1.3
		c0,0.3-0.3,0.9-0.3,1.2c0,0.3,0.2,0.9,0.3,1.2c0,0.2,0.1,0.7,0,0.9c-0.1,0.3-0.5,0.6-0.7,0.8c-0.2,0.2-0.5,0.7-0.7,0.9
		c-0.3,0.2-1.1,0.5-1.4,0.7c-0.3,0.1-0.8,0.4-1,0.6c-0.3,0.2-0.7,0.9-1,1.1c-0.4,0.2-1.2,0.2-1.6,0.2c-0.5,0-1.4-0.4-1.9-0.6
		c-0.6-0.2-1.9-0.6-2.6-0.7c-0.3-0.1-1-0.2-1.4-0.2c-0.3,0-1,0.2-1.3,0.1c-0.5,0-1.4-0.3-1.8-0.3c-0.5,0-1.4,0.3-1.8,0.5
		c-0.3,0.2-0.8,0.7-1.1,0.9c-0.4,0.3-1.3,0.8-1.8,1c-0.3,0.1-1,0.3-1.4,0.4c-0.6,0.1-1.7,0-2.3-0.1c-0.3,0-0.7-0.3-1-0.3
		c-0.6,0-1.7,0.5-2.3,0.7c-0.2,0.1-0.6,0.2-0.8,0.2c-0.3,0-0.8,0-1,0c-0.3,0.1-0.9,0.3-1.3,0.4c-0.3,0.1-1.1,0.2-1.4,0.4
		c-0.2,0.2-0.6,0.6-0.7,0.9c-0.1,0.3-0.2,0.9-0.3,1.3c-0.2,0.4-0.5,1.2-0.8,1.6c-0.3,0.3-1.1,0.7-1.4,1c-0.3,0.3-0.8,1-1.1,1.3
		c-0.4,0.5-1.4,1.4-1.8,1.9c-0.1,0.1-0.2,0.2-0.3,0.3c-0.3-0.2-0.6-0.4-0.8-0.5c-0.3-0.2-0.8-0.8-1-1c-0.3-0.2-0.7-0.7-1-0.9
		c-0.4-0.3-1.4-0.5-1.8-0.7c-0.3-0.1-0.9-0.4-1.3-0.5c-0.3-0.1-1,0-1.3-0.1c-0.4-0.1-1.1-0.5-1.4-0.7c-0.3-0.2-1-0.4-1.3-0.6
		c-0.2-0.1-0.7-0.2-0.9-0.4c-0.2-0.2-0.5-0.8-0.7-1c-0.3-0.2-1-0.5-1.4-0.5c-0.3,0-0.8,0.1-1,0c-0.2-0.1-0.5-0.4-0.7-0.6
		c-0.2-0.2-0.4-0.7-0.6-0.8c-0.3-0.1-1,0.3-1.3,0.3c-0.4,0-1.1,0-1.5-0.1c-0.4-0.1-1.3-0.5-1.6-0.8c-0.1-0.1-0.3-0.5-0.3-0.7
		c0-0.3,0.1-0.8,0.1-1.1c0-0.3,0-1.1-0.2-1.4c-0.2-0.3-0.8-0.5-1-0.8c-0.2-0.2-0.4-0.7-0.5-0.9c-0.1-0.4-0.2-1.1-0.3-1.5
		c-0.1-0.3-0.3-0.8-0.4-1C92.4,119,92.4,119,92.3,118.9z"/>
	<path fill="#9CC397" stroke="#72706F" d="M154.6,97.7c0,0-0.1,0-0.1,0.1c-0.3,0.2-0.8,0.6-1,0.9c0,0-0.1,0.1-0.1,0.1
		c-0.3-0.1-0.6-0.2-0.8-0.3c-0.5-0.1-1.5,0.1-2,0c-0.4-0.1-1-0.4-1.4-0.5c-0.3,0-0.9,0.1-1.2,0c-0.3-0.1-0.7-0.5-0.9-0.5
		c-0.3,0-0.5,0.6-0.7,0.7c-0.4,0.2-1.5,0.3-1.9,0c-0.4-0.3-0.8-1.3-0.9-1.8c-0.1-0.5,0.1-1.4,0.2-1.8c0.1-0.2,0.4-0.6,0.4-0.9
		c0.1-0.3,0-0.9,0-1.1c0-0.2,0-0.7,0.2-0.9c0.4-0.4,1.6-0.2,2.2-0.2c0.8,0,2.3,0.1,3.1,0.2c0.6,0.1,2-0.1,2.6,0.2
		c0.5,0.3,1.1,1.3,1.3,1.8c0.1,0.3,0,1.1,0,1.5c0,0.3-0.1,0.9,0,1.2c0.1,0.1,0.3,0.3,0.4,0.5C154.3,97,154.5,97.4,154.6,97.7z"/>
</g>
</svg>
