<!-- Generator: Adobe Illustrator 18.0.0, SVG Export Plug-In  -->
<svg version="1.1"
	 xmlns="http://www.w3.org/2000/svg" xmlns:xlink="http://www.w3.org/1999/xlink" xmlns:a="http://ns.adobe.com/AdobeSVGViewerExtensions/3.0/"
	 x="0px" y="0px" width="20.8px" height="64.2px" viewBox="0 0 20.8 64.2" enable-background="new 0 0 20.8 64.2"
	 xml:space="preserve">
<defs>
</defs>
<g>
	<path fill="#B6A451" d="M10.4,0C7.6,0,5.3,2.3,5.3,5.1c0,2.8,2.3,5.1,5.1,5.1c2.8,0,5.1-2.3,5.1-5.1C15.5,2.3,13.2,0,10.4,0"/>
	<path fill="#B6A451" d="M16.1,11.1H4.7c-2.6,0-4.7,2.2-4.7,4.8v18.6c0,1.1,0.9,2.1,2.1,2.1c1.2,0,2.1-0.9,2.1-2.1V17.8h0.8l0,17.7
		h0v26.5c0,1.3,1,2.3,2.3,2.3c1.3,0,2.3-1,2.3-2.3V35.5h1.6v26.5c0,1.3,1,2.3,2.3,2.3c1.3,0,2.3-1,2.3-2.3V35.5h0l-0.1-17.7h0.9
		v16.8c0,1.1,0.9,2.1,2.1,2.1c1.1,0,2.1-0.9,2.1-2.1V15.9C20.8,13.2,18.7,11.1,16.1,11.1"/>
</g>
</svg>
