<!-- Generator: Adobe Illustrator 18.0.0, SVG Export Plug-In  -->
<svg version="1.1"
	 xmlns="http://www.w3.org/2000/svg" xmlns:xlink="http://www.w3.org/1999/xlink" xmlns:a="http://ns.adobe.com/AdobeSVGViewerExtensions/3.0/"
	 x="0px" y="0px" width="28.1px" height="64.2px" viewBox="0 0 28.1 64.2" enable-background="new 0 0 28.1 64.2"
	 xml:space="preserve">
<defs>
</defs>
<g>
	<path fill="#8FACC0" d="M14.1,0C11.3,0,9,2.3,9,5.1c0,2.8,2.3,5.1,5.1,5.1c2.8,0,5.1-2.3,5.1-5.1C19.2,2.3,16.9,0,14.1,0"/>
	<path fill="#8FACC0" d="M19.7,11.1H8.4c-2.6,0-4.7,2.2-4.7,4.9L0,34.6c0,1.1,0.9,2.1,2.1,2.1c1.1,0,2.1-0.9,2.1-2.1l3.7-16.8h0.8
		L3.8,45.6h4.8h0v16.3c0,1.3,1,2.3,2.3,2.3c1.3,0,2.3-1,2.3-2.3V45.6h1.6v16.3c0,1.3,1,2.3,2.3,2.3c1.3,0,2.3-1,2.3-2.3V45.6h0
		l5.1-0.1l-5.2-27.8h0.9L24,34.6c0,1.1,0.9,2.1,2.1,2.1c1.1,0,2.1-0.9,2.1-2.1l-3.7-18.6C24.5,13.2,22.3,11.1,19.7,11.1"/>
</g>
</svg>
