<!-- Generator: Adobe Illustrator 18.0.0, SVG Export Plug-In  -->
<svg version="1.1"
	 xmlns="http://www.w3.org/2000/svg" xmlns:xlink="http://www.w3.org/1999/xlink" xmlns:a="http://ns.adobe.com/AdobeSVGViewerExtensions/3.0/"
	 x="0px" y="0px" width="111.5px" height="123.7px" viewBox="0 0 111.5 123.7" enable-background="new 0 0 111.5 123.7"
	 xml:space="preserve">
<defs>
</defs>
<g>
	<g enable-background="new    ">
		<defs>
			<path id="SVGID_1_" enable-background="new    " d="M100.5,28.9l5.2,10c4.1,8,6.2,17.1,5.7,26.9c-1.8,31.4-29.9,57.3-62.9,57.9
				c-17.7,0.3-32.2-5.7-43.3-18L0,95.7c11.1,12.3,25.6,18.4,43.3,18c33-0.6,61.1-26.5,62.9-57.9C106.7,46,104.6,36.8,100.5,28.9z"/>
		</defs>
		<clipPath id="SVGID_2_">
			<use xlink:href="#SVGID_1_"  overflow="visible"/>
		</clipPath>
		<g clip-path="url(#SVGID_2_)" enable-background="new    ">
			<path fill="#746733" d="M100.5,28.9l5.2,10c4.1,8,6.2,17.1,5.7,26.9c-1.8,31.4-29.9,57.3-62.9,57.9c-17.7,0.3-32.2-5.7-43.3-18
				L0,95.7c11.1,12.3,25.6,18.4,43.3,18c33-0.6,61.1-26.5,62.9-57.9C106.7,46,104.6,36.8,100.5,28.9"/>
		</g>
	</g>
	<g>
		<path fill="#DFC762" d="M49.6,0c33-0.6,58.3,24.4,56.5,55.8c-1.8,31.4-29.9,57.3-62.9,57.9C25.6,114,11.1,108,0,95.7l46.5-38.8
			L49.6,0z"/>
	</g>
</g>
</svg>
